<?xml version="1.0" encoding="utf-8"?>
<!-- Generator: Adobe Illustrator 24.1.2, SVG Export Plug-In . SVG Version: 6.00 Build 0)  -->
<svg version="1.1" id="Layer_1" xmlns="http://www.w3.org/2000/svg" xmlns:xlink="http://www.w3.org/1999/xlink" x="0px" y="0px"
	 viewBox="0 0 417.11 492.22" style="enable-background:new 0 0 417.11 492.22;" xml:space="preserve">
<style type="text/css">
	.st0{fill:#FECD01;}
	.st1{fill:#B37FB5;}
	.st2{fill:#F6A418;}
	.st3{fill:#B361A1;}
	.st4{fill:#F6A518;}
	.st5{fill:#F4B816;}
</style>
<g>
	<path class="st0" d="M208.24,145.52c0.15-0.08,0.31-0.16,0.46-0.23c0.2-0.08,0.44-0.11,0.61-0.23c2.38-1.83,4.79-3.63,7.13-5.51
		c3.82-3.06,7.66-6.11,11.4-9.29c4.98-4.24,9.91-8.55,14.78-12.92c3.43-3.08,6.76-6.27,10.05-9.49c4.34-4.25,8.65-8.52,12.87-12.88
		c3.84-3.97,7.66-7.97,11.26-12.16c4.23-4.92,8.43-9.89,12.25-15.12c4.55-6.24,8.84-12.69,12.95-19.23
		c5.06-8.06,8.72-16.83,11.55-25.87c2.1-6.71,3.15-13.68,2.33-20.79c-0.05-0.4,0.16-0.83,0.25-1.25c2.76,2.44,5.58,4.8,8.26,7.32
		c4.2,3.94,8.4,7.89,12.41,12.02c4.29,4.42,8.46,8.96,12.47,13.62c3.14,3.65,6.12,7.46,8.88,11.41c3.8,5.43,7.45,10.99,9.52,17.39
		c0.96,2.95,1.54,5.94,1.81,9.05c0.43,5.02-1.43,9.18-4.29,12.99c-4.13,5.5-9.21,10.07-14.72,14.14c-3.67,2.71-7.49,5.24-11.37,7.63
		c-4.15,2.55-8.35,5.08-12.73,7.21c-8.19,3.99-16.48,7.79-24.81,11.49c-4.05,1.8-8.27,3.24-12.46,4.73
		c-3.97,1.42-7.97,2.77-11.99,4.05c-11.29,3.61-22.77,6.52-34.43,8.65c-5.79,1.05-11.65,1.71-17.49,2.51
		c-2.11,0.29-4.24,0.46-6.37,0.78c0.71,0,1.41,0,2.12,0c13.45,0,26.91,0,40.36,0c0.53,0,1.06,0.03,1.6,0.04
		c0,46.9-0.01,93.8-0.01,140.69c0,0.62-0.02,1.24-0.04,1.86c-35.08,0-70.16-0.01-105.24,0c-1.23,0-2.47,0.14-3.7,0.21l-0.09,0.04
		c0.01-0.53,0.03-1.06,0.03-1.6c0-46.37,0-92.75,0-139.12c0-0.62,0.03-1.24,0.04-1.86c0.07-0.08,0.13-0.15,0.2-0.23
		c2.49-0.02,4.97-0.05,7.46-0.05c11.5-0.01,23,0,34.5,0c0.51,0,1.03,0,1.54,0c0-0.06,0-0.11,0-0.17c-2.45-0.21-4.9-0.35-7.34-0.64
		c-2.83-0.33-5.65-0.77-8.48-1.18c-10.78-1.57-21.35-4.09-31.85-6.96c-3.75-1.02-7.5-2.06-11.19-3.3
		c-6.9-2.33-13.79-4.71-20.61-7.26c-4.04-1.51-7.93-3.42-11.91-5.11c-8.86-3.78-17.44-8.12-25.68-13.12
		c-3.82-2.32-7.53-4.8-11.28-7.23c-4.9-3.18-9.17-7.08-13.33-11.18c-3.44-3.39-6.22-7.14-7.89-11.67
		c-1.52-4.15-0.93-8.32,0.16-12.44c1.43-5.41,3.74-10.49,6.82-15.1c3.64-5.45,7.49-10.78,11.61-15.86
		c3.98-4.92,8.32-9.57,12.71-14.14c3.87-4.02,7.98-7.82,12.06-11.62c3.01-2.81,6.15-5.47,9.24-8.19c0.08-0.07,0.25-0.05,0.38-0.08
		c-0.08,0.48-0.22,0.95-0.23,1.43c-0.12,4.87-0.04,9.73,0.89,14.54c0.88,4.61,2.13,9.09,4.02,13.39c1.68,3.81,3.12,7.73,5,11.44
		c2,3.93,4.21,7.78,6.65,11.45c3.91,5.89,7.87,11.76,12.2,17.34c4.92,6.34,10.19,12.42,15.48,18.46c3.61,4.12,7.47,8.03,11.34,11.91
		c3.98,3.98,8.1,7.82,12.18,11.69c3.02,2.87,5.99,5.8,9.12,8.54c4.44,3.89,8.99,7.67,13.54,11.45c4.52,3.75,9.08,7.46,13.65,11.15
		c0.98,0.79,2.09,1.43,3.14,2.14c0,0-0.04-0.01-0.04-0.01C208.06,145.31,208.15,145.42,208.24,145.52z"/>
	<path class="st1" d="M379.29,288.41c0,29.26-0.01,58.52-0.01,87.77c0,29.75,0.01,59.49-0.01,89.24c0,4.8-0.84,9.45-3.46,13.55
		c-4.29,6.71-10.24,11.21-18.19,12.71c-1.86,0.35-3.78,0.52-5.67,0.52c-29.12,0.03-58.25,0.02-87.37,0.02
		c-0.58,0-1.15-0.03-1.73-0.05c0-0.62,0.01-1.24,0.01-1.86c0-66.65,0-133.29,0.01-199.94c0-0.66,0.08-1.32,0.12-1.98
		c38.59,0,77.18,0,115.77,0C378.94,288.39,379.12,288.4,379.29,288.41z"/>
	<path class="st1" d="M153.85,492.16c-0.53,0.02-1.06,0.06-1.59,0.06c-29.35,0-58.7,0.04-88.04-0.02
		c-8.18-0.02-14.86-3.41-20.29-9.54c-3.29-3.71-5.05-8.04-5.95-12.78c-0.29-1.55-0.26-3.18-0.26-4.77
		c-0.01-58.43-0.01-116.86-0.01-175.29c0-0.49,0.02-0.98,0.03-1.46c0.66,0.01,1.33,0.03,2,0.03c38.03,0,76.06,0.01,114.08,0.01
		c0,0,0.09-0.04,0.09-0.04c-0.02,0.62-0.06,1.24-0.06,1.86c0,66.74,0,133.48,0,200.22C153.84,491.01,153.85,491.59,153.85,492.16z"
		/>
	<path class="st2" d="M153.85,492.16c0-0.58-0.01-1.15-0.01-1.73c0-66.74,0-133.48,0-200.22c0-0.62,0.04-1.24,0.06-1.86
		c1.23-0.07,2.47-0.21,3.7-0.21c35.08-0.01,70.16,0,105.24,0c0.05,0.08,0.1,0.17,0.15,0.25c-0.04,0.66-0.12,1.32-0.12,1.98
		c-0.01,66.65-0.01,133.29-0.01,199.94c0,0.62-0.01,1.24-0.01,1.86c-0.49,0.01-0.97,0.04-1.46,0.04c-35.36,0-70.72,0-106.08,0
		C154.83,492.22,154.34,492.18,153.85,492.16z"/>
	<path class="st3" d="M262.99,288.39c-0.05-0.08-0.1-0.17-0.15-0.25c0.01-0.62,0.04-1.24,0.04-1.86c0-46.9,0.01-93.8,0.01-140.69
		c0.44-0.01,0.89-0.04,1.33-0.04c38.46,0,76.91-0.02,115.37,0.01c6.75,0,13.11,1.49,19.08,4.87c4.99,2.82,8.9,6.65,12.22,11.24
		c4.49,6.19,6.24,13.14,6.23,20.68c-0.03,23.54,0.03,47.07-0.04,70.61c-0.02,6.21-1.52,12.16-4.9,17.4
		c-3.03,4.71-6.7,8.98-11.57,11.94c-3.17,1.93-6.54,3.43-10.12,4.54c-3.68,1.14-7.4,1.47-11.19,1.58c-0.18-0.01-0.35-0.02-0.53-0.02
		C340.17,288.39,301.58,288.39,262.99,288.39z"/>
	<path class="st3" d="M153.81,288.39c-38.03,0-76.06-0.01-114.08-0.01c-0.67,0-1.33-0.02-2-0.03c-6.47,0.29-12.44-1.42-18.18-4.32
		c-5.2-2.62-9.22-6.47-12.76-11.02c-2.43-3.13-4.21-6.55-5.31-10.25c-0.85-2.85-1.39-5.9-1.41-8.87
		c-0.11-24.64-0.08-49.28-0.04-73.93c0.01-3.2,0.28-6.42,1.65-9.41c1.23-2.68,2.17-5.56,3.8-7.97c3.25-4.8,7.21-9.04,12.34-11.89
		c5.81-3.23,12.04-5.15,18.77-5.15c38.81,0,77.61,0,116.42,0c0.27,0,0.53,0.03,0.8,0.05c0,0.08,0.02,0.16,0.06,0.23
		c-0.01,0.62-0.04,1.24-0.04,1.86c0,46.37,0,92.75,0,139.12C153.84,287.33,153.82,287.86,153.81,288.39z"/>
	<path class="st4" d="M316.11,0.55c-0.09,0.42-0.29,0.85-0.25,1.25c0.81,7.11-0.23,14.08-2.33,20.79
		c-2.83,9.05-6.49,17.82-11.55,25.87c-4.11,6.54-8.4,12.99-12.95,19.23c-3.82,5.24-8.02,10.21-12.25,15.12
		c-3.6,4.18-7.42,8.19-11.26,12.16c-4.22,4.36-8.53,8.64-12.87,12.88c-3.29,3.22-6.62,6.41-10.05,9.49
		c-4.87,4.37-9.8,8.68-14.78,12.92c-3.73,3.18-7.57,6.22-11.4,9.29c-2.34,1.88-4.75,3.68-7.13,5.51c-0.16,0.13-0.4,0.16-0.61,0.23
		c2.23-4.31,4.47-8.63,6.7-12.94c1.57-3.04,3.07-6.11,4.68-9.13c2.56-4.79,5.18-9.54,7.77-14.3c2.52-4.64,4.97-9.32,7.59-13.91
		c4.07-7.11,8.16-14.22,12.45-21.2c5.07-8.26,10.23-16.46,15.59-24.53c3.92-5.9,8.08-11.66,12.39-17.28
		c3.75-4.89,7.66-9.68,11.86-14.18c3.86-4.13,8.03-8.03,12.39-11.63c2.97-2.44,6.23-4.71,10.09-5.69
		C312.16,0,314.15-0.43,316.11,0.55z"/>
	<path class="st4" d="M208.01,145.22c-1.05-0.71-2.16-1.35-3.14-2.14c-4.57-3.69-9.13-7.4-13.65-11.15
		c-4.55-3.78-9.1-7.55-13.54-11.45c-3.13-2.74-6.1-5.67-9.12-8.54c-4.08-3.88-8.2-7.71-12.18-11.69
		c-3.88-3.88-7.73-7.79-11.34-11.91c-5.3-6.04-10.56-12.12-15.48-18.46c-4.33-5.57-8.29-11.45-12.2-17.34
		c-2.44-3.67-4.65-7.52-6.65-11.45c-1.88-3.7-3.32-7.63-5-11.44c-1.89-4.3-3.14-8.79-4.02-13.39c-0.92-4.81-1.01-9.67-0.89-14.54
		c0.01-0.48,0.15-0.96,0.23-1.43c2.02-0.5,3.99-0.32,5.92,0.42c8.2,3.13,14.4,8.94,20.1,15.3c4.7,5.24,9.25,10.64,13.59,16.17
		c4.07,5.19,7.92,10.57,11.63,16.03c4.51,6.63,8.86,13.37,13.1,20.18c4.03,6.46,7.91,13.02,11.72,19.62
		c4.31,7.48,8.52,15.03,12.66,22.61c4.22,7.73,8.29,15.54,12.43,23.32c1.76,3.32,3.52,6.63,5.27,9.96
		C207.68,144.3,207.83,144.77,208.01,145.22z"/>
	<path class="st4" d="M208.24,145.52c-0.09-0.1-0.18-0.21-0.27-0.31C208.06,145.31,208.15,145.42,208.24,145.52z"/>
	<path class="st5" d="M153.88,145.82c-0.04-0.07-0.06-0.15-0.06-0.23c0.09-0.04,0.17-0.04,0.26,0
		C154.01,145.67,153.95,145.74,153.88,145.82z"/>
</g>
</svg>
