<?xml version="1.0" encoding="utf-8"?>
<!-- Generator: Adobe Illustrator 24.1.2, SVG Export Plug-In . SVG Version: 6.00 Build 0)  -->
<svg version="1.1" id="Layer_1" xmlns="http://www.w3.org/2000/svg" xmlns:xlink="http://www.w3.org/1999/xlink" x="0px" y="0px"
	 viewBox="0 0 1463.59 455.49" style="enable-background:new 0 0 1463.59 455.49;" xml:space="preserve">
<style type="text/css">
	.st0{fill:#F68E1E;}
	.st1{fill:#069BE0;}
	.st2{fill:#10182A;}
	.st3{fill:#151E34;}
	.st4{fill:#643034;}
	.st5{fill:#696CBC;}
	.st6{fill:#F7B192;}
	.st7{fill:#F9C413;}
	.st8{fill:#131D33;}
	.st9{fill:#00ABEE;}
	.st10{fill:#FECD03;}
	.st11{fill:#FBDC10;}
	.st12{fill:#C91F5E;}
	.st13{fill:#0D1322;}
	.st14{fill:#BE1E2F;}
	.st15{fill:#B480B5;}
	.st16{fill:#F5A41A;}
	.st17{fill:#43B3BB;}
	.st18{fill:#B461A1;}
	.st19{fill:#EB6CB7;}
	.st20{fill:#F47721;}
	.st21{fill:#6891BD;}
	.st22{fill:#EFA083;}
	.st23{fill:#DC51A1;}
	.st24{fill:#F478C2;}
	.st25{fill:#8E1420;}
	.st26{fill:#492125;}
	.st27{fill:#FEFEFE;}
	.st28{fill:#F47A72;}
	.st29{fill:#87B1E2;}
</style>
<g>
	<path class="st0" d="M207.56,380.12c-14.72,0.05-29.44,0.12-44.16,0.13c-18.96,0.01-37.93-0.03-56.89-0.05
		c-0.49-7.54-1.12-15.07-1.43-22.61c-0.64-15.63-1.12-31.26-1.66-46.89c-0.23-7.2-0.65-14.41-0.63-21.61
		c0.02-8.33,0.59-16.65,0.64-24.98c0.09-14.06,4.65-26.81,10.98-39.09c0.9-1.74,1.67-3.54,2.5-5.32
		c12.58-6.23,25.89-10.06,39.77-12.01c0.76,2.08,1.51,4.15,2.27,6.23c0.24,0.27,0.48,0.53,0.72,0.8l-0.04,0.01
		c0.58,0.76,1.04,1.65,1.75,2.25c4.19,3.55,9.2,3.91,14.42,3.74c10.06-0.33,13.92-3.29,16.34-12.89
		c11.84,2.51,23.02,6.73,33.44,12.9c-4.33,5.39-9.49,10.32-12.83,16.27c-7.77,13.8-8.11,29.03-6.39,44.36
		c0.09,0.83,1.8,1.47,2.76,2.2c0.05,16.66,0.35,33.31,0.09,49.97C208.96,349.07,208.13,364.59,207.56,380.12z"/>
	<path class="st1" d="M986.01,380.13c-29.45,0.03-58.89,0.06-88.34,0.07c-0.23,0-0.45-0.14-1.18-0.38c0-46.19,0-92.54,0-138.89
		c29.01-0.01,58.03-0.03,87.04-0.04c0.75,0,1.51,0.01,2.26,0.01c0.07,1.49,0.2,2.98,0.2,4.47
		C986.01,290.29,986.01,335.21,986.01,380.13z"/>
	<path class="st2" d="M714.32,300.08c-10.76,5.59-20.92,1.85-30.98-2.16c-9.97-3.97-19.85-8.15-29.77-12.24
		c-8.23-3.55-16.47-7.1-25.19-10.86c0,3.95,0,7.14,0,10.34c-0.01,9.45-0.02,18.9-0.02,28.36c-0.32,10.44-0.5,20.89-1.01,31.32
		c-0.57,11.75-1.42,23.49-2.15,35.24c-11.99,0.01-23.98,0.03-35.97,0.04c0.01-56.42,0.01-112.83,0.02-169.25
		c1.78,0.52,3.68,0.81,5.33,1.61c9.54,4.66,19.18,9.16,28.47,14.27c12.36,6.79,24.43,14.1,36.64,21.15
		c5.37,3.1,10.79,6.11,16.72,9.46c-0.7-5.62-1.32-10.62-1.95-15.62c-1.17-8.27-2.4-16.52-3.5-24.8c-1.28-9.61-2.44-19.24-3.68-29.06
		c0.92-0.34,1.91-0.71,2.89-1.08c7.31-1.46,14.62-2.92,21.93-4.38c1.22,0,2.45,0,3.93,0c1.79,8.03,3.68,15.99,5.33,24
		c5.32,25.81,10.59,51.62,15.8,77.45C718.33,289.59,718.76,295.3,714.32,300.08z"/>
	<path class="st3" d="M236.44,103.09c5.86-5.38,11.67-10.81,17.59-16.13c10.1-9.06,21.92-10.53,34.68-7.64
		c0.97,0.22,1.95,0.35,2.93,0.52c2.37,1.06,4.77,2.06,7.11,3.19c13.29,6.44,22.93,16.17,27.17,30.59
		c4.38,14.91,4.73,30.19,3.48,45.53c-0.86,10.56-1.84,21.03,1.05,31.5c3.3,11.96,6.21,24.03,9.28,36.06
		c0.11,1.11,0.19,2.23,0.33,3.34c1.45,11.68,1.9,23.19-5.67,33.33c-4.76,5.56-9.08,11.67-17.04,13.79c0.08-2.29,0.51-4.36,1.34-6.26
		c3.15-7.19,2.49-10.3-3.54-15.27c-1.92-1.58-3.93-3.06-5.8-4.69c-4.37-3.82-6.14-8.6-5.17-14.36c0.74-4.41,1.77-8.8,2.07-13.25
		c0.27-3.98-0.28-8.02-0.46-12.03c-0.25-2.58-0.04-5.31-0.84-7.71c-2.15-6.42-0.72-11.78,2.58-17.62
		c2.91-5.13,3.96-11.32,5.83-17.03l-0.01,0.02c0.26-0.48,0.52-0.96,0.78-1.44c0.23-8.33,0.94-16.68,0.53-24.98
		c-0.27-5.36-2.01-10.69-3.42-15.95c-0.78-2.9-2.58-3.58-5.96-2.77c-5.37,1.29-11.05,1.96-16.57,1.83
		c-10.16-0.24-19.31-4.43-28.32-8.76c-5.22-2.51-9.03-1.71-12.37,3c-1.7,2.39-3.08,5.14-3.98,7.93c-0.98,3.03-1.22,6.3-1.62,8.55
		c-2.85,1.18-6.11,1.5-7.36,3.25c-2.71,3.81,0.55,15.96,4.8,17.85c2.81,1.25,2.7,3,2.91,5.13c0.11,1.11,0.26,2.22,0.39,3.33
		c0.57,9.84,5.37,17.46,12.52,23.85c0.3,0.27,0.59,0.55,0.89,0.82l-0.04-0.11c1.45,4.94,2.32,9.82-0.54,14.65
		c-0.66,1.12-0.74,2.58-1.08,3.88c-1.18,2.98-2.57,5.89-3.49,8.94c-2.99,9.9-3.14,19.53,2.61,28.74c1.39,2.22,2.17,5.11,2.37,7.75
		c1,13.46-5.31,23.33-15.89,30.93c-3.04,1.22-3.45,0.08-3.32-2.89c0.15-3.36-0.67-6.75-1.07-10.13c-1.94-5.39-6.49-8.27-10.86-11.33
		c-5.94-4.17-7.93-8.89-5.81-15.8c1.59-5.19,4.18-10.06,6.05-15.17c1.3-3.56,2.12-7.3,3.16-10.95c-0.23-2.85-0.46-5.7-0.69-8.55
		c-1.06-8.38-2.12-16.77-3.18-25.15c-0.18-10.08-0.69-20.17-0.45-30.24C224.75,137.02,226.7,119.13,236.44,103.09z"/>
	<path class="st1" d="M1106.44,380.13c-23.95,0-47.9,0-71.85,0c0.02-46.39,0.04-92.78,0.06-139.17c0.9-0.04,1.8-0.08,2.71-0.12
		c21.3,0.02,42.6,0.04,63.9,0.07c0.91,3.85-2.97,9.94,5.31,10.24c0,14.53,0,28.81,0,43.1c-0.01,9.67-0.02,19.34-0.03,29.01
		C1106.51,342.21,1106.48,361.17,1106.44,380.13z"/>
	<path class="st4" d="M396.62,114.2c3.05-5.07,5.44-10.73,9.33-15.03c3.84-4.26,7.81-8.38,11.56-12.78
		c6.68-7.84,16.21-10.41,26.1-10.94c6.04-0.32,12.14,0.51,18.21,0.82c0.45,0.18,0.89,0.43,1.36,0.53
		c20.5,4.55,34.47,21.5,34.94,43.12c0.26,12.2,2.78,24.37,4.7,36.49c1.43,9.06,3.9,17.97,5.24,27.04
		c1.74,11.76-1.85,22.65-6.73,33.2c-0.58,1.26-0.36,2.9-0.51,4.36c-9.74,5.09-20.21,9.03-27.61,17.76c-0.82-3.83-2.2-7.65-2.34-11.5
		c-0.23-6.63,0.31-13.29,0.53-19.93c0.24-0.28,0.61-0.53,0.7-0.85c2.35-8.45,4.7-16.91,6.99-25.38c0.35-1.29,0.44-2.66,0.65-3.99
		l-0.02,0.09c0.26-0.37,0.53-0.74,0.79-1.11c2.09-7.84,4.19-15.67,6.28-23.51c-0.08-4.69,0.32-9.45-0.32-14.06
		c-1.42-10.26-6.19-18.85-14.45-25.27c-1.46-1.13-3.4-1.64-5.13-2.44c-0.53,0.69-1.06,1.39-1.59,2.08c2,1.34,4.01,2.69,6.79,4.55
		c-17.54,2.36-34.12,4.58-50.7-1.64c-6.2,10.89-9.6,22.38-9.22,34.93c0.3,9.96,1.88,19.53,7.62,27.99c-0.18,0.79-0.56,1.6-0.5,2.37
		c0.37,4.55,0.93,9.08,1.28,13.63c0.36,4.69,0.55,9.39,0.82,14.08c1.07,4.58,2.1,9.17,3.2,13.74c1.69,7,1.06,13.77-1.97,20.28
		c-3.51,7.55-9.15,13.19-16.11,17.6c-5.28-23.64-10.57-47.28-15.85-70.92c0.43-2.55,0.85-5.11,1.28-7.67
		c3.31-9.71,5.08-19.67,4.6-29.94c-0.26-5.68-1.25-11.35-1.21-17.02C395.36,127.99,396.15,121.1,396.62,114.2z"/>
	<path class="st5" d="M471.39,207.33c-0.22,6.64-0.76,13.3-0.53,19.93c0.14,3.86,1.52,7.67,2.34,11.5
		c-2.32,5.86-6.03,11.56-6.7,17.6c-1.97,17.67-2.85,35.48-3.91,53.24c-0.67,11.31-1.05,22.65-1.29,33.98
		c-0.26,12.2-0.22,24.41-0.3,36.61c-16.63-0.02-33.26-0.04-49.89-0.06c-0.89-10.18-2-20.34-2.62-30.54
		c-1.16-19.15-2.05-38.33-2.96-57.49c-0.07-1.5,0.19-3.39,1.06-4.5c2.96-3.82,3.1-8.07,2.45-12.46c-0.73-4.92-1.7-9.8-2.57-14.7
		c6.96-4.41,12.6-10.04,16.11-17.6c3.03-6.52,3.66-13.29,1.97-20.28c-1.11-4.57-2.14-9.16-3.2-13.74c3.62-0.79,7.24-1.58,10.86-2.37
		c0.79,2.51,1.58,5.02,2.38,7.54c0.37,0.64,0.63,1.39,1.13,1.89c5.5,5.5,12.19,5.55,19.14,3.95c6.83-1.57,9.09-6.69,9.7-12.98
		C466.83,207.01,469.11,207.17,471.39,207.33z"/>
	<path class="st6" d="M406.48,260.44c0.87,4.9,1.84,9.78,2.57,14.7c0.65,4.39,0.51,8.64-2.45,12.46c-0.87,1.12-1.13,3-1.06,4.5
		c0.91,19.17,1.8,38.34,2.96,57.49c0.62,10.19,1.73,20.36,2.62,30.54c-9.71,0-19.42,0-29.48,0c0.56-4.34,1.08-8.36,1.59-12.38
		c2.52-19.72,2.72-39.5,1.51-59.32c-0.37-6.09-0.5-12.2-0.98-18.28c-0.11-1.4-0.86-3.48-1.91-3.97
		c-7.56-3.54-15.27-6.76-22.94-10.05c-0.31-0.14-0.74-0.01-1.12,0c-0.16-0.17-0.26-0.38-0.31-0.61c0.46-1.67,1-3.32,1.36-5.01
		c1.64-7.84,3.22-15.7,4.83-23.55c4.08,1.99,8.16,3.98,12.88,6.28c-0.89-7.61-1.69-14.48-2.49-21.35c-0.23-1.72-0.48-3.44-0.7-5.16
		c-1.76-14.02-3.4-28.06-5.39-42.05c-0.29-2.06-1.83-4.62-3.56-5.67c-3.49-2.1-5.41-5.12-6.71-8.62c-1.42-3.83-2.42-7.81-3.61-11.72
		c0.16-1.06,0.31-2.12,0.47-3.18c1.26-1.78,3.75-3.73,3.54-5.32c-0.66-5.03-2.34-9.92-3.62-14.87c-0.62-4.52-1.24-9.04-1.87-13.55
		c3.56-0.36,5.58,1.52,6.64,4.67c1.47,4.35,2.89,8.72,4.35,13.07c0.39,1.18,0.62,2.49,1.32,3.46c0.79,1.11,2.02,1.9,3.07,2.83
		c0.56-1.23,1.6-2.46,1.59-3.69c-0.02-5.46-0.47-10.92-0.51-16.38c-0.02-2.96,0.28-5.96,0.88-8.85c0.21-1.01,1.71-2.45,2.62-2.45
		c0.97,0,2.52,1.32,2.79,2.33c0.65,2.49,0.81,5.13,0.97,7.72c0.35,5.7,0.42,11.41,0.92,17.09c0.25,2.85,1.39,5.45,5.17,4.9
		c6.44,0.24,7.72,1.09,8.48,7.37c0.91,7.43,1.36,14.92-2.18,21.99c-0.41,0.83-0.27,1.93-0.38,2.91c0.76,3.6,1.53,7.19,2.29,10.79
		C395.91,213.15,401.19,236.79,406.48,260.44z"/>
	<path class="st7" d="M1034.66,240.96c-0.02,46.39-0.04,92.78-0.06,139.17c-16.19,0-32.38,0-48.58,0c0-44.92,0-89.84-0.02-134.77
		c0-1.49-0.13-2.98-0.2-4.47C1002.08,240.92,1018.37,240.94,1034.66,240.96z"/>
	<path class="st8" d="M531.51,380.13c-12.75,0-25.5,0-38.24,0c-0.25-4.33-0.53-8.66-0.73-12.99c-0.52-11.4-1.09-22.8-1.48-34.21
		c-0.36-10.43-0.63-20.87-0.75-31.31c-0.13-11.34-0.04-22.68-0.03-34.02c0.02-15.77,4.45-30.31,12.22-43.94
		c0.47-0.82,0.19-2.08,0.26-3.13c8.79-3.35,17.58-6.69,26.37-10.04c0.79-0.11,1.58-0.23,2.37-0.34
		C531.51,266.81,531.51,323.47,531.51,380.13z"/>
	<path class="st9" d="M983.54,240.89c-29.01,0.01-58.03,0.03-87.04,0.04c-4.09,0-8.17,0-12.46,0c0-20.05,0-39.78,0-60.02
		c16.37,0,32.55,0,48.72,0c0.47,0.09,0.94,0.17,1.41,0.26c0.44,0.01,0.88,0.03,1.32,0.04c15.94-0.05,31.89-0.09,47.83-0.14
		c0.02,2.37,0.06,4.74,0.07,7.1C983.44,205.74,983.49,223.31,983.54,240.89z"/>
	<path class="st10" d="M1251.82,204.2c0.93-0.67,1.98-1.22,2.78-2.02c4.61-4.61,9.17-9.28,13.75-13.93
		c1.18,4.65,1.68,9.61,3.68,13.88c6.93,14.86,18.38,26.1,30.78,36.44c1.96,1.64,4.11,3.04,6.18,4.55c0.56,0.02,1.11,0.04,1.67,0.06
		c0.55-0.28,1.21-0.43,1.62-0.84c9.25-9.16,18.89-17.97,27.55-27.66c6.66-7.46,11.57-16.23,11.04-26.93
		c7.33,5.73,13.6,12.47,18.25,20.53c4.02,6.98,3.73,10.88-2.7,15.6c-6.56,4.82-13.76,9.07-21.23,12.27
		c-8.4,3.59-17.43,5.73-26.07,8.47c3.68,0,7.64,0,11.59,0c0.06,18.51,0.12,37.03,0.19,55.54c0,0-0.32-0.09-0.32-0.09
		c-13.8-0.05-27.6-0.09-41.39-0.14c-0.15-0.01-0.29,0.01-0.43,0.08c0.04-1.62,0.12-3.24,0.13-4.86c0.05-16.83,0.08-33.67,0.12-50.5
		c4.35,0,8.7,0,13.05,0c-17.42-3.6-33.9-9.12-48.21-19.98c-6.9-7.08-7.19-9.2-2.55-17.82c0.42-0.78,0.39-1.8,0.57-2.71
		L1251.82,204.2z"/>
	<path class="st11" d="M983.54,240.89c-0.05-17.57-0.1-35.14-0.15-52.71c-0.01-2.37-0.04-4.74-0.07-7.1c3.58,0,7.17,0,10.92,0
		c-0.89-2.76-1.67-5.19-2.46-7.62c-0.2-2.21-0.59-4.42-0.57-6.62c0.07-7.11-2.29-14.78,4.4-20.48c4.04-0.41,8.09-1.21,12.13-1.15
		c5.67,0.09,11.33,0.82,17,1.28c3.12,2.32,5.39,5.09,5.33,9.27c-0.07,5.17-0.02,10.34-0.01,15.51c-1.29,3.27-2.58,6.54-3.84,9.77
		c3.45,0,7.4,0,11.36,0c-0.05,1.49-0.13,2.98-0.14,4.48c-0.03,18.44-0.05,36.89-0.08,55.33c-0.9,0.04-1.8,0.08-2.71,0.12
		c-16.29-0.02-32.57-0.05-48.86-0.07C985.05,240.89,984.29,240.89,983.54,240.89z"/>
	<path class="st6" d="M152.95,188.44c-11.36-8.48-19.26-19.21-21.84-33.44c-0.2-1.12-0.93-2.27-1.71-3.15
		c-3.4-3.84-4.82-8.49-4.72-13.37c0.04-2.11,1.91-4.19,2.94-6.28c2.42,0.47,4.85,0.93,7.27,1.4c0.45,0.96,0.9,1.92,1.54,3.28
		c2.4-5.37,4.69-10.26,6.78-15.24c0.98-2.34,2.51-3.16,4.93-2.89c5.28,0.58,10.56,1.45,15.86,1.53c8.38,0.13,16.76-0.26,25.14-0.48
		c5.5-0.15,10.62-3.66,16.35-1.81c2.55,5.96,5.1,11.93,7.2,16.84c1.63-0.78,3.98-1.91,6.33-3.04c1.22,0.65,2.45,1.3,3.67,1.96
		c-0.26,1.16-0.48,2.33-0.79,3.48c-0.97,3.56-1.72,7.21-3.08,10.62c-0.53,1.33-2.52,2.97-3.79,2.93c-2.41-0.08-2.35,1.21-2.96,2.76
		c-2.45,6.18-4.5,12.66-7.89,18.3c-4.49,7.46-11.83,12.22-19.19,16.72c-9.26,5.66-18.54,6.49-28.11,0.79
		C155.78,188.69,154.27,188.72,152.95,188.44z M186.36,171.15c-8.19,0-16.1,0-24.03,0c0.43,7.55,5.59,12.19,12.82,11.96
		C181.63,182.91,186.55,177.7,186.36,171.15z M196.84,152.2c-1.94,0.29-3.79,0.1-5.03,0.88c-1.7,1.07-4.31,3.17-4.07,4.31
		c0.38,1.81,2.58,4.12,4.4,4.55c2.96,0.69,6.34,0.46,9.34-0.24c1.53-0.35,3.54-2.52,3.64-3.97c0.09-1.38-1.78-3.31-3.26-4.26
		C200.41,152.54,198.36,152.55,196.84,152.2z M151.77,163.43c2.6-0.86,5-1.27,6.98-2.4c3.39-1.94,3.26-5.44-0.26-7.21
		c-4.48-2.25-9.11-2.21-13.46,0.45c-2.46,1.5-2.76,4.19-0.44,5.84C146.72,161.63,149.4,162.37,151.77,163.43z M161.1,141.92
		c0.01-3.51-2.23-6.68-4.71-6.66c-2.46,0.02-4.61,3.21-4.56,6.76c0.05,3.42,2.1,6.4,4.47,6.49
		C158.74,148.6,161.09,145.39,161.1,141.92z M198.82,141.61c0.01-3.84-1.91-6.54-4.61-6.49c-2.62,0.05-4.6,2.93-4.54,6.61
		c0.06,3.42,2.08,6.28,4.48,6.36C196.79,148.18,198.82,145.37,198.82,141.61z M174.18,149.38c-1.69,5.17,0.37,9.3,4.07,13.26
		c-1.05,0.52-2.03,1.02-3.01,1.51c0.37,0.43,0.73,0.85,1.1,1.28c1.14-0.74,2.62-1.26,3.26-2.31c0.32-0.52-0.87-2-1.42-3.02
		c-0.91-1.7-2.07-3.3-2.74-5.09C174.78,153.22,174.59,151.26,174.18,149.38z M200.27,131.67c-2.12-5.13-9.06-6.19-12.92-1.31
		C192.49,128.57,196.55,128.88,200.27,131.67z M148.16,131.77c3.73-2.77,7.87-2.99,13.04-1.34
		C157.13,126.11,151.91,126.71,148.16,131.77z"/>
	<path class="st12" d="M714.32,300.08c4.44-4.78,4.01-10.49,2.86-16.2c-5.21-25.83-10.48-51.65-15.8-77.45
		c-1.65-8.01-3.54-15.97-5.33-24c-1.49,0-2.71,0-3.93,0c-0.16-1.25-0.9-2.84-0.4-3.71c4.07-7,3.43-14.63,3-22.14
		c-0.45-7.83-1.32-8.48-9.18-9.66c-0.61-0.09-1.21-0.28-1.81-0.42c-1.57-5.69-3.14-11.38-4.71-17.07c0.06-2.78,0.11-5.57,0.17-8.35
		c2.65-1.18,4.19,0.46,5.02,2.46c1.76,4.24,3.16,8.62,4.72,12.94c0.97,2.68,1.81,5.43,3.04,7.99c0.43,0.91,1.85,1.34,2.81,1.99
		c0.54-1.02,1.55-2.05,1.55-3.07c0-5.6-0.34-11.21-0.39-16.81c-0.03-3.47-0.01-6.99,0.52-10.41c0.21-1.34,1.87-2.45,2.87-3.67
		c1.09,1.18,2.77,2.21,3.13,3.59c0.68,2.6,0.63,5.4,0.83,8.13c0.43,5.95,0.74,11.91,1.25,17.85c0.29,3.35,2.03,4.84,5.69,4.83
		c6.7-0.01,8.15,1.63,8.8,8.36c0.78,8.11,1.33,16.17-2.91,23.69c-0.48,0.85-0.21,2.14-0.31,3.52c1.64-0.16,2.94-0.28,4.69-0.44
		c1.16,4.98,2.45,10.01,3.5,15.08c5.95,28.9,11.84,57.81,17.72,86.72c0.42,2.07,0.71,4.19,0.78,6.29
		c0.25,7.23-3.33,12.02-10.61,12.23C726.05,302.53,720.17,300.91,714.32,300.08z"/>
	<path class="st13" d="M502.76,220.53c-0.07,1.05,0.21,2.3-0.26,3.13c-7.77,13.63-12.2,28.17-12.22,43.94
		c-0.01,11.34-0.1,22.68,0.03,34.02c0.12,10.44,0.39,20.88,0.75,31.31c0.4,11.41,0.96,22.81,1.48,34.21
		c0.2,4.33,0.49,8.66,0.73,12.99c-10.76,0.02-21.51,0.05-32.27,0.07c0.09-12.21,0.04-24.41,0.3-36.61
		c0.24-11.33,0.62-22.67,1.29-33.98c1.06-17.77,1.94-35.57,3.91-53.24c0.67-6.04,4.38-11.74,6.7-17.6
		c7.4-8.73,17.87-12.67,27.61-17.76C501.46,220.85,502.11,220.69,502.76,220.53z"/>
	<path class="st12" d="M674.46,241.75c0.62,5,1.25,10,1.95,15.62c-5.92-3.35-11.34-6.36-16.72-9.46
		c-12.21-7.05-24.28-14.37-36.64-21.15c-9.3-5.11-18.94-9.61-28.47-14.27c-1.65-0.8-3.55-1.09-5.33-1.61
		c-2.46-0.74-4.91-1.48-7.37-2.23c-1-0.28-2-0.56-3-0.83c0.45-3.8,0.57-7.69,1.47-11.38c0.7-2.85,1.67-6.45,3.78-8.01
		c10.33-7.62,16.18-17.83,19.41-29.96c0.7-2.61,2.36-4.95,3.44-7.48c1.4-3.27,3.14-6.5,3.82-9.93c0.53-2.68,1.19-6.06-2.06-8.08
		c-0.11-0.23-0.13-0.47-0.07-0.72c-0.23-2.1-0.44-4.2-0.7-6.3c-2.71-21.18-10.44-38.89-32.38-46.78c15.04-3.7,28.74-0.97,40.44,9.3
		c9.54,8.38,13.42,19.84,15.86,31.89c1.05,5.19,2.3,10.34,3.11,15.56c0.93,5.93-0.56,11.33-4.4,16.07c-0.97,1.2-1.91,2.64-2.23,4.1
		c-2.91,13.28-9.04,24.46-20.37,32.48c-1.09,0.77-2.03,2.28-2.31,3.6c-1.05,4.98-1.79,10.01-2.68,15.2
		c5.3,1.64,10.15,3.09,14.96,4.65c14.38,4.66,26.84,13.09,39.87,20.4C663.38,235.54,668.92,238.64,674.46,241.75z"/>
	<path class="st9" d="M1037.36,240.84c0.02-18.44,0.04-36.89,0.08-55.33c0-1.49,0.09-2.98,0.14-4.48
		c16.75-0.04,33.5-0.07,50.25-0.11c4.17,0.06,8.35,0.13,12.52,0.19c-4.08,14.29,0.23,24.98,13.52,31.88
		c7.27,3.77,15,6.63,22.53,9.91c-1.29,0.25-2.57,0.69-3.86,0.71c-7.85,0.07-15.71,0-23.56,0.05c-5,0.03-6.95,2.06-7.08,6.97
		c-0.09,3.43-0.41,6.86-0.62,10.29C1079.96,240.88,1058.66,240.86,1037.36,240.84z"/>
	<path class="st12" d="M354.54,155.49c-0.16,1.06-0.31,2.12-0.47,3.18c-0.2,2.1-0.64,4.2-0.56,6.29c0.27,7.88-0.13,15.9,1.3,23.58
		c1.78,9.61,6.16,18.78,7.45,28.41c1.06,7.91,4.59,12.22,11.42,14.85c0.12,0.04,0.24,0.06,0.36,0.09c0.8,6.87,1.61,13.74,2.49,21.35
		c-4.72-2.3-8.8-4.29-12.88-6.28c0.39-3.49-1.16-6.12-3.96-7.9c-6.6-4.2-13.3-8.24-19.96-12.35c-3.08-12.02-5.98-24.1-9.28-36.06
		c-2.89-10.47-1.91-20.94-1.05-31.5c1.25-15.34,0.9-30.62-3.48-45.53c-4.23-14.42-13.88-24.15-27.17-30.59
		c-2.34-1.13-4.74-2.13-7.11-3.19c6.96-3.09,14.13-2.2,21.16-0.64c21.12,4.7,36.29,21.06,39.8,42.53c0.62,4.52,1.25,9.04,1.87,13.55
		C354.49,142.03,354.52,148.76,354.54,155.49z"/>
	<path class="st14" d="M1136.39,222.89c-7.52-3.27-15.26-6.14-22.53-9.9c-13.3-6.89-17.6-17.59-13.52-31.88
		c6.55-15.19,21.89-19,33.02-14.14c4.13,1.8,7.96,4.71,11.33,7.78c12.57,11.46,24.23,23.73,32.39,39.16
		c8.87-15.98,20.96-28.9,34.33-40.75c10.41-9.24,23.17-10.73,33.25-3.78c10.37,7.15,13.87,20.01,8.56,31.44
		c-0.51,1.1-0.92,2.25-1.38,3.38c0,0,0.04-0.05,0.04-0.05c-4.6,3.43-8.86,7.52-13.89,10.13c-7,3.64-14.57,6.17-21.89,9.18
		c-7.76,1.83-15.53,3.67-23.29,5.5c-5.03-0.35-10.25,0.92-14.99-1.84c-0.36-0.21-1.08-0.27-1.38-0.05
		c-4.04,2.87-8.67,1.49-13.05,1.91c-1.59-0.2-3.21-0.25-4.75-0.62C1151.19,226.59,1143.79,224.72,1136.39,222.89z M1136.59,182.59
		c-6.7,0.22-11.74,3.18-14.53,9.33c-2.71,5.99-2.15,12.12,2.45,16.67c3.21,3.19,7.9,4.89,11.92,7.26
		c8.21,4.06,16.85,6.83,25.97,7.46c2.95,0.2,7.69-0.56,8.61-2.39c1.15-2.29-0.05-6.54-1.54-9.23c-5.66-10.25-13.59-18.75-22.9-25.76
		C1143.92,183.94,1139.96,183.66,1136.59,182.59z M1192.32,223.4c10.83-1.01,21.62-5.09,32.02-10.33c8.94-4.5,12.1-14.77,7.23-22.78
		c-5.06-8.33-16.05-10.37-24.11-4.18c-8.28,6.36-15.15,14.1-21.02,22.73c-1.18,1.74-2.23,3.62-3.04,5.55
		c-2.52,6.02-0.78,8.69,5.74,9C1189.88,223.43,1190.63,223.4,1192.32,223.4z"/>
	<path class="st14" d="M1192.74,380.14c-9.73,0-19.46,0-29.19,0c-0.04-18.93-0.08-37.86-0.12-56.79c0.01-9.73,0.02-19.47,0.02-29.2
		c0.03-1.98,0.07-3.97,0.08-5.95c0.08-12.28,0.16-24.56,0.24-36.84c9.58,0,19.17-0.01,28.75-0.01c0.07,14.23,0.15,28.46,0.22,42.69
		c0,9.8,0.01,19.6,0.01,29.41C1192.75,342.33,1192.74,361.23,1192.74,380.14z"/>
	<path class="st15" d="M1375.68,300.14c-0.07,6.98-0.2,13.97-0.21,20.95c-0.03,15.48,0.01,30.95-0.02,46.43
		c-0.01,8.51-4.12,12.58-12.7,12.58c-10.74-0.01-21.47-0.07-32.21-0.11c0.01-26.64,0.02-53.28,0.03-79.92c0,0,0.32,0.09,0.32,0.09
		C1345.82,300.15,1360.75,300.14,1375.68,300.14z"/>
	<path class="st15" d="M1288.99,379.86c-11.22,0.07-22.43,0.2-33.65,0.15c-1.82-0.01-3.64-0.76-5.45-1.17
		c-4-2.67-5.41-6.56-5.41-11.18c0-14.78-0.04-29.57-0.07-44.35c0.11-7.49,0.22-14.98,0.33-22.46c14.67-0.28,29.35-0.56,44.02-0.84
		c0.13-0.07,0.28-0.1,0.43-0.08c-0.12,3.72-0.33,7.45-0.33,11.17C1288.87,334.02,1288.93,356.94,1288.99,379.86z"/>
	<path class="st16" d="M1288.99,379.86c-0.05-22.92-0.12-45.84-0.14-68.76c0-3.72,0.21-7.45,0.33-11.17
		c13.8,0.04,27.6,0.09,41.4,0.14c-0.01,26.64-0.02,53.28-0.03,79.92C1316.69,379.94,1302.84,379.9,1288.99,379.86z"/>
	<path class="st17" d="M1163.43,323.34c0.04,18.93,0.08,37.86,0.12,56.79c-19.03,0-38.07,0-57.1,0c0.03-18.96,0.07-37.92,0.1-56.88
		C1125.5,323.28,1144.46,323.31,1163.43,323.34z"/>
	<path class="st18" d="M1375.68,300.14c-14.93,0.01-29.86,0.01-44.79,0.02c-0.06-18.51-0.12-37.03-0.19-55.54
		c14.85-0.02,29.7-0.14,44.56-0.03c8.83,0.06,14.47,5.83,14.55,14.61c0.08,8.73,0.08,17.47,0,26.2
		C1389.72,294.02,1384.33,299.57,1375.68,300.14z"/>
	<path class="st3" d="M575.58,79.19c21.94,7.89,29.67,25.6,32.38,46.78c0.27,2.1,0.47,4.2,0.7,6.3c-2.92,0.46-5.85,0.93-9.14,1.45
		c-2.4-6.93-4.2-15.46-11.47-21.3c0.48,1.66,0.95,3.32,1.46,5.1c-6.19,0.04-10.8-2.91-14.98-6.85c-0.36,0.21-0.71,0.42-1.07,0.63
		c1,2.74,2.01,5.47,3.02,8.22c-7.07,0.5-12.84-3.39-19.43-6.81c0.95,2.51,1.9,5.02,2.9,7.68c-9.25-0.17-18.83,0.93-25.95-7.35
		c-6.89,5.76-8.78,13.91-10.77,21.03c-2.91-0.67-5.58-1.28-8.25-1.89c0-9.62,2.16-18.83,5.31-27.85c3.92-7.57,8.62-14.51,15.92-19.3
		c10.99-7.21,23-8.78,35.71-6.46C573.14,78.78,574.36,78.98,575.58,79.19z"/>
	<path class="st17" d="M1244.41,323.31c0.03,14.78,0.07,29.57,0.07,44.35c0,4.63,1.41,8.52,5.41,11.18
		c-0.84,0.47-1.68,1.35-2.52,1.35c-18.21,0.04-36.42-0.02-54.62-0.06c0.01-18.9,0.01-37.8,0.02-56.7
		C1209.97,323.39,1227.19,323.35,1244.41,323.31z"/>
	<path class="st7" d="M995.61,146.35c-6.68,5.7-4.32,13.37-4.4,20.48c-0.02,2.21,0.37,4.42,0.57,6.62
		c-6.42-5.78-12.37-12.24-19.4-17.16c-7.91-5.53-17.18-8.08-26.84-4.49c-4.36,1.62-8.68,3.84-12.36,6.64
		c-4.3,3.27-7.89,7.47-11.78,11.26c-0.18-9.82-0.79-19.66-0.39-29.46c0.26-6.42,1.8-12.81,3.16-19.13c0.4-1.85,1.8-3.85,3.32-5.03
		c12.88-9.99,26.51-10.29,40.81-0.56C979.95,123.45,988.48,134.33,995.61,146.35z"/>
	<path class="st7" d="M1030.06,171.26c0-5.17-0.05-10.34,0.01-15.51c0.06-4.18-2.21-6.95-5.33-9.27
		c6.96-11.67,15.37-22.15,26.43-30.17c14.55-10.56,28.64-10.45,42.35,0.05c1.36,1.04,2.64,2.78,3,4.41
		c3.58,15.91,5.2,31.96,2.96,48.24c-3.11-2.82-6.2-5.65-9.33-8.46c-10.06-9.03-21.39-12.9-34.59-7.94
		c-9.15,3.44-16.6,9.4-23.07,16.64C1031.81,170.02,1030.88,170.59,1030.06,171.26z"/>
	<path class="st12" d="M520.3,104.31c-3.15,9.02-5.31,18.23-5.31,27.85c-0.98,1.28-2.59,2.44-2.84,3.84
		c-1.05,5.86,0.48,11.19,4.19,15.89c0.6,0.76,1.45,1.55,1.58,2.41c1.69,11.06,7.03,20.21,14.55,28.24
		c-0.14,5.54,0.05,11.11-0.52,16.6c-0.4,3.84-1.83,7.56-2.81,11.34c-8.79,3.35-17.58,6.69-26.37,10.04
		c-0.65,0.16-1.3,0.32-1.96,0.48c0.15-1.46-0.07-3.1,0.51-4.36c4.88-10.55,8.46-21.44,6.73-33.2c-1.34-9.07-3.8-17.98-5.24-27.04
		c-1.92-12.12-4.44-24.3-4.7-36.49c-0.47-21.62-14.43-38.57-34.94-43.12c-0.47-0.1-0.91-0.35-1.36-0.53
		c15.12-2.44,29.46-0.82,42.54,7.89C511.89,89.16,516.65,96.27,520.3,104.31z"/>
	<path class="st4" d="M134.89,133.6c-2.42-0.47-4.85-0.93-7.27-1.4c1.11-12.4,4.1-24.17,11.25-34.65
		c10.36-15.2,28.53-19.57,44.89-16.4c0.97,0.19,1.92,0.46,2.88,0.69c10.95,3.46,19.33,10.09,24.72,20.28
		c4.9,9.27,7.43,19.18,7.66,29.67c-2.35,1.13-4.7,2.26-6.33,3.04c-2.1-4.91-4.65-10.87-7.2-16.84c-1.7-3.68-4.18-5.11-8.38-3.78
		c-3.42,1.08-7.06,1.56-10.64,1.98c-13.21,1.52-26.36,2.17-39.16-2.73c-0.87-0.33-2.95,0.53-3.39,1.38
		C140.76,121.01,137.87,127.33,134.89,133.6z"/>
	<path class="st12" d="M357.47,275.52c0.05,0.23,0.16,0.43,0.31,0.61c-2.11,9.6-4.39,19.18-6.29,28.82
		c-3.1,15.79-2.64,31.77-1.78,47.71c0.49,9.07,1.61,18.1,2.48,27.5c-7.9,0-15.85,0-23.8,0c-0.67-4.24-1.34-8.48-2-12.72
		c-0.39-6.33-0.65-12.67-1.18-18.98c-1.4-16.46-0.45-32.74,2.99-48.91c2.45-11.49,4.68-23.03,7-34.55
		c3.76,5.09,7.76,9.92,13.65,12.76C354.48,280.49,354.46,280.54,357.47,275.52z"/>
	<path class="st12" d="M625.19,380.08c0.73-11.75,1.58-23.49,2.15-35.24c0.5-10.43,0.68-20.88,1.01-31.32
		c0.18-3.67,0.54-7.33,0.52-11c-0.03-5.79-0.31-11.57-0.49-17.36c0-3.19,0-6.39,0-10.34c8.73,3.76,16.96,7.31,25.19,10.86
		c-0.06,6.59,0.07,13.18-0.22,19.76c-1.09,24.23-2.32,48.46-3.5,72.69c-0.03,0.59-0.17,1.18-0.29,1.95
		C641.31,380.08,633.25,380.08,625.19,380.08z"/>
	<path class="st12" d="M219.02,131.79c-0.23-10.49-2.76-20.4-7.66-29.67c-5.39-10.2-13.77-16.83-24.72-20.28
		c20.75-5.86,41.48,3.38,49.8,21.26c-9.73,16.04-11.68,33.93-12.11,52.08c-0.24,10.07,0.28,20.16,0.45,30.24
		c-4.39,2.3-6.98,5.8-7.34,10.84c-0.11,1.48-0.47,2.95-0.64,4.43c-0.78,6.7-0.78,6.72,5.75,8.55c1.79,0.5,3.61,0.89,5.41,1.33
		c0.23,2.85,0.46,5.7,0.69,8.55c-1.02,0.54-2.05,1.08-3.07,1.62c-10.42-6.18-21.6-10.4-33.44-12.9c0.71-5.5,1.32-11.02,2.21-16.49
		c0.17-1.05,1.21-2.19,2.16-2.84c11.17-7.73,17.09-18.75,20.22-31.62c0.44-1.83,1.58-3.53,2.59-5.16
		c3.45-5.57,6.45-11.19,3.37-17.97C221.47,133.09,220.25,132.44,219.02,131.79z"/>
	<path class="st19" d="M326.39,367.44c0.67,4.24,1.34,8.48,2,12.72c-31.96-0.01-63.93-0.02-95.89-0.03
		c-1.58-32.17-2.91-64.34-1.5-96.56c1.17-0.09,2.33-0.17,3.21-0.24c0.7-4,1.3-7.48,1.91-10.95c0.4,3.38,1.22,6.78,1.07,10.13
		c-0.13,2.97,0.29,4.11,3.32,2.89c0.3,14.56,0.07,29.15,1.06,43.65c0.8,11.66,5.89,22.02,13.63,30.84
		c8.97,10.22,21.12,13.38,33.95,13.45C301.79,373.42,314.43,372.23,326.39,367.44z"/>
	<path class="st6" d="M103.42,310.71c0.54,15.63,1.01,31.26,1.66,46.89c0.31,7.54,0.94,15.07,1.43,22.61c-10.82,0-21.63,0-32.78,0
		c0-6.94-0.04-13.61,0.02-20.28c0.02-2.35,0.34-4.7,0.41-7.06c0.43-14.17,0.82-28.34,1.23-42.51
		C84.73,310.47,94.08,310.59,103.42,310.71z"/>
	<path class="st6" d="M231,283.57c-1.41,32.22-0.08,64.39,1.5,96.56c-8.31,0-16.62,0-24.94-0.01c0.57-15.53,1.4-31.05,1.64-46.59
		c0.26-16.65-0.04-33.31-0.09-49.96C216.41,283.57,223.7,283.57,231,283.57z"/>
	<path class="st20" d="M103.42,310.71c-9.34-0.12-18.69-0.23-28.03-0.35c1.11-17.27,1.84-34.57,3.47-51.79
		c1.19-12.49,6.84-22.86,18.36-29.06c6.45-3.47,13.11-6.55,19.68-9.8c-0.83,1.77-1.6,3.58-2.5,5.32
		c-6.32,12.28-10.89,25.03-10.98,39.09c-0.05,8.33-0.62,16.65-0.64,24.98C102.77,296.3,103.19,303.5,103.42,310.71z"/>
	<path class="st6" d="M683.72,146.49c0.6,0.14,1.2,0.33,1.81,0.42c7.86,1.18,8.73,1.83,9.18,9.66c0.43,7.51,1.07,15.14-3,22.14
		c-0.5,0.87,0.23,2.46,0.4,3.71c-7.31,1.46-14.62,2.92-21.93,4.38c-1.07-1.62-1.79-3.75-3.27-4.77c-7.87-5.42-9.65-13.92-11.46-22.3
		c-0.34-1.57,0.96-3.89,2.16-5.32c1.99-2.37,2.46-4.71,1.64-7.6c-1.75-6.22-3.46-12.46-5.01-18.73c-0.63-2.55-2.06-6.12,1.3-7.19
		c3.29-1.05,4.41,2.62,5.37,5.07c1.54,3.93,2.68,8.02,3.97,12.04c0.34,1.06,0.38,2.31,0.98,3.19c1.24,1.84,2.76,3.5,4.16,5.24
		c0.58-1.97,1.62-3.93,1.66-5.91c0.17-7.94-0.12-15.89,0.13-23.82c0.05-1.48,1.77-2.92,2.72-4.37c1.24,1.34,2.78,2.52,3.64,4.08
		c0.74,1.34,0.71,3.1,1.02,4.67c-0.06,2.78-0.11,5.57-0.17,8.35c0.53,5.05,0.94,10.11,1.72,15.12
		C680.85,145.33,682.68,145.85,683.72,146.49z"/>
	<path class="st16" d="M921.4,169.71c3.9-3.8,7.48-8,11.78-11.26c3.69-2.8,8.01-5.02,12.36-6.64c9.66-3.59,18.93-1.04,26.84,4.49
		c7.03,4.91,12.97,11.38,19.4,17.16c0.78,2.43,1.57,4.86,2.46,7.62c-3.76,0-7.34,0-10.92,0c-15.94,0.05-31.89,0.09-47.83,0.14
		c-0.44-0.01-0.88-0.03-1.32-0.04c-0.47-0.09-0.94-0.17-1.41-0.26c-3.05-2.06-6.3-3.91-9.07-6.3
		C922.44,173.54,922.13,171.38,921.4,169.71z"/>
	<path class="st16" d="M1030.06,171.26c0.82-0.67,1.75-1.24,2.45-2.02c6.47-7.25,13.92-13.21,23.07-16.64
		c13.2-4.96,24.53-1.09,34.59,7.94c3.12,2.8,6.22,5.64,9.33,8.46c-0.51,4.94-3.72,7.77-7.79,9.91c-1.29,0.68-2.59,1.34-3.88,2.01
		c-16.75,0.04-33.5,0.07-50.24,0.11c-3.96,0-7.91,0-11.36,0C1027.48,177.8,1028.77,174.53,1030.06,171.26z"/>
	<path class="st13" d="M531.51,380.13c0-56.66-0.01-113.32-0.01-169.98c2.79-0.53,5.59-1.06,8.38-1.59
		c-0.02,55.6-0.03,111.19-0.05,166.79c0,0.87,0.07,1.74,0.11,2.61c-0.08,0.74-0.15,1.47-0.23,2.21
		C536.99,380.15,534.25,380.14,531.51,380.13z"/>
	<path class="st13" d="M581.88,208.64c2.46,0.74,4.91,1.48,7.37,2.23c-0.01,56.42-0.01,112.83-0.02,169.25
		c-2.48,0.01-4.96,0.02-7.43,0.03c-0.01-56.8-0.03-113.6-0.04-170.39C581.76,209.39,581.84,209.02,581.88,208.64z"/>
	<path class="st21" d="M581.88,208.64c-0.04,0.37-0.12,0.74-0.12,1.11c0.01,56.8,0.02,113.6,0.04,170.39
		c-14.02,0-28.05,0.01-42.07,0.01c0.08-0.74,0.15-1.47,0.23-2.21c5.74,0.02,11.55,0.57,17.22-0.06
		c12.82-1.43,15.06-2.91,17.55-13.86c0.33-1.43,0.24-2.97,0.25-4.46c0.25-22.32,0.5-44.64,0.72-66.95
		c0.25-25.56,0.46-51.12,0.69-76.69c0.83-2.71,1.66-5.42,2.49-8.12C579.88,208.09,580.88,208.37,581.88,208.64z"/>
	<path class="st22" d="M222.69,133.74c3.08,6.78,0.07,12.4-3.37,17.97c-1.01,1.64-2.15,3.34-2.59,5.16
		c-3.13,12.87-9.05,23.89-20.22,31.62c-0.95,0.66-1.99,1.8-2.16,2.84c-0.88,5.47-1.5,10.99-2.21,16.49
		c-2.42,9.6-6.28,12.56-16.34,12.89c-5.22,0.17-10.23-0.19-14.42-3.74c-0.71-0.6-1.17-1.49-1.75-2.25c2.32,0.37,4.62,0.86,6.96,1.08
		c6.34,0.6,12.57,0.21,17.24-4.76c4.32-4.6,3.3-10.53,3.56-16.66c-1.79,0.61-3.09,0.95-4.3,1.5c-5.72,2.56-11.41,3.23-17.23,0.21
		c-3.71-1.92-7.54-3.63-11.31-5.43c-0.53-0.74-1.06-1.49-1.59-2.23c1.32,0.29,2.83,0.25,3.93,0.91c9.57,5.7,18.85,4.87,28.11-0.79
		c7.36-4.5,14.7-9.27,19.19-16.72c3.4-5.64,5.44-12.12,7.89-18.3c0.61-1.55,0.55-2.84,2.96-2.76c1.27,0.04,3.25-1.6,3.79-2.93
		c1.37-3.4,2.12-7.06,3.08-10.62C222.22,136.08,222.43,134.9,222.69,133.74z"/>
	<path class="st16" d="M1308.98,243.13c-2.06-1.51-4.22-2.91-6.18-4.55c-12.4-10.34-23.85-21.58-30.78-36.44
		c-1.99-4.27-2.49-9.24-3.68-13.88c2.42-2.14,4.37-0.16,5.79,1.17c3.43,3.21,6.8,6.59,9.61,10.33
		C1293.85,213.21,1301.83,227.93,1308.98,243.13z"/>
	<path class="st16" d="M1350.86,187.76c0.53,10.7-4.38,19.47-11.04,26.93c-8.66,9.69-18.3,18.5-27.55,27.66
		c-0.41,0.41-1.08,0.57-1.62,0.84c8.8-18.16,17.95-36.12,31.87-51.07C1344.64,189.83,1346.9,186.93,1350.86,187.76z"/>
	<path class="st6" d="M154.54,190.67c3.78,1.8,7.6,3.51,11.31,5.43c5.82,3.02,11.51,2.35,17.23-0.21c1.21-0.54,2.52-0.88,4.3-1.5
		c-0.26,6.13,0.75,12.06-3.56,16.66c-4.67,4.97-10.9,5.36-17.24,4.76c-2.33-0.22-4.64-0.71-6.96-1.08c0,0,0.03-0.01,0.03-0.01
		c-0.24-0.27-0.48-0.53-0.72-0.8c-0.76-2.08-1.51-4.15-2.27-6.23C155.96,202.02,155.25,196.35,154.54,190.67z"/>
	<path class="st12" d="M388.33,178.72c0.11-0.98-0.03-2.08,0.38-2.91c3.54-7.07,3.08-14.55,2.18-21.99
		c-0.77-6.28-2.05-7.13-8.48-7.37c-1.58-5.89-3.22-11.76-4.72-17.67c-0.59-2.33-1.97-5.52,0.98-6.64c3.28-1.25,4.24,2.25,5.21,4.54
		c1.21,2.86,2.03,5.88,3.01,8.83c0.74,2.25,1.21,4.64,2.28,6.71c0.76,1.48,2.33,2.54,3.55,3.79c0.54-1.53,1.54-3.06,1.53-4.59
		c-0.02-6.61-0.54-13.21-0.45-19.82c0.04-2.6-0.65-5.92,2.83-7.4c-0.47,6.9-1.27,13.79-1.32,20.7c-0.04,5.67,0.94,11.34,1.21,17.02
		c0.48,10.27-1.29,20.23-4.6,29.94C390.71,180.81,389.52,179.76,388.33,178.72z"/>
	<path class="st23" d="M231,283.57c-7.29,0-14.59,0-21.88,0c-0.96-0.73-2.67-1.38-2.76-2.2c-1.72-15.33-1.37-30.56,6.39-44.36
		c3.35-5.95,8.5-10.88,12.83-16.27c1.02-0.54,2.05-1.08,3.07-1.62c-1.04,3.66-1.86,7.39-3.16,10.95c-1.87,5.11-4.46,9.99-6.05,15.17
		c-2.12,6.91-0.13,11.63,5.81,15.8c4.37,3.07,8.92,5.94,10.86,11.33c-0.6,3.48-1.21,6.95-1.91,10.95
		C233.33,283.4,232.16,283.48,231,283.57z"/>
	<path class="st22" d="M158.94,213.92c0.24,0.27,0.48,0.53,0.72,0.8C159.42,214.45,159.18,214.19,158.94,213.92z"/>
	<path class="st5" d="M628.37,285.16c0.18,5.79,0.46,11.57,0.49,17.36c0.02,3.67-0.33,7.33-0.52,11
		C628.36,304.07,628.36,294.62,628.37,285.16z"/>
	<path class="st24" d="M326.39,367.44c-11.96,4.79-24.6,5.98-37.23,5.91c-12.83-0.07-24.98-3.23-33.95-13.45
		c-7.74-8.82-12.83-19.18-13.63-30.84c-1-14.51-0.77-29.1-1.06-43.65c10.58-7.6,16.89-17.46,15.89-30.93
		c-0.2-2.64-0.98-5.53-2.37-7.75c-5.75-9.22-5.6-18.85-2.61-28.74c0.92-3.05,2.31-5.97,3.49-8.94c1.9-0.2,3.8-0.41,5.71-0.61
		c1.08,3.2,1.37,7.05,3.38,9.47c5.98,7.21,20.77,5.6,26.8-2.47c0.57-2.31,1.15-4.62,1.72-6.93c4.43,0.93,8.85,1.87,13.28,2.8
		c0.19,4.01,0.73,8.05,0.46,12.03c-0.3,4.44-1.33,8.84-2.07,13.25c-0.97,5.76,0.8,10.55,5.17,14.36c1.87,1.63,3.88,3.11,5.8,4.69
		c6.03,4.98,6.69,8.08,3.54,15.27c-0.83,1.89-1.25,3.97-1.34,6.26c7.96-2.11,12.28-8.22,17.04-13.79c0.27,0.54,0.54,1.08,0.82,1.62
		c-2.33,11.52-4.55,23.06-7,34.55c-3.44,16.16-4.39,32.45-2.99,48.91C325.74,354.77,326,361.11,326.39,367.44z"/>
	<path class="st6" d="M292.5,208.5c-0.57,2.31-1.15,4.62-1.72,6.93c-2.27,0.64-4.52,1.35-6.81,1.9c-6.27,1.5-14.44-1.18-17.06-5.63
		c-2.85-4.85-2.51-10.1-2.12-14.51c5.28,0.7,10.3,2.34,15.04,1.74c4.94-0.63,9.56-3.51,12.91-7.74c-1.25,0.1-2.28,0.81-3.39,0.97
		c-3.62,0.53-7.48,1.8-10.88,1.08c-8.93-1.87-16.7-6.48-23.07-13.01c-4.37-4.48-8.18-9.5-12.25-14.28
		c-0.13-1.11-0.28-2.22-0.39-3.33c-0.22-2.12-0.11-3.87-2.91-5.13c-4.25-1.89-7.51-14.04-4.8-17.85c1.25-1.75,4.51-2.08,7.36-3.25
		c0.4-2.25,0.65-5.51,1.62-8.55c0.9-2.79,2.28-5.54,3.98-7.93c3.34-4.72,7.15-5.51,12.37-3c9.01,4.33,18.16,8.52,28.32,8.76
		c5.52,0.13,11.2-0.54,16.57-1.83c3.38-0.81,5.18-0.13,5.96,2.77c1.42,5.26,3.15,10.58,3.42,15.95c0.41,8.3-0.3,16.65-0.53,24.98
		c-0.26,0.48-0.52,0.96-0.78,1.44c0,0,0.01-0.02,0.01-0.02c-4.96,6.16-9.99,12.25-14.82,18.51c-1.75,2.26-3.65,4.75-4.3,7.43
		C293.15,199.3,293.03,203.95,292.5,208.5z M305.16,144.95c0.14,0.13,0.28,0.26,0.41,0.39c-0.16-0.11-0.32-0.22-0.49-0.33
		c-0.71-3.08-3.01-3.96-5.74-3.83c-2.37,0.11-4.5,0.89-4.71,3.84c-0.18,0.01-0.35,0.03-0.53,0.04c0.06,0.15,0.12,0.31,0.18,0.46
		c0.11-0.17,0.22-0.35,0.33-0.52C298.13,142.75,301.65,143.5,305.16,144.95z M256.39,144.99c3.5-2.22,7.02-1.52,10.54-0.04
		c0.14,0.13,0.28,0.26,0.41,0.39c-0.16-0.11-0.32-0.22-0.49-0.33c-0.71-3.07-3-3.97-5.74-3.83c-2.37,0.12-4.51,0.89-4.72,3.84
		c-0.18,0.01-0.35,0.03-0.53,0.04c0.06,0.15,0.12,0.31,0.18,0.46C256.17,145.33,256.28,145.16,256.39,144.99z M268.78,172.78
		c-0.85,7.29,5.76,12.07,11.21,12.51c6.42,0.52,12.1-4.94,12.72-12.18c-0.56-0.11-1.14-0.31-1.71-0.32
		C283.66,172.77,276.32,172.78,268.78,172.78z M258.71,164.94c2.04-0.66,4.43-1.04,6.4-2.15c3.42-1.92,3.33-4.83,0.09-7
		c-3.23-2.16-10.12-2.28-13.13,0.1c-1.13,0.89-2.31,2.62-2.22,3.88c0.09,1.23,1.55,2.74,2.8,3.41
		C254.34,164.09,256.39,164.31,258.71,164.94z M302.7,164.98c2.2-0.69,4.59-1.04,6.57-2.14c3.56-1.97,3.55-5.27-0.11-7.09
		c-2.13-1.06-4.75-1.7-7.12-1.63c-4.91,0.14-8.37,2.78-8.12,5.5C294.19,162.5,297.63,164.44,302.7,164.98z M267.2,132.2
		c-2.83-2.03-5.77-1.99-8.64-0.94c-1.5,0.55-2.72,1.85-4.4,3.06C258.96,133.54,262.86,132.91,267.2,132.2z M294.17,132.3
		c3.89,0.64,7.79,1.28,11.47,1.88C304.6,130.48,297.79,129.18,294.17,132.3z M278.45,161.05c0.42,0.1,0.84,0.19,1.26,0.29
		c0.78-3.22,1.57-6.44,2.35-9.66c-0.42-0.11-0.85-0.21-1.27-0.32c-0.38,1.63-0.74,3.27-1.13,4.9
		C279.26,157.87,278.85,159.46,278.45,161.05z M275.89,162.12c-0.15,1.39-0.76,2.97-0.26,3.51c0.72,0.78,2.25,0.8,3.88,1.27
		C278.07,165.01,277.21,163.87,275.89,162.12z"/>
	<path class="st23" d="M335.2,265c-0.27-0.54-0.54-1.08-0.82-1.62c7.57-10.15,7.12-21.65,5.67-33.33c-0.14-1.11-0.22-2.22-0.33-3.34
		c6.66,4.11,13.36,8.15,19.96,12.35c2.8,1.78,4.35,4.42,3.96,7.9c-1.6,7.85-3.19,15.71-4.82,23.55c-0.35,1.69-0.9,3.34-1.36,5.01
		c-3.01,5.02-2.99,4.97-8.63,2.24C342.96,274.91,338.96,270.09,335.2,265z"/>
	<path class="st22" d="M243.16,165.94c4.06,4.78,7.88,9.8,12.25,14.28c6.37,6.53,14.14,11.14,23.07,13.01
		c3.41,0.71,7.26-0.55,10.88-1.08c1.11-0.16,2.15-0.87,3.39-0.97c-3.35,4.23-7.97,7.11-12.91,7.74c-4.74,0.61-9.76-1.04-15.04-1.74
		c-0.39,4.41-0.73,9.66,2.12,14.51c2.62,4.46,10.79,7.14,17.06,5.63c2.29-0.55,4.54-1.26,6.81-1.9c-6.03,8.07-20.82,9.69-26.8,2.47
		c-2.01-2.42-2.3-6.27-3.37-9.47c-0.15-1.72-0.1-3.5-0.5-5.16c-1.03-4.3,0.17-9.23-3.58-12.76c0,0,0.04,0.11,0.04,0.11
		c-0.3-0.27-0.59-0.55-0.89-0.82C248.54,183.4,243.73,175.78,243.16,165.94z"/>
	<path class="st13" d="M292.5,208.5c0.53-4.55,0.65-9.2,1.73-13.62c0.65-2.67,2.56-5.17,4.3-7.43c4.83-6.26,9.87-12.35,14.82-18.51
		c-1.87,5.72-2.92,11.9-5.83,17.03c-3.31,5.83-4.74,11.19-2.58,17.62c0.8,2.39,0.59,5.13,0.84,7.71
		C301.36,210.37,296.93,209.43,292.5,208.5z"/>
	<path class="st13" d="M256.53,190.51c3.75,3.53,2.55,8.47,3.58,12.76c0.4,1.66,0.35,3.44,0.5,5.16c-1.9,0.2-3.81,0.41-5.71,0.61
		c0.34-1.3,0.42-2.77,1.08-3.88C258.85,200.33,257.98,195.45,256.53,190.51z"/>
	<path class="st13" d="M313.35,168.96c0.26-0.48,0.52-0.96,0.78-1.44C313.87,168,313.61,168.48,313.35,168.96z"/>
	<path class="st13" d="M255.69,189.79c0.3,0.27,0.59,0.55,0.89,0.82C256.28,190.34,255.98,190.06,255.69,189.79z"/>
	<path class="st17" d="M1163.77,251.35c-0.08,12.28-0.15,24.56-0.24,36.84c-0.01,1.98-0.05,3.97-0.08,5.95
		c-18.96,0.03-37.92,0.07-56.88,0.1c0-14.28,0-28.57,0-43.1c-8.28-0.3-4.41-6.4-5.31-10.24c0.22-3.43,0.53-6.86,0.62-10.29
		c0.14-4.91,2.08-6.94,7.08-6.97c7.85-0.04,15.71,0.02,23.56-0.05c1.29-0.01,2.57-0.46,3.86-0.71c7.4,1.83,14.8,3.7,22.22,5.47
		c1.55,0.37,3.17,0.42,4.75,0.62C1163.5,236.44,1163.63,243.89,1163.77,251.35z"/>
	<path class="st25" d="M1106.57,294.24c18.96-0.03,37.92-0.07,56.88-0.1c-0.01,9.73-0.02,19.47-0.02,29.2
		c-18.96-0.03-37.92-0.06-56.88-0.09C1106.55,313.58,1106.56,303.91,1106.57,294.24z"/>
	<path class="st6" d="M419.76,178.73c-5.74-8.46-7.32-18.03-7.62-27.99c-0.38-12.56,3.02-24.05,9.22-34.93
		c16.58,6.22,33.16,4,50.7,1.64c-2.78-1.86-4.78-3.21-6.79-4.55c0.53-0.69,1.06-1.39,1.59-2.08c1.72,0.8,3.67,1.31,5.13,2.44
		c8.26,6.42,13.03,15.01,14.45,25.27c0.64,4.61,0.25,9.37,0.32,14.06c-0.6,0.6-1.42,1.11-1.75,1.83c-1.52,3.38-2.66,6.96-4.39,10.22
		c-5.39,10.18-13.64,17.64-23.78,22.77c-7.54,3.81-15.48,7.24-23.98,2.03c-0.48-0.29-1.21-0.17-1.82-0.24c0,0,0.01,0.01,0.01,0.01
		c-0.74-0.5-1.48-1.01-2.22-1.51C425.81,184.7,422.79,181.71,419.76,178.73z M435.9,170.74c-0.15,6.68,6.07,12.83,12.42,12.21
		c6.32-0.62,12.5-6.25,11.32-12.21C451.74,170.74,443.82,170.74,435.9,170.74z M425.44,162.62c2.11-0.63,4.38-0.96,6.27-1.99
		c1.25-0.68,2.66-2.37,2.67-3.61c0.01-1.25-1.37-3.03-2.61-3.64c-1.92-0.96-4.22-1.48-6.39-1.57c-4.98-0.21-9.24,2.47-9.08,5.32
		C416.45,159.87,420.57,162.2,425.44,162.62z M469.41,162.22c5.22,0.06,9.62-2.49,9.41-5.44c-0.2-2.89-5.03-5.38-9.8-5.04
		c-4.8,0.34-8.51,2.63-8.49,5.26C460.55,159.75,464.66,162.17,469.41,162.22z M434.45,141.26c-0.08-3.69-2.28-6.61-4.85-6.43
		c-2.44,0.17-4.59,3.51-4.43,6.88c0.16,3.41,2.32,6.3,4.7,6.28C432.32,147.97,434.53,144.73,434.45,141.26z M472.3,140.93
		c-0.07-3.6-2.35-6.61-4.87-6.42c-2.52,0.18-4.4,3.22-4.28,6.92c0.12,3.54,2.16,6.3,4.6,6.24
		C470.3,147.6,472.37,144.53,472.3,140.93z M452.77,163.28c-2.2-5.52-3.98-9.98-5.77-14.45c-0.4,0.17-0.8,0.34-1.2,0.5
		c1.51,4.38,3.02,8.77,4.6,13.35c-0.2,0.13-0.98,0.62-1.76,1.11c0.16,0.32,0.32,0.65,0.47,0.97
		C450.6,164.16,452.1,163.56,452.77,163.28z M474.17,131.33c-1.12-3.48-3.53-4.04-5.82-4.51c-2.49-0.51-5-0.6-7.42,2.32
		c2.72-0.23,4.77-0.77,6.67-0.46C469.58,129.01,471.43,130.17,474.17,131.33z M421.55,130.67c4.15-0.69,8.19-1.37,12.25-2.04
		C429.42,125.63,424.16,126.56,421.55,130.67z"/>
	<path class="st22" d="M431.05,189.19c0.61,0.07,1.35-0.05,1.82,0.24c8.49,5.2,16.44,1.78,23.98-2.03
		c10.14-5.13,18.38-12.58,23.78-22.77c1.73-3.27,2.87-6.84,4.39-10.22c0.33-0.73,1.15-1.23,1.75-1.83
		c-2.09,7.84-4.19,15.67-6.28,23.51c-0.26,0.37-0.53,0.74-0.79,1.1c0,0,0.02-0.09,0.02-0.08c-3.9,3.82-7.83,7.6-11.66,11.47
		c-0.75,0.76-1.49,1.82-1.64,2.83c-0.73,5.13-1.27,10.28-1.87,15.42c-0.61,6.28-2.87,11.41-9.7,12.98
		c-6.94,1.59-13.64,1.55-19.14-3.95c-0.5-0.5-0.76-1.25-1.13-1.89c4.54,0.48,9.06,1.27,13.61,1.35c5.24,0.09,10.52-4.09,11.25-8.65
		c0.67-4.17,0.89-8.41,1.39-13.47C449.15,200.96,439.73,197.29,431.05,189.19z"/>
	<path class="st26" d="M419.76,178.73c3.02,2.98,6.05,5.97,9.07,8.95c0.31,0.53,0.62,1.07,0.93,1.6c0.82,5.72,1.63,11.44,2.45,17.16
		c-3.62,0.79-7.24,1.58-10.86,2.37c-0.27-4.69-0.46-9.39-0.82-14.08c-0.35-4.55-0.9-9.08-1.28-13.63
		C419.2,180.33,419.59,179.52,419.76,178.73z"/>
	<path class="st26" d="M464.56,206.85c0.6-5.14,1.14-10.3,1.87-15.42c0.14-1.01,0.89-2.08,1.64-2.83
		c3.84-3.88,7.77-7.66,11.66-11.47c-0.21,1.33-0.3,2.69-0.65,3.99c-2.29,8.47-4.64,16.93-6.99,25.38c-0.09,0.32-0.46,0.57-0.7,0.85
		C469.11,207.17,466.83,207.01,464.56,206.85z"/>
	<path class="st26" d="M479.7,177.2c0.26-0.37,0.53-0.74,0.79-1.1C480.23,176.46,479.97,176.83,479.7,177.2z"/>
	<path class="st6" d="M432.22,206.44c-0.82-5.72-1.63-11.44-2.45-17.16c0.43-0.03,0.86-0.06,1.3-0.09c0,0-0.01-0.01-0.01-0.01
		c8.68,8.1,18.09,11.77,29.79,4.02c-0.5,5.05-0.72,9.3-1.39,13.47c-0.73,4.57-6.02,8.75-11.25,8.65c-4.54-0.08-9.07-0.87-13.61-1.35
		C433.8,211.47,433.01,208.96,432.22,206.44z"/>
	<path class="st1" d="M934.17,181.17c0.44,0.01,0.88,0.03,1.32,0.04C935.05,181.2,934.61,181.18,934.17,181.17z"/>
	<path class="st18" d="M1288.75,300.01c-14.67,0.28-29.35,0.56-44.02,0.84c-4.62-1.28-9.26-2.52-12.27-6.74
		c-0.76-2.46-2.12-4.91-2.19-7.39c-0.26-9.58-0.22-19.18-0.06-28.76c0.12-7.24,6.25-13.15,13.48-13.36
		c3.73-0.11,7.47-0.13,11.2-0.19c11.37,0.08,22.74,0.17,34.11,0.25c-0.04,16.83-0.07,33.67-0.12,50.5
		C1288.87,296.77,1288.79,298.39,1288.75,300.01z"/>
	<path class="st22" d="M134.89,133.6c2.98-6.27,5.87-12.59,9.04-18.76c0.44-0.86,2.52-1.72,3.39-1.38
		c12.8,4.9,25.95,4.26,39.16,2.73c3.58-0.41,7.23-0.9,10.64-1.98c4.2-1.33,6.68,0.1,8.38,3.78c-5.72-1.85-10.85,1.66-16.35,1.81
		c-8.38,0.22-16.77,0.61-25.14,0.48c-5.29-0.08-10.58-0.95-15.86-1.53c-2.42-0.27-3.95,0.55-4.93,2.89
		c-2.09,4.98-4.38,9.88-6.78,15.24C135.79,135.52,135.34,134.56,134.89,133.6z"/>
	<path class="st27" d="M186.36,171.15c0.19,6.55-4.73,11.75-11.22,11.96c-7.23,0.23-12.39-4.42-12.82-11.96
		C170.26,171.15,178.17,171.15,186.36,171.15z"/>
	<path class="st28" d="M196.84,152.2c1.53,0.34,3.57,0.34,5.02,1.26c1.48,0.95,3.35,2.88,3.26,4.26c-0.09,1.45-2.11,3.61-3.64,3.97
		c-3,0.7-6.38,0.93-9.34,0.24c-1.82-0.42-4.02-2.74-4.4-4.55c-0.24-1.14,2.36-3.24,4.07-4.31C193.05,152.3,194.9,152.5,196.84,152.2
		z"/>
	<path class="st28" d="M151.77,163.43c-2.37-1.06-5.05-1.81-7.17-3.32c-2.32-1.65-2.02-4.34,0.44-5.84
		c4.34-2.65,8.98-2.7,13.46-0.45c3.52,1.77,3.65,5.27,0.26,7.21C156.77,162.16,154.37,162.57,151.77,163.43z"/>
	<path class="st26" d="M161.1,141.92c-0.01,3.47-2.35,6.68-4.8,6.59c-2.37-0.09-4.43-3.08-4.47-6.49c-0.05-3.55,2.1-6.74,4.56-6.76
		C158.87,135.24,161.11,138.41,161.1,141.92z"/>
	<path class="st26" d="M198.82,141.61c0,3.76-2.03,6.57-4.66,6.48c-2.4-0.08-4.42-2.94-4.48-6.36c-0.07-3.68,1.91-6.56,4.54-6.61
		C196.91,135.07,198.83,137.77,198.82,141.61z"/>
	<path class="st22" d="M174.18,149.38c0.4,1.88,0.59,3.84,1.26,5.63c0.67,1.79,1.82,3.39,2.74,5.09c0.55,1.02,1.74,2.5,1.42,3.02
		c-0.64,1.04-2.13,1.57-3.26,2.31c-0.37-0.43-0.73-0.85-1.1-1.28c0.98-0.49,1.97-0.98,3.01-1.51
		C174.55,158.68,172.49,154.55,174.18,149.38z"/>
	<path class="st4" d="M200.27,131.67c-3.72-2.79-7.78-3.1-12.92-1.31C191.21,125.48,198.15,126.54,200.27,131.67z"/>
	<path class="st26" d="M148.16,131.77c3.75-5.06,8.97-5.66,13.04-1.34C156.03,128.77,151.9,129,148.16,131.77z"/>
	<path class="st6" d="M540.14,188.51c-2.56-1.98-5.12-3.97-7.68-5.95c-7.52-8.04-12.86-17.19-14.55-28.24
		c-0.13-0.87-0.98-1.65-1.58-2.41c-3.7-4.7-5.24-10.03-4.19-15.89c0.25-1.41,1.86-2.57,2.84-3.84c2.67,0.61,5.34,1.23,8.25,1.89
		c1.99-7.12,3.89-15.27,10.77-21.03c7.13,8.28,16.7,7.18,25.95,7.35c-1-2.66-1.95-5.17-2.9-7.68c6.59,3.43,12.36,7.32,19.43,6.81
		c-1.01-2.75-2.01-5.48-3.02-8.22c0.36-0.21,0.71-0.42,1.07-0.63c4.18,3.93,8.79,6.88,14.98,6.85c-0.51-1.78-0.98-3.44-1.46-5.1
		c7.27,5.84,9.07,14.37,11.47,21.3c3.3-0.52,6.22-0.99,9.14-1.45c-0.06,0.25-0.03,0.49,0.07,0.72c-0.01,2.49,0.31,5.04-0.09,7.47
		c-0.99,6.01-3.22,11.34-8.49,10.63c-1.42,4.27-2.59,8.6-4.27,12.72c-5.07,12.42-14.94,20.1-26.35,26.25
		c-8.5,4.58-16.82,4.24-25.18-0.37C543.12,189,541.55,188.89,540.14,188.51z M548.91,171.15c0.3,6.12,4.16,10.85,9.18,11.88
		c5.56,1.14,11.39-1.78,13.94-6.99c2.19-4.48,1.73-5.15-3.19-4.91c-2.48,0.12-4.97,0.03-7.46,0.03
		C557.29,171.15,553.21,171.15,548.91,171.15z M582.42,151.98c-2.02,0.73-4.69,1.16-6.71,2.53c-3.18,2.16-2.79,4.73,0.7,6.52
		c4.07,2.09,8.35,2.53,12.39,0.16c1.25-0.73,2.47-2.61,2.5-4c0.03-1.22-1.35-2.95-2.57-3.62
		C587.07,152.69,584.98,152.58,582.42,151.98z M538.13,151.82c-2.19,0.97-4.97,1.83-7.35,3.34c-2.43,1.55-1.55,3.66,0.26,5.24
		c3.08,2.68,10.22,3.03,13.67,0.82c3.67-2.35,3.52-5.69-0.47-7.59C542.62,152.85,540.76,152.58,538.13,151.82z M585.36,141.98
		c0-3.51-2.23-6.65-4.68-6.6c-2.47,0.05-4.48,3.12-4.43,6.77c0.05,3.41,2.07,6.36,4.42,6.44
		C583.09,148.68,585.36,145.48,585.36,141.98z M561.55,163.68c0.1,0.49,0.2,0.98,0.3,1.48c1.22-0.33,3.14-0.34,3.49-1.07
		c0.49-1.05,0.05-2.73-0.42-3.97c-1.02-2.71-2.32-5.31-3.47-7.97c-0.45-1.04-0.8-2.11-1.2-3.17c-0.9,5.19,0.08,9.67,4.51,13.19
		C563.37,162.82,562.46,163.25,561.55,163.68z M574,129.96c2.91-0.2,5-0.69,6.95-0.37c1.98,0.33,3.82,1.48,6.24,2.48
		C584.39,127.18,578.62,126.17,574,129.96z M547.52,143.74c-1.35-3.24-3.24-4.63-5.91-4.57c-2.59,0.06-4.53,1.36-5.94,4.87
		C539.87,140.91,543.45,141.22,547.52,143.74z M547.38,131.2c-3.96-4-10.45-2.74-12.12,2.56
		C539.19,130.65,543.06,129.79,547.38,131.2z"/>
	<path class="st22" d="M540.14,188.51c1.41,0.38,2.98,0.49,4.22,1.17c8.36,4.6,16.68,4.95,25.18,0.37
		c11.41-6.15,21.28-13.83,26.35-26.25c1.68-4.12,2.85-8.44,4.27-12.72c5.27,0.71,7.5-4.62,8.49-10.63c0.4-2.43,0.08-4.97,0.09-7.47
		c3.25,2.02,2.58,5.39,2.06,8.08c-0.68,3.43-2.42,6.66-3.82,9.93c-1.08,2.52-2.74,4.87-3.44,7.48
		c-3.23,12.12-9.08,22.34-19.41,29.96c-2.11,1.56-3.08,5.16-3.78,8.01c-0.91,3.69-1.02,7.57-1.47,11.38
		c-0.83,2.71-1.66,5.42-2.49,8.12c-4.65,4.58-10.67,5.5-16.63,5.19c-4.79-0.25-10.06-0.9-12.64-6.24c4.16,0.43,8.33,1.2,12.49,1.21
		c7.25,0.02,12.59-3.87,14.12-10.33c0.83-3.52,0.77-7.26,1.13-10.99c-0.7,0.05-1.07,0.02-1.42,0.11c-0.72,0.19-1.47,0.35-2.12,0.69
		c-8.57,4.5-16.52,2.89-24.23-2.23c-1.71-1.14-3.74-1.8-5.63-2.68C541.02,189.94,540.58,189.22,540.14,188.51z"/>
	<path class="st17" d="M1216.08,223.46c10.04,0.03,20.09-0.04,30.12,0.17c2.36,0.05,4.7,1.09,7.05,1.67c0.54,4,1.18,7.99,1.57,12
		c0.23,2.34,0.06,4.73,0.07,7.09c-3.73,0.06-7.47,0.08-11.2,0.19c-7.23,0.21-13.35,6.13-13.48,13.36
		c-0.16,9.59-0.19,19.18,0.06,28.76c0.07,2.48,1.42,4.93,2.19,7.39c-13.24-0.03-26.48-0.06-39.72-0.09
		c-0.07-14.23-0.15-28.46-0.22-42.69c0.09-7.46,0.18-14.92,0.27-22.37C1200.55,227.13,1208.31,225.3,1216.08,223.46z"/>
	<path class="st25" d="M1192.79,228.96c-0.09,7.46-0.18,14.92-0.27,22.37c-9.58,0-19.17,0.01-28.75,0.01
		c-0.13-7.46-0.27-14.91-0.4-22.37c4.38-0.42,9.01,0.96,13.05-1.91c0.31-0.22,1.02-0.16,1.38,0.05
		C1182.54,229.89,1187.76,228.61,1192.79,228.96z"/>
	<path class="st9" d="M1136.59,182.59c-0.05,11.09-0.1,22.17-0.15,33.26c-4.03-2.37-8.71-4.08-11.92-7.26
		c-4.6-4.55-5.16-10.68-2.45-16.67C1124.85,185.78,1129.89,182.81,1136.59,182.59z"/>
	<path class="st25" d="M1192.74,294.03c13.24,0.03,26.48,0.06,39.72,0.09c3.01,4.21,7.65,5.46,12.27,6.74
		c-0.11,7.49-0.22,14.98-0.32,22.46c-17.22,0.04-34.43,0.08-51.65,0.12C1192.75,313.63,1192.75,303.83,1192.74,294.03z"/>
	<path class="st29" d="M547.12,214.88c2.58,5.35,7.86,5.99,12.64,6.24c5.96,0.31,11.98-0.62,16.63-5.19
		c-0.23,25.56-0.44,51.12-0.69,76.69c-0.22,22.32-0.47,44.64-0.72,66.95c-0.02,1.49,0.07,3.03-0.25,4.46
		c-2.49,10.95-4.74,12.43-17.55,13.86c-5.67,0.63-11.48,0.08-17.22,0.06c-0.04-0.87-0.11-1.74-0.11-2.61
		c0.01-55.6,0.03-111.19,0.05-166.79c1.23-0.24,2.46-0.48,3.7-0.72c0.75,2.03,1.51,4.06,2.26,6.09c0.45,0.28,0.89,0.56,1.34,0.84
		L547.12,214.88z"/>
	<path class="st27" d="M268.78,172.78c7.54,0,14.88-0.01,22.21,0.01c0.58,0,1.16,0.21,1.71,0.32c-0.61,7.23-6.3,12.7-12.72,12.18
		C274.54,184.85,267.93,180.07,268.78,172.78z"/>
	<path class="st28" d="M258.71,164.94c-2.32-0.63-4.37-0.85-6.06-1.76c-1.25-0.67-2.71-2.18-2.8-3.41
		c-0.09-1.26,1.09-2.99,2.22-3.88c3.01-2.38,9.9-2.26,13.13-0.1c3.25,2.17,3.34,5.08-0.09,7
		C263.14,163.9,260.76,164.28,258.71,164.94z"/>
	<path class="st28" d="M302.7,164.98c-5.07-0.55-8.52-2.49-8.78-5.36c-0.25-2.71,3.21-5.35,8.12-5.5c2.37-0.07,4.99,0.56,7.12,1.63
		c3.65,1.82,3.67,5.12,0.11,7.09C307.29,163.94,304.91,164.3,302.7,164.98z"/>
	<path class="st3" d="M267.2,132.2c-4.34,0.7-8.24,1.34-13.04,2.12c1.68-1.2,2.9-2.51,4.4-3.06
		C261.43,130.21,264.37,130.17,267.2,132.2z"/>
	<path class="st3" d="M294.17,132.3c3.61-3.12,10.43-1.83,11.47,1.88C301.97,133.58,298.07,132.94,294.17,132.3z"/>
	<path class="st3" d="M256.41,145.01c0.21-2.95,2.34-3.72,4.72-3.84c2.74-0.14,5.03,0.76,5.74,3.83l0.07-0.06
		c-3.52-1.47-7.04-2.18-10.54,0.04L256.41,145.01z"/>
	<path class="st3" d="M294.64,145.01c0.21-2.94,2.34-3.72,4.71-3.84c2.73-0.13,5.03,0.76,5.74,3.83l0.07-0.06
		c-3.52-1.45-7.04-2.19-10.54,0.04L294.64,145.01z"/>
	<path class="st22" d="M278.45,161.05c0.4-1.59,0.82-3.18,1.2-4.78c0.39-1.63,0.76-3.27,1.13-4.9c0.42,0.11,0.85,0.21,1.27,0.32
		c-0.78,3.22-1.57,6.44-2.35,9.66C279.28,161.25,278.87,161.15,278.45,161.05z"/>
	<path class="st22" d="M275.89,162.12c1.33,1.76,2.19,2.89,3.61,4.78c-1.62-0.47-3.16-0.5-3.88-1.27
		C275.12,165.08,275.74,163.51,275.89,162.12z"/>
	<path class="st3" d="M256.39,144.99c-0.11,0.17-0.22,0.35-0.33,0.52c-0.06-0.15-0.12-0.31-0.18-0.46c0.18-0.01,0.35-0.03,0.53-0.04
		C256.41,145.01,256.39,144.99,256.39,144.99z"/>
	<path class="st3" d="M266.86,145.01c0.16,0.11,0.32,0.22,0.49,0.33c-0.14-0.13-0.28-0.26-0.41-0.39
		C266.93,144.95,266.86,145.01,266.86,145.01z"/>
	<path class="st3" d="M305.09,145.01c0.16,0.11,0.32,0.22,0.49,0.33c-0.14-0.13-0.28-0.26-0.41-0.39
		C305.16,144.95,305.09,145.01,305.09,145.01z"/>
	<path class="st3" d="M294.62,144.99c-0.11,0.17-0.22,0.35-0.33,0.52c-0.06-0.15-0.12-0.31-0.18-0.46c0.18-0.01,0.35-0.03,0.53-0.04
		C294.64,145.01,294.62,144.99,294.62,144.99z"/>
	<path class="st27" d="M435.9,170.74c7.92,0,15.84,0,23.74,0c1.18,5.96-5,11.59-11.32,12.21
		C441.97,183.58,435.75,177.42,435.9,170.74z"/>
	<path class="st28" d="M425.44,162.62c-4.86-0.42-8.98-2.75-9.13-5.5c-0.16-2.86,4.11-5.54,9.08-5.32c2.17,0.09,4.47,0.61,6.39,1.57
		c1.24,0.62,2.62,2.4,2.61,3.64c-0.01,1.25-1.43,2.93-2.67,3.61C429.82,161.66,427.55,161.99,425.44,162.62z"/>
	<path class="st28" d="M469.41,162.22c-4.75-0.05-8.86-2.47-8.88-5.23c-0.02-2.62,3.69-4.92,8.49-5.26c4.77-0.34,9.6,2.15,9.8,5.04
		C479.03,159.73,474.63,162.28,469.41,162.22z"/>
	<path class="st26" d="M434.45,141.26c0.08,3.47-2.13,6.71-4.58,6.73c-2.37,0.02-4.53-2.88-4.7-6.28c-0.16-3.37,1.99-6.71,4.43-6.88
		C432.17,134.65,434.37,137.56,434.45,141.26z"/>
	<path class="st26" d="M472.3,140.93c0.07,3.6-2,6.67-4.54,6.74c-2.44,0.06-4.48-2.71-4.6-6.24c-0.12-3.7,1.76-6.74,4.28-6.92
		C469.95,134.32,472.23,137.33,472.3,140.93z"/>
	<path class="st22" d="M452.77,163.28c-0.67,0.27-2.17,0.87-3.66,1.48c-0.16-0.32-0.32-0.65-0.47-0.97
		c0.78-0.49,1.56-0.98,1.76-1.11c-1.58-4.58-3.09-8.96-4.6-13.35c0.4-0.17,0.8-0.34,1.2-0.5
		C448.78,153.3,450.57,157.77,452.77,163.28z"/>
	<path class="st26" d="M474.17,131.33c-2.74-1.15-4.59-2.32-6.57-2.65c-1.91-0.32-3.96,0.23-6.67,0.46
		c2.43-2.92,4.94-2.83,7.42-2.32C470.64,127.29,473.05,127.84,474.17,131.33z"/>
	<path class="st26" d="M421.55,130.67c2.61-4.11,7.87-5.04,12.25-2.04C429.74,129.3,425.7,129.97,421.55,130.67z"/>
	<path class="st22" d="M431.06,189.2c-0.43,0.03-0.86,0.06-1.3,0.09c-0.31-0.53-0.62-1.07-0.93-1.6
		C429.58,188.19,430.32,188.69,431.06,189.2z"/>
	<path class="st6" d="M545.85,213.93c-0.76-2.03-1.51-4.06-2.26-6.09c-0.71-5.73-1.42-11.46-2.13-17.19
		c1.88,0.88,3.92,1.54,5.63,2.68c7.71,5.12,15.66,6.74,24.23,2.23c0.65-0.34,1.4-0.5,2.12-0.69c0.34-0.09,0.72-0.06,1.42-0.11
		c-0.35,3.74-0.29,7.47-1.13,10.99c-1.53,6.47-6.86,10.35-14.12,10.33c-4.16-0.01-8.33-0.78-12.49-1.21c0,0,0.07-0.11,0.07-0.11
		C546.74,214.49,546.29,214.21,545.85,213.93z"/>
	<path class="st27" d="M548.91,171.15c4.3,0,8.38,0,12.46,0c2.49,0,4.98,0.09,7.46-0.03c4.92-0.23,5.38,0.43,3.19,4.91
		c-2.55,5.21-8.37,8.14-13.94,6.99C553.07,182,549.21,177.27,548.91,171.15z"/>
	<path class="st28" d="M582.42,151.98c2.56,0.6,4.66,0.7,6.32,1.61c1.22,0.66,2.6,2.39,2.57,3.62c-0.04,1.39-1.25,3.27-2.5,4
		c-4.04,2.37-8.32,1.93-12.39-0.16c-3.49-1.8-3.88-4.36-0.7-6.52C577.73,153.14,580.4,152.71,582.42,151.98z"/>
	<path class="st28" d="M538.13,151.82c2.63,0.75,4.49,1.03,6.11,1.8c3.99,1.9,4.14,5.23,0.47,7.59c-3.46,2.22-10.59,1.86-13.67-0.82
		c-1.81-1.57-2.69-3.69-0.26-5.24C533.16,153.65,535.94,152.79,538.13,151.82z"/>
	<path class="st3" d="M585.36,141.98c0,3.5-2.27,6.7-4.69,6.61c-2.35-0.09-4.37-3.03-4.42-6.44c-0.06-3.64,1.96-6.72,4.43-6.77
		C583.13,135.34,585.35,138.47,585.36,141.98z"/>
	<path class="st22" d="M561.55,163.68c0.91-0.43,1.82-0.86,3.22-1.53c-4.43-3.51-5.42-8-4.51-13.19c0.4,1.06,0.75,2.13,1.2,3.17
		c1.15,2.66,2.45,5.26,3.47,7.97c0.47,1.25,0.91,2.93,0.42,3.97c-0.34,0.74-2.27,0.74-3.49,1.07
		C561.75,164.67,561.65,164.18,561.55,163.68z"/>
	<path class="st3" d="M574,129.96c4.62-3.79,10.38-2.78,13.19,2.12c-2.42-1.01-4.27-2.15-6.24-2.48
		C579,129.26,576.91,129.76,574,129.96z"/>
	<path class="st3" d="M547.52,143.74c-4.07-2.52-7.65-2.83-11.85,0.29c1.41-3.51,3.34-4.81,5.94-4.87
		C544.28,139.11,546.17,140.5,547.52,143.74z"/>
	<path class="st3" d="M547.38,131.2c-4.32-1.4-8.19-0.55-12.12,2.56C536.93,128.45,543.43,127.2,547.38,131.2z"/>
	<path class="st22" d="M545.85,213.93c0.45,0.28,0.89,0.56,1.34,0.84C546.74,214.49,546.29,214.21,545.85,213.93z"/>
</g>
</svg>
