<?xml version="1.0" encoding="utf-8"?>
<!-- Generator: Adobe Illustrator 24.1.2, SVG Export Plug-In . SVG Version: 6.00 Build 0)  -->
<svg version="1.1" id="Layer_1" xmlns="http://www.w3.org/2000/svg" xmlns:xlink="http://www.w3.org/1999/xlink" x="0px" y="0px"
	 viewBox="0 0 953.4 438.2" style="enable-background:new 0 0 953.4 438.2;" xml:space="preserve">
<style type="text/css">
	.st0{clip-path:url(#SVGID_2_);}
	.st1{fill:#F1F1F1;}
	.st2{fill:#D8D8D8;}
	.st3{fill:#481F52;}
	.st4{fill:#562F5E;}
	.st5{fill:#2F8AC2;}
	.st6{fill:#479BDB;}
	.st7{fill:#AF0B3A;}
	.st8{fill:#CC234B;}
	.st9{fill:#CC2276;}
	.st10{fill:#B5106B;}
	.st11{fill:#81034F;}
	.st12{fill:#D57300;}
	.st13{fill:#FFB002;}
	.st14{fill:#371443;}
	.st15{fill:#EF9500;}
	.st16{fill:#CF873F;}
	.st17{fill:#E9AD68;}
	.st18{fill:#965923;}
	.st19{fill:#1279A9;}
	.st20{fill:#4496C8;}
	.st21{fill:#085D77;}
	.st22{fill:#20853D;}
	.st23{fill:#236933;}
	.st24{fill:#1B4822;}
	.st25{fill:#AF5A00;}
	.st26{fill:#FFBC28;}
	.st27{fill:#D13984;}
	.st28{fill:#67446E;}
	.st29{fill:#FFB81C;}
	.st30{fill:#5AA5DF;}
	.st31{fill:#379151;}
	.st32{fill:#F27461;}
	.st33{fill:#E55857;}
	.st34{fill:#C72B76;}
	.st35{fill:#B01D6B;}
	.st36{fill:#368ABF;}
	.st37{fill:#361742;}
	.st38{fill:#41975A;}
	.st39{fill:#FFFFFF;}
	.st40{fill:#4C9CD8;}
	.st41{fill:#7E0E4F;}
	.st42{fill:#462251;}
	.st43{fill:#54315D;}
	.st44{fill:#FBAE2B;}
	.st45{fill:#EB9324;}
	.st46{fill:#D1731D;}
	.st47{fill:#F0BD78;}
</style>
<g>
	<defs>
		<rect id="SVGID_1_" y="332.2" width="953.4" height="106"/>
	</defs>
	<clipPath id="SVGID_2_">
		<use xlink:href="#SVGID_1_"  style="overflow:visible;"/>
	</clipPath>
	<g class="st0">
		<path class="st1" d="M585,339.5c5.7,0,203.1-1.1,211.2,12.7c8.1,13.8-17.6,37.2,70.5,41.5c150.1,7.3,100.6,49.6-110.9,43.9
			c-211.5-5.7-263.5-9.6-354.6-7.1c-597.5,16.8-415.6-43.7-169.7-78.4C477.3,317.6,585,339.5,585,339.5"/>
	</g>
</g>
<path class="st2" d="M219.5,368.3c0,0-32.3,2.4-15.5,7.6c16.8,5.2,142.9,31.5,151.3,31.5c8.4,0,72.1-9.5,72.1-9.5
	s-30.1,4.1-21.7,7.6c8.4,3.5,67.2,15.5,78.9,15.5c11.7,0,118.5-7.1,109-13.8c0,0,177.6-19.5,172.7-27.9
	c-4.9-8.4-280.3-32.9-280.3-32.9L219.5,368.3"/>
<path class="st3" d="M591.2,285.3c0,0-0.8,91.7-2.7,91.9c-1.9,0.3-226.4,22.5-231.8,21.4s-140.4-24.1-141.5-25.5s-3-95.7-3-95.7
	L591.2,285.3"/>
<path class="st4" d="M356.7,398.7L356.7,398.7c-5.5-1.1-140.5-24.1-141.6-25.5s-3-95.7-3-95.7l33.6,0.8l112,11.7L356.7,398.7"/>
<path class="st3" d="M212.2,277.4c0,0,0.1,6.5,0.3,16.2c12.1,1.8,137.6,20,149,21.3l0.5-25.8l-116.3-10.9L212.2,277.4"/>
<path class="st5" d="M529.9,241.1c0,0,66.4,5.2,66.7,8.1c0.3,3,2.7,37.7-0.8,38.2c-3.5,0.5-238.6,17.9-242.9,17.4
	c-4.3-0.5-146.4-13.8-147.5-18.4c-1.1-4.6-1.4-41.2,1.1-42C208.9,243.5,416.6,237.8,529.9,241.1"/>
<path class="st6" d="M205.4,286.4c-1.1-4.6-1.4-41.2,1.1-42c0,0,0.1,0,0.2,0l145.7,14.4v46C342.5,303.6,206.5,290.9,205.4,286.4"/>
<path class="st6" d="M344.2,258.4l56.4-1.6l-54.2,3.8L344.2,258.4z"/>
<path class="st7" d="M255.7,289.5c6,1.3,12.1,2.4,18.2,3.4c0.3-11.6,1-40.5,2.5-41.1c1.9-0.8,76.7-4,76.7-4l-31.4-4.3
	c0,0-72.8,2.9-73.3,5.2c-0.4,1.9-1.3,25.6-0.3,39.1C250.7,288.4,253.2,289,255.7,289.5"/>
<path class="st5" d="M270.9,297c1.7,0.2,3.4,0.4,5.1,0.6l4.1-45.4l-7-0.8L270.9,297"/>
<path class="st8" d="M248.5,248.7L248.5,248.7c-0.5,2.3-1.7,35.3,0.5,45.4c7.9,1.1,16.4,2.2,24.9,3.2c0.1-4.1,0.8-44.7,2.6-45.5
	l0.1,0L248.5,248.7"/>
<path class="st7" d="M517.5,253.5c-2.8-1-48.3-5.9-48.3-5.9l-50.2,2.7c0,0,65.5,5,65.9,6.8c0.3,1.5,1.6,40.3,1.6,40.3
	c10.5-0.9,21.1-1.9,31.4-2.8C518.3,286.1,519.9,254.4,517.5,253.5"/>
<path class="st9" d="M315.7,85.7c0,0-0.8,158.9,2.4,159.7c3.3,0.8,143.7,14.4,148.3,13.6c4.6-0.8,117.4-11.1,118.5-14.4
	c1.1-3.3,1.1-154,1.1-154L315.7,85.7"/>
<path class="st10" d="M466.8,88.4l0,14.3l-151.1-5.2c0,2.9,0,8.3,0,12.1c19.6,1,149.9,7.7,150.9,7.6L466.3,259l0.1,0
	c4.6-0.8,117.4-11.1,118.5-14.4c1.1-3.3,1.1-154,1.1-154L466.8,88.4"/>
<path class="st10" d="M466.4,178.2c0.1,0.1,0.1,0.1,0.2,0.1c0-0.5,0-1,0-1.4l-78.5-78.5c7.8-0.7,19.2-1.7,21-1.6
	c0.3,0.4,1,1.1,2.4,2.4c1.5,1.4,3.7,3.5,6.5,6.1c4.8,4.4,11.5,10.6,19.9,18.3c13.7,12.5,27.5,25.1,28.9,26.4c0-0.5,0-0.9,0.1-1.4
	c-16.1-14.6-55.2-50.3-56.9-52.4l-0.1-0.1c-0.3-0.4-0.4-0.6-11.9,0.4c-5.5,0.5-11.1,1-11.1,1c-0.2,0-0.4,0.2-0.5,0.4
	c-0.1,0.2,0,0.4,0.1,0.6L466.4,178.2"/>
<path class="st10" d="M466.2,235.5c0.1,0.1,0.2,0.1,0.3,0.2c0-0.5,0-1,0-1.5L341,101l21.4-0.4l103.8,107.8c0.1,0.1,0.1,0.1,0.2,0.1
	c0-0.5,0-1,0-1.4L363,99.7c-0.1-0.1-0.3-0.2-0.4-0.2l-22.8,0.4c-0.2,0-0.4,0.1-0.5,0.3c-0.1,0.2,0,0.4,0.1,0.6L466.2,235.5"/>
<path class="st10" d="M315.8,182.7c0,0.6,0,1.2,0,1.7l54,66.3c0.5,0,1,0.1,1.5,0.1L315.8,182.7"/>
<path class="st10" d="M316.1,207.3l32.8,41.4c0.5,0.1,1,0.1,1.5,0.2L316,205.5C316.1,206.1,316.1,206.7,316.1,207.3"/>
<path class="st10" d="M333.2,247.1l-16.6-20c0,0.6,0,1.2,0.1,1.8l15,18.1C332.1,247,332.6,247,333.2,247.1"/>
<path class="st10" d="M315.6,141.4c0,0.5,0,1.1,0,1.6l100.1,112c0.5,0,1.1,0.1,1.6,0.1L315.6,141.4"/>
<path class="st10" d="M315.6,101.7c0,0.5,0,1.1,0,1.6l143.6,155.4c0.6,0,1.1,0.1,1.6,0.1L315.6,101.7"/>
<path class="st10" d="M315.6,163.6l74.9,89.1c0.5,0,1,0.1,1.5,0.1l-76.4-90.9C315.6,162.5,315.6,163.1,315.6,163.6"/>
<path class="st10" d="M315.6,123.4l116.7,133.1c0.5,0,1,0.1,1.6,0.1L315.6,121.7C315.6,122.3,315.6,122.8,315.6,123.4"/>
<path class="st11" d="M466.7,235.7c0.1,0,0.2-0.1,0.2-0.1l119-121.2c0-0.5,0-1,0-1.6L466.7,234.2
	C466.7,234.7,466.7,235.2,466.7,235.7"/>
<path class="st11" d="M585.9,135.4c0-0.5,0-1.1,0-1.6L468.3,258.7c0.5-0.1,1-0.1,1.7-0.2L585.9,135.4"/>
<path class="st11" d="M546.3,92.6l26,2.6L466.7,207.1c0,0.5,0,1,0,1.5c0.1,0,0.2-0.1,0.3-0.2L573.8,95.1c0.1-0.1,0.2-0.4,0.1-0.6
	c-0.1-0.2-0.3-0.3-0.5-0.3l-27.4-2.7c-0.2,0-0.3,0-0.5,0.2L467,176.9c0,0.5,0,1,0,1.5c0.1,0,0.2-0.1,0.3-0.2L546.3,92.6"/>
<path class="st11" d="M488.3,100.7l22-2.3L467.2,149l-0.1-0.1c0,0.5,0,0.9-0.1,1.4c0.1,0,0.1,0,0.2,0c0.1,0,0.3-0.1,0.4-0.2l44.4-52
	c0.1-0.2,0.2-0.4,0.1-0.6s-0.3-0.3-0.5-0.3L488,99.7c-0.1,0-0.3,0.1-0.4,0.2l-20.5,24.1c0,0.6,0,1.1,0,1.7l0.1-0.1L488.3,100.7"/>
<path class="st11" d="M585.8,157.8l-91.3,98.3c0.5-0.1,1.1-0.1,1.6-0.2l89.7-96.5C585.8,158.8,585.8,158.3,585.8,157.8"/>
<path class="st11" d="M585.7,183.2c0-0.5,0-1.1,0-1.6l-65.2,71.8c0.5-0.1,1.1-0.1,1.6-0.2L585.7,183.2"/>
<path class="st11" d="M547.5,250.4c0.5-0.1,1.1-0.1,1.6-0.2l36.4-40.4c0-0.5,0-1.1,0-1.6L547.5,250.4"/>
<path class="st11" d="M573.6,247.1l11.6-12.3c0-0.5,0-1.1,0-1.6l-13.4,14.2C572.5,247.3,573.1,247.2,573.6,247.1"/>
<path class="st11" d="M410,96.4c0,0.1,0,0.2-0.1,0.2C409.9,96.6,410,96.5,410,96.4"/>
<path class="st11" d="M466.5,259.4L466.5,259.4c-0.2,0-0.4-0.2-0.4-0.4l0.5-146.2c0-0.2,0.2-0.4,0.4-0.4c0.2,0,0.4,0.2,0.4,0.4
	L466.9,259C466.9,259.2,466.7,259.4,466.5,259.4"/>
<path class="st10" d="M463.9,66.9c0,0-8.3,19.9-8.3,43.8h2l1.5,18.4c0,0-12.2-14.9-14.4-22.2c-2.2-7.3,7-40.9,13.8-43.9
	C465.4,59.9,463.9,66.9,463.9,66.9"/>
<path class="st12" d="M455.9,62c0,0-28.9-37.8-42-30.1C400.8,39.7,421.3,6.3,431,8c9.7,1.7,32.6,45.1,32.6,45.1s40.9-37.8,45-38.8
	c4.1-0.9,18.5,1.3,19.8,13.9c1.3,12.6-3.3,29.6-12.9,34.4S466.8,69,466.8,69l-2-2.3c0,0,61.4-7.8,41.1-44.5c0,0-5.6,1.5-19.9,11.9
	c-14.3,10.4-22.4,20.1-22.4,20.1L455.9,62"/>
<path class="st13" d="M512.3,5.5C489.3-6.5,463.4,52,463.4,52s-7.9-26-27.9-44.9c-20.1-18.9-38.2,3-43.2,29.7
	C387.2,63.5,427,66.1,427,66.1s4.2,0.4,12.4,0.9c-7.7-1.7-30.3-8.2-26.6-25.7c4.5-21.7,14.5-28,23-24.5c8.5,3.4,27.9,37.3,27.9,37.3
	s55.5-55,63.1-25.7c0,0,2.4,9.4-1.9,20.8c-3.1,8.3-14.6,17.1-44.4,19.2c12-0.1,22.9-0.6,29.4-2.1C531.8,61.2,538.9,19.5,512.3,5.5"
	/>
<path class="st12" d="M454.4,66.2c0,0-6.5-11.7,1.6-16.7s18.9-0.4,21.1,2.8c2.7,3.8,0.1,14.7,0.1,14.7L454.4,66.2"/>
<path class="st13" d="M456.1,49.4c-0.6,0.4-1.1,0.8-1.6,1.2c0.2,0,0.4,0,0.6-0.1c9.6-1.4,6.1,12.6,5.3,15.8l17,0.5
	c0,0,2.5-10.9-0.1-14.7C475,49.1,464.2,44.4,456.1,49.4"/>
<path class="st4" d="M310.4,66.8c0,0-1.6,36.1-0.3,36.6c1.4,0.5,150.5,7.6,154.5,7.3c4.1-0.3,125.8-9.8,126.1-11.7
	s1.1-30.4-0.8-30.6C590.8,68.6,311.3,62.9,310.4,66.8"/>
<path class="st3" d="M464,66.4c-2.9,0-5.8-0.1-8.7-0.1c-6.1,9.4-12.4,34.4-10.5,40.5c0.3,1,0.8,2.1,1.4,3.3c3.6,0.2,6.8,0.3,9.5,0.4
	c0-23.7,8.3-43.6,8.3-43.6S464,66.7,464,66.4"/>
<path class="st3" d="M589.3,68.5c-0.9-0.1-61.7-1.3-126.4-2.1c-0.6,6.8,1,44.2,1,44.2l0.4,0.1c7.2-0.5,125.6-9.8,125.8-11.6
	C590.4,97.2,591.2,68.7,589.3,68.5"/>
<path class="st3" d="M392.2,107.7l1.6-42c-1.8,0-3.6,0-5.4,0l-0.3,41.9C389.5,107.6,390.9,107.7,392.2,107.7"/>
<path class="st13" d="M391.3,65.7c-8.1-0.1-17-0.1-24.3-0.1c-0.5,7.4-2.2,32.3-1.3,40.9c8.3,0.4,16.9,0.8,25.5,1.2
	C390.8,100,390.6,71.2,391.3,65.7"/>
<path class="st14" d="M521.5,106.2c1.5-0.1,2.9-0.3,4.4-0.4l0.5-38.5c-2.3,0-4.6-0.1-7-0.1L521.5,106.2"/>
<path class="st15" d="M523.6,106c6-0.5,12.1-1,18-1.6c0.3-5.3,1.6-32.5,1-36.9c-6.2-0.1-12.7-0.2-19.7-0.3
	C523.1,70.3,524.6,97.4,523.6,106"/>
<path class="st15" d="M474.1,65.3c0,0,27.1-8.4,36.9,19c9.8,27.4,4.3,75.7,4.3,75.7l-19.5,15.2c0,0,21.4-108.8-24.4-108.8
	L474.1,65.3"/>
<path class="st13" d="M464.1,66.4c0,0-15.5,19.8-11.4,55.6l-18.2-21.2c0,0,10.8-37.7,25.5-35.8L464.1,66.4"/>
<path class="st16" d="M588.1,401.5c0,0,157.4-20.4,158.4-23.7s15.2-50.9,14.3-55.1c-0.8-4.1-64.3-181.9-68.8-181.7
	c-4.5,0.2-150.7,8.4-153,13.2c-2.2,4.8-16.2,48.2-13.9,56.1C527.5,218.1,581.8,401.9,588.1,401.5"/>
<path class="st17" d="M539.1,154.3L539.1,154.3c9.2,29.3,55,174,60.9,186.6c-11.7,54.8-11.6,55.1-11.6,55.3c0.1,0.5,0.5,0.8,1,0.8
	c0.4,0,0.7-0.4,0.8-0.8c0.2-1.4,6.9-33,11.4-54.3c13.1,0.3,139-16.1,159.4-18.7c0-0.2,0-0.3,0-0.4c-0.8-4.1-64.3-181.9-68.8-181.7
	C687.5,141.2,541.3,149.4,539.1,154.3"/>
<path class="st12" d="M757.7,313.2c-0.3-1-0.7-2-1.1-3.2c-1.4-1.4-3.1-3.1-4.8-4.7c-9-8.6-10.7-8.2-11.3-8c-1.5,0.4-2.4,3.3-4.2,9
	c-1.2,3.8-3.1,10.1-4.5,10.3c-1.4,0.2-5.8-5.4-8.5-8.8c-4.1-5.2-5.9-7.4-7.3-7.4h-0.1c-1.7,0.1-2.8,3.4-4.7,9.7
	c-1.2,3.9-2.8,9.3-4.1,10c0,0-0.6,0.3-3-2c-1.6-1.6-3.6-3.8-5.5-6c-4.2-4.9-6.8-7.8-8.5-7.7c-1.9,0.1-3,3.5-4.4,9
	c-4.2-8.6-6.7-17.9-9.3-27.2c0.1-0.5,0.3-1,0.4-1.5c0.6-2.4,1.2-4.7,1.9-6.4c0.9-2.4,1.5-2.6,1.6-2.6l0,0c1.1,0,4.8,4.3,7.3,7.2
	c5.1,5.9,8.3,9.4,10.3,8.3c1.6-0.9,2.9-4.7,4.8-10.8c1-3.1,2.6-8.4,3.5-8.7c0.9,0.1,4.1,4.2,6.2,6.9c4.7,6,7.7,9.7,9.8,9.3
	c2.1-0.3,3.6-4.5,5.7-11.3c1-3.1,2.4-7.7,3.2-8c0.2,0,1.8-0.2,10,7.6c2.1,2,4.2,4.1,5.8,5.7c-0.4-1-0.8-2.1-1.1-3.2
	c-1.1-1.1-2.4-2.3-3.6-3.5c-9-8.6-10.6-8.1-11.3-8c-1.5,0.4-2.4,3.3-4.2,9c-1.2,3.8-3.1,10.1-4.5,10.3c-1.4,0.2-5.8-5.4-8.5-8.8
	c-4.1-5.2-5.9-7.4-7.3-7.4l-0.1,0c-1.7,0.1-2.8,3.4-4.7,9.7c-1.2,3.9-2.8,9.3-4.1,10c0,0-0.6,0.3-3-2c-1.6-1.6-3.6-3.8-5.5-6
	c-4.2-4.9-6.8-7.8-8.5-7.7c-1.9,0.1-3,3.6-4.5,9.2c-2.2-8.1-4.5-16.1-8.1-23.7c-0.1-0.3-0.3-0.6-0.4-0.9c0.1-0.4,0.2-0.8,0.3-1.2
	c0.6-2.4,1.2-4.7,1.9-6.4c0.9-2.4,1.5-2.6,1.6-2.6h0c1.1,0,4.8,4.3,7.3,7.2c5.1,5.9,8.3,9.4,10.3,8.3c1.6-0.9,2.9-4.7,4.8-10.8
	c1-3.1,2.6-8.4,3.5-8.7c0.9,0.1,4.1,4.2,6.2,6.9c4.7,6,7.7,9.7,9.8,9.3c2.1-0.3,3.6-4.5,5.7-11.3c1-3.1,2.4-7.7,3.2-8
	c0.2,0,1.8-0.2,10,7.6c1.9,1.8,3.7,3.6,5.2,5.1c-0.4-1.1-0.8-2.1-1.2-3.2c-1-0.9-2-1.9-3-2.9c-9-8.6-10.7-8.2-11.3-8
	c-1.5,0.4-2.4,3.3-4.2,9c-1.2,3.8-3.1,10.1-4.5,10.3c-1.4,0.2-5.8-5.4-8.5-8.8c-4.1-5.2-5.9-7.4-7.3-7.4l-0.1,0
	c-1.7,0.1-2.8,3.4-4.7,9.7c-1.2,3.9-2.9,9.3-4.1,10c0,0-0.6,0.3-3-2c-1.6-1.6-3.6-3.8-5.5-6c-4.2-4.9-6.8-7.8-8.5-7.7
	c-2,0.1-3.1,3.8-4.6,9.7c-1.9-3.7-3.8-7.4-5.6-11.2c-2.3-4.9-4.4-9.9-6.4-14.9c-1-2.7-2-5.5-3-8.2c0.9-1.9,1.6-4.4,2.3-7.1
	c0.8-3,2.2-8,3.3-8c1.1,0,4.6,3.9,7.2,6.8c5.1,5.7,8.4,9.1,10.4,8.2c1.7-0.8,2.9-4.2,4.6-9.3c0.8-2.6,2.3-6.9,3-7.1
	c0.9,0.1,4.2,3.8,6.5,6.4c4.6,5.3,7.9,8.7,9.9,8.7l0.1,0c2.2-0.2,3.6-3.9,5.7-10c0.9-2.6,2.4-6.9,3.2-7.1c0.3-0.1,1.9,0.1,8.3,7
	c3.5,3.7,6.6,7.5,6.6,7.6c0.2,0.3,0.7,0.3,1,0.1c0.1-0.1,0.2-0.2,0.2-0.3c-0.1-0.3-0.3-0.7-0.4-1c-0.8-1-3.5-4.2-6.4-7.3
	c-6.5-6.9-8.5-7.6-9.6-7.4c-1.5,0.3-2.5,3.1-4.3,8c-1.2,3.5-3.1,8.9-4.5,9c-1.5,0.1-6-4.9-8.9-8.2c-3.9-4.4-6.1-6.8-7.5-6.8
	c-1.7,0-2.7,2.9-4.4,8.1c-1.1,3.3-2.6,7.9-3.9,8.5c-0.1,0.1-0.8,0.2-3.2-2c-1.7-1.5-3.6-3.7-5.5-5.9c-4.1-4.5-6.6-7.3-8.3-7.3
	c-2,0-3.1,3.4-4.7,9c-0.5,1.8-1.1,3.8-1.7,5.4c-2.3-6.5-4.3-13.1-6.5-19.7c-0.5-1.5-1-3-1.4-4.5c1-1.9,1.8-4.8,2.7-7.9
	c0.8-3,2.2-8,3.3-8c1.1,0,4.6,3.9,7.2,6.8c5.1,5.7,8.4,9.1,10.4,8.2c1.7-0.8,2.9-4.2,4.6-9.3c0.8-2.6,2.2-6.9,3-7.1
	c0.9,0.1,4.2,3.8,6.5,6.4c4.6,5.2,7.9,8.7,9.9,8.7l0.2,0c2.2-0.2,3.6-3.9,5.7-10c0.9-2.6,2.4-6.9,3.2-7.1c0.3-0.1,1.9,0.1,8.3,7
	c2.2,2.4,4.3,4.8,5.5,6.3c-0.5-1.3-1-2.6-1.5-3.9c-0.9-1-1.9-2.2-3-3.3c-6.5-6.9-8.5-7.6-9.6-7.4c-1.5,0.3-2.5,3.1-4.3,8
	c-1.2,3.5-3.1,8.9-4.5,9c-1.5,0.1-6-4.9-8.9-8.2c-3.9-4.4-6.1-6.8-7.5-6.8c-1.7,0-2.7,2.9-4.4,8.1c-1.1,3.3-2.6,7.9-3.9,8.5
	c-0.1,0.1-0.8,0.2-3.2-2c-1.7-1.5-3.6-3.7-5.5-5.8c-4.1-4.5-6.6-7.3-8.3-7.3c-2,0-3.1,3.4-4.7,9c-0.6,2.2-1.3,4.5-2,6.2
	c-3-9.4-6.1-18.8-9.1-28.3c0.9-1.9,1.7-4.6,2.5-7.4c0.8-3,2.2-8,3.3-8c1.1,0,4.6,3.9,7.2,6.8c5.1,5.7,8.4,9.1,10.4,8.2
	c1.7-0.8,3-4.2,4.6-9.3c0.8-2.6,2.3-6.9,3.1-7.1c0.9,0.1,4.2,3.8,6.5,6.4c4.6,5.3,7.9,8.7,9.9,8.7l0.1,0c2.2-0.2,3.6-3.9,5.7-10
	c0.9-2.6,2.4-6.9,3.2-7.1c0.3,0,1.9,0.1,8.3,7c0.8,0.8,1.5,1.7,2.3,2.5c-0.6-1.4-1.1-2.7-1.6-3.9c-6.1-6.5-8.2-7.1-9.2-7
	c-1.5,0.3-2.5,3.1-4.3,8c-1.2,3.5-3.1,8.9-4.5,9c-1.5,0.1-6-4.9-8.9-8.2c-3.8-4.4-6.1-6.8-7.5-6.8c-1.7,0-2.7,2.9-4.4,8.1
	c-1.1,3.3-2.6,7.9-3.9,8.5c-0.1,0.1-0.8,0.2-3.2-2c-1.7-1.5-3.6-3.7-5.5-5.9c-4.1-4.5-6.6-7.3-8.3-7.3c-2,0-3.1,3.4-4.7,9
	c-0.6,2.3-1.3,4.8-2.1,6.6c-0.3,0.1-0.5,0.3-0.4,0.7l0,0.1c-0.4,0.8-0.8,1.4-1.2,1.7c-1.4,0.9-5.6-4.3-8.3-7.8
	c-3-3.8-5.7-7.1-7.6-7.7c-2.8-0.8-4.9,4.3-7,9.8c-1.3,3.3-2.9,7.5-4.2,7.9c-1.6,0.5-7.2-5.2-10.6-8.6c-4.3-4.3-6-6-7.1-6
	c-1.5,0-2.7,2.6-5.4,8.8c-1.5,3.6-3.5,8.2-4.7,8.9c0,0-0.8,0.4-4.5-2.3c-2.4-1.8-5.2-4.3-7.7-6.5c-4.6-4.1-6.4-5.5-7.3-5.5
	c-0.6,0-1.7,0-6.3,9.4c-1.6,3.3-3.1,6.6-3.8,8.1c-0.8-0.8-2.2-2.1-3.7-3.4c-4.5-3.9-5.6-4.1-6.2-3.9c-0.4,0.1-0.6,0.4-0.7,0.8
	c-0.1,0.8,0.2,3.4,0.7,7.9c0.5,4.4,1.3,11.6,1.1,13.5c-0.6-0.4-1.7-1.6-2.3-2.4c-1.8-2-2.8-3.1-3.7-2.9c-0.2,0.1-0.6,0.2-0.8,0.8
	c-0.3,1,0.2,4.3,1,9.5c0.5,3.5,1.3,8.6,1.2,10.1c-0.5-0.3-1.3-1.2-1.8-1.8c-1.5-1.6-2.3-2.4-3.2-2.2c-0.2,0.1-0.6,0.2-0.8,0.9
	c-0.4,1.2,0.1,7.9,0.7,13.5c0.6,2,1.3,4.4,2.1,7.1c-0.7-6.8-1.7-17.7-1.5-19.9c0.5,0.3,1.2,1.1,1.7,1.6c1.5,1.6,2.7,2.9,3.8,2.1
	c0.8-0.6,0.7-2.5-0.7-11.6c-0.5-3.2-1.1-7.2-1.1-8.5c0.6,0.4,1.5,1.5,2.1,2.2c1.8,2.1,2.9,3.2,3.9,3c1.2-0.2,1.4-1.8-0.2-15.2
	c-0.3-2.9-0.7-5.9-0.7-7.1c1.5,0.7,5.5,4.2,8.9,7.5c0.2,0.2,0.4,0.2,0.6,0.2s0.4-0.2,0.5-0.4c3.5-8.1,7.9-16.8,9.2-17.6
	c0.8,0.3,3.9,3,6.3,5.1c6.2,5.5,10.7,9.2,13,9.2c0.3,0,0.6-0.1,0.9-0.2c1.5-0.9,3-4.4,5.2-9.6c1.3-3,3.2-7.6,4.1-8
	c0.8,0.2,3.9,3.3,6.1,5.5c5.8,5.9,9.8,9.7,12,8.9c1.8-0.6,3.3-4.4,5-8.7c1.5-3.7,3.7-9.4,5.3-8.9c1.5,0.4,4.4,4,6.9,7.2
	c4.2,5.2,7.7,9.7,10.2,8.1c0.4-0.2,0.7-0.6,1-1.1c3,9.5,6.1,19,9.1,28.5c-0.3,0.6-0.7,1-1,1.3c-1.4,0.9-5.6-4.3-8.3-7.8
	c-3-3.8-5.7-7.1-7.6-7.7c-2.8-0.8-4.9,4.3-7,9.8c-1.3,3.3-2.9,7.5-4.2,7.9c-1.6,0.5-7.2-5.2-10.6-8.6c-4.3-4.3-6-6-7.1-6
	c-1.5,0-2.7,2.6-5.4,8.8c-1.5,3.6-3.5,8.2-4.7,8.9c0,0-0.8,0.4-4.5-2.3c-2.4-1.8-5.2-4.3-7.7-6.5c-4.6-4.1-6.3-5.5-7.3-5.5
	c-0.6,0-1.7,0-6.3,9.4c-1.6,3.3-3.1,6.6-3.8,8.1c-0.8-0.8-2.2-2.1-3.7-3.4c-4.5-4-5.6-4.1-6.2-3.9c-0.4,0.1-0.6,0.4-0.7,0.8
	c-0.1,0.8,0.2,3.4,0.7,7.9c0.5,4.4,1.3,11.6,1.1,13.5c-0.6-0.4-1.7-1.6-2.3-2.4c-1.8-2-2.8-3.1-3.7-2.9c-0.2,0.1-0.6,0.2-0.8,0.8
	c-0.3,1,0.2,4.3,1,9.5c0.5,3.5,1.3,8.6,1.2,10.1c-0.5-0.3-1.3-1.2-1.8-1.8c-1.5-1.6-2.3-2.4-3.2-2.2c-0.2,0.1-0.6,0.2-0.8,0.9
	c-0.5,1.7,0.6,13,1.1,18.4c0.3,1.1,0.7,2.2,1,3.3l0.1,0c0.4,0,0.7-0.4,0.6-0.8c-0.7-6.8-1.7-17.9-1.5-20.2c0.5,0.3,1.2,1.1,1.7,1.6
	c1.5,1.6,2.7,2.9,3.8,2.1c0.8-0.6,0.7-2.5-0.7-11.6c-0.5-3.2-1.1-7.2-1.1-8.5c0.6,0.4,1.5,1.5,2.1,2.2c1.8,2.1,2.9,3.2,3.9,3
	c1.2-0.2,1.4-1.8-0.2-15.2c-0.3-2.9-0.7-5.9-0.7-7.1c1.5,0.7,5.6,4.2,8.9,7.5c0.2,0.2,0.4,0.2,0.6,0.2c0.2,0,0.4-0.2,0.5-0.4
	c3.5-8.1,7.9-16.8,9.2-17.6c0.8,0.3,3.9,3,6.3,5.1c6.2,5.5,10.7,9.2,13,9.2c0.3,0,0.6-0.1,0.9-0.2c1.5-0.9,3-4.4,5.2-9.6
	c1.3-3,3.2-7.6,4.1-8c0.8,0.2,3.9,3.3,6.1,5.5c5.8,5.9,9.8,9.7,12,8.9c1.8-0.6,3.3-4.4,5-8.7c1.5-3.7,3.7-9.4,5.3-8.9
	c1.5,0.4,4.4,4,6.9,7.2c4.2,5.2,7.8,9.7,10.2,8.1c0.3-0.2,0.5-0.4,0.8-0.8c2.6,8.2,5.2,16.4,8.1,24.6c-0.4,1-0.9,1.7-1.4,2
	c-1.4,0.9-5.6-4.3-8.3-7.8c-3-3.8-5.7-7.1-7.6-7.7c-2.8-0.8-4.9,4.3-7,9.8c-1.3,3.3-2.9,7.5-4.2,7.9c-1.6,0.5-7.2-5.2-10.6-8.6
	c-4.3-4.3-6-6-7.1-6c-1.5,0-2.7,2.6-5.4,8.8c-1.5,3.6-3.5,8.2-4.7,8.9c0,0-0.8,0.4-4.5-2.3c-2.4-1.8-5.2-4.3-7.7-6.5
	c-4.6-4.1-6.3-5.5-7.3-5.5c-0.6,0-1.7,0-6.3,9.4c-1.6,3.3-3.1,6.6-3.8,8.1c-0.8-0.8-2.2-2.1-3.7-3.4c-4.5-3.9-5.6-4.1-6.2-3.9
	c-0.4,0.1-0.6,0.4-0.7,0.8c-0.1,0.8,0.2,3.4,0.7,7.9c0.5,4.4,1.3,11.6,1.1,13.5c-0.6-0.4-1.7-1.6-2.3-2.4c-1.8-2-2.8-3.1-3.7-2.9
	c-0.2,0.1-0.6,0.2-0.8,0.8c-0.3,1,0.2,4.3,1,9.5c0.5,3.5,1.3,8.6,1.2,10.1c-0.5-0.3-1.3-1.2-1.8-1.8c-1.5-1.6-2.3-2.4-3.2-2.2
	c-0.2,0.1-0.6,0.2-0.8,0.9c-0.5,1.7,0.6,13.1,1.1,18.5c0.3,1.1,0.6,2.1,1,3.2l0.1,0c0.4,0,0.7-0.4,0.6-0.8
	c-0.7-6.8-1.7-17.9-1.5-20.2c0.5,0.3,1.2,1.1,1.7,1.6c1.5,1.6,2.7,2.9,3.8,2.1c0.8-0.6,0.7-2.5-0.7-11.7c-0.5-3.2-1.1-7.2-1.1-8.5
	c0.6,0.4,1.5,1.5,2.1,2.2c1.8,2.1,2.9,3.2,3.9,3c1.2-0.2,1.4-1.8-0.2-15.2c-0.3-2.9-0.7-5.9-0.7-7.1c1.5,0.7,5.6,4.2,8.9,7.5
	c0.2,0.2,0.4,0.2,0.6,0.2c0.2,0,0.4-0.2,0.5-0.4c3.5-8.1,7.9-16.8,9.2-17.6c0.8,0.3,3.9,3,6.3,5.1c6.2,5.5,10.7,9.2,13,9.2
	c0.3,0,0.6-0.1,0.9-0.2c1.5-0.9,3-4.4,5.2-9.6c1.3-3,3.2-7.6,4.1-8c0.8,0.2,3.9,3.3,6.1,5.5c5.8,5.9,9.8,9.7,12,8.9
	c1.8-0.6,3.3-4.4,5-8.7c1.5-3.7,3.7-9.4,5.3-8.9c1.5,0.4,4.4,4,6.9,7.2c4.2,5.2,7.8,9.7,10.2,8.1c0.5-0.3,0.9-0.8,1.2-1.4
	c0.5,1.3,0.9,2.6,1.4,3.9c3.6,9.8,8,19.1,12.7,28.3c0.4,0.8,0.8,1.6,1.2,2.4c-1,3.7-2.1,7.4-3.3,8.4c-0.4,0.3-1.6-0.3-3.1-1.7
	c-1.6-1.6-3.6-4-5.5-6.3c-3.4-4.2-6.3-7.8-8.4-8.2c-2.9-0.6-4.5,4.7-6.2,10.3c-1.1,3.4-2.4,7.7-3.5,8.2c-1.5,0.6-7.6-4.6-11.2-7.7
	c-4.6-4-6.4-5.5-7.6-5.4c-1.5,0.1-2.5,2.8-4.7,9.2c-1.3,3.8-2.8,8.4-4,9.2c0,0-0.7,0.5-4.6-2c-2.5-1.6-5.5-3.9-8.2-5.9
	c-4.9-3.7-6.8-5-7.7-4.9c-0.6,0-1.7,0.1-5.6,9.9c-1.3,3.4-2.6,6.8-3.1,8.4c-0.9-0.7-2.4-1.9-4-3.1c-4.8-3.6-5.9-3.6-6.4-3.4
	c-0.3,0.1-0.6,0.5-0.6,0.9c-0.1,0.8,0.5,3.5,1.4,8.2c0.9,4.6,2.4,12.2,2.2,14.1c-0.7-0.3-2.3-1.2-3.4-1.8c-2.9-1.8-4.8-2.8-5.9-2.4
	c-0.4,0.2-0.6,0.5-0.7,0.9c-0.2,1,0.8,4.4,3,11.9c1.3,4.4,3.1,10.2,3.3,12.1c-0.9-0.5-2.6-1.9-3.8-2.9c-3.4-2.8-4.8-3.8-5.8-3.5
	c-0.3,0.1-0.6,0.4-0.7,0.8c-0.2,1.1,1.1,7.1,2.5,13.4c1.6,4.9,3.1,9.8,4.6,14.5c0.2-0.2,0.3-0.4,0.2-0.7c-2.3-9.1-5.8-23.7-6-26.6
	c0.9,0.4,2.9,2,4.2,3.1c3.4,2.8,4.9,3.9,5.8,3.1c0.8-0.7,0.3-2.8-3-13.9c-1.3-4.4-2.9-9.8-3-11.1c0.8,0.1,3.1,1.5,4.4,2.3
	c2.7,1.7,3.9,2.3,4.8,2.1c1.2-0.3,1.2-1.9-1.5-15.8c-0.6-3-1.2-6.1-1.3-7.4c1.5,0.6,5.9,3.8,9.4,6.8c0.2,0.1,0.4,0.2,0.6,0.1
	c0.2-0.1,0.4-0.2,0.5-0.5c2.9-8.4,6.6-17.4,7.8-18.3c0.9,0.2,4.1,2.7,6.7,4.6c7.5,5.6,12.6,9.3,14.5,7.9c1.4-1,2.7-4.6,4.5-9.9
	c1-3.1,2.6-7.8,3.5-8.2c0.8,0.1,4.1,3,6.5,5.1c6.2,5.4,10.5,8.9,12.7,8c1.8-0.8,3-4.6,4.4-9.1c1.2-3.8,3-9.6,4.6-9.3
	c1.6,0.3,4.8,4.2,7.5,7.7c3.7,4.6,7,8.7,9.3,8.7c0.4,0,0.8-0.1,1.1-0.4c1.4-1.1,2.4-4,3.3-7.5c3.5,7.8,6,15.8,8.3,24.1
	c0.1,0.3,0.1,0.5,0.2,0.8c-1,3.7-2.1,7.6-3.3,8.5c-0.4,0.3-1.6-0.3-3.1-1.7c-1.6-1.6-3.6-4-5.5-6.3c-3.4-4.2-6.3-7.8-8.4-8.2
	c-2.9-0.6-4.5,4.7-6.2,10.3c-1.1,3.4-2.4,7.7-3.5,8.2c-1.5,0.6-7.6-4.6-11.2-7.7c-4.6-4-6.4-5.5-7.6-5.4c-1.5,0.1-2.5,2.8-4.7,9.2
	c-1.3,3.8-2.8,8.4-4,9.2c0,0-0.7,0.5-4.6-2c-2.5-1.6-5.5-3.9-8.2-5.9c-4.9-3.7-6.8-5-7.7-4.9c-0.6,0.1-1.7,0.1-5.5,9.9
	c-1.3,3.4-2.6,6.8-3.1,8.4c-0.9-0.7-2.4-1.9-4-3.1c-4.8-3.6-5.9-3.6-6.4-3.4c-0.3,0.1-0.6,0.5-0.6,0.9c-0.1,0.8,0.5,3.5,1.4,8.2
	c0.9,4.6,2.4,12.2,2.3,14.1c-0.7-0.3-2.3-1.2-3.4-1.8c-2.9-1.8-4.8-2.8-5.9-2.4c-0.4,0.2-0.6,0.5-0.7,0.9c-0.2,1,0.8,4.4,3,11.9
	c1.3,4.4,3.1,10.2,3.3,12.1c-0.9-0.5-2.6-1.9-3.8-2.9c-3.4-2.8-4.8-3.8-5.8-3.5c-0.3,0.1-0.6,0.4-0.7,0.8
	c-0.3,1.5,2.3,12.7,4.2,20.5c0.9,2.6,1.7,5.1,2.6,7.6l0.1,0c0.4-0.1,0.6-0.5,0.5-0.9c-2.3-9.1-5.8-23.7-6-26.6
	c0.9,0.4,2.9,2,4.2,3.1c3.4,2.8,4.9,3.9,5.8,3.1c0.8-0.7,0.3-2.8-3-13.9c-1.3-4.4-2.9-9.8-3-11.1c0.8,0.1,3.1,1.5,4.4,2.3
	c2.8,1.7,3.9,2.3,4.8,2.1c1.2-0.3,1.2-1.9-1.5-15.8c-0.6-3-1.2-6.1-1.3-7.4c1.5,0.6,5.9,3.8,9.4,6.8c0.2,0.1,0.4,0.2,0.6,0.1
	s0.4-0.2,0.5-0.5c2.9-8.4,6.6-17.4,7.8-18.3c0.9,0.2,4.1,2.7,6.7,4.6c7.5,5.6,12.6,9.3,14.5,7.9c1.4-1,2.7-4.6,4.5-9.9
	c1-3.1,2.6-7.8,3.5-8.2c0.8,0.1,4.1,3,6.5,5.1c6.2,5.4,10.5,8.9,12.7,8c1.8-0.8,3-4.6,4.4-9.1c1.2-3.8,3-9.6,4.6-9.3
	c1.6,0.3,4.8,4.2,7.5,7.7c3.7,4.6,7,8.7,9.3,8.7c0.4,0,0.8-0.1,1.1-0.4c1.3-1,2.3-3.7,3.2-6.9c2.5,9.2,5.1,18.3,9.4,26.8
	c-1,3.9-2.2,8.1-3.5,9.1c-0.4,0.3-1.6-0.3-3.1-1.7c-1.6-1.6-3.6-4-5.5-6.3c-3.4-4.2-6.3-7.8-8.4-8.2c-2.9-0.6-4.5,4.7-6.2,10.3
	c-1,3.4-2.4,7.7-3.5,8.2c-1.5,0.6-7.6-4.6-11.2-7.7c-4.6-4-6.4-5.5-7.6-5.4c-1.5,0.1-2.5,2.8-4.7,9.2c-1.3,3.8-2.8,8.4-4,9.2
	c0,0-0.7,0.5-4.6-2c-2.5-1.6-5.5-3.9-8.2-5.9c-4.9-3.7-6.8-5-7.7-4.9c-0.6,0.1-1.7,0.1-5.5,9.9c-1.3,3.4-2.6,6.8-3.1,8.4
	c-0.9-0.7-2.4-1.9-4-3.1c-4.8-3.6-5.9-3.6-6.4-3.4c-0.3,0.1-0.6,0.5-0.6,0.9c-0.1,0.8,0.5,3.5,1.4,8.2c0.9,4.6,2.4,12.2,2.3,14.1
	c-0.7-0.3-2.3-1.2-3.4-1.8c-2.9-1.8-4.8-2.8-5.9-2.4c-0.4,0.2-0.6,0.5-0.7,0.9c-0.2,1,0.8,4.4,3,11.9c1.3,4.4,3.1,10.2,3.3,12.1
	c-0.9-0.5-2.6-1.9-3.8-2.9c-3.4-2.8-4.8-3.8-5.8-3.5c-0.3,0.1-0.6,0.4-0.7,0.8c-0.2,1.2,1.4,8.6,3,15.5c1.4,3.9,2.7,7.2,3.9,9.9
	c-2.3-9.1-5.3-22-5.5-24.7c0.9,0.4,2.9,2,4.2,3.1c3.4,2.8,4.9,3.9,5.8,3.1c0.8-0.7,0.3-2.8-3-13.9c-1.3-4.4-2.9-9.8-3-11.1
	c0.8,0.1,3.1,1.5,4.4,2.3c2.8,1.7,3.9,2.3,4.8,2.1c1.2-0.3,1.2-1.9-1.5-15.8c-0.6-3-1.2-6.1-1.3-7.4c1.5,0.6,5.9,3.8,9.4,6.8
	c0.2,0.2,0.4,0.2,0.6,0.1c0.2-0.1,0.4-0.2,0.5-0.5c2.9-8.4,6.6-17.4,7.8-18.3c0.9,0.2,4.1,2.7,6.7,4.6c7.5,5.6,12.6,9.3,14.5,7.9
	c1.4-1,2.7-4.6,4.5-9.9c1-3.1,2.6-7.8,3.5-8.2c0.8,0.1,4.1,3,6.5,5.1c6.2,5.4,10.5,8.9,12.7,8c1.8-0.8,3-4.6,4.4-9.1
	c1.2-3.8,3-9.6,4.6-9.3c1.6,0.3,4.8,4.2,7.6,7.7c3.7,4.6,7,8.7,9.3,8.7c0.4,0,0.8-0.1,1.1-0.4c1.7-1.4,2.9-5.8,4.1-10.4
	c0.6-2.4,1.2-4.7,1.9-6.4c0.9-2.4,1.5-2.6,1.6-2.6h0c1.1,0,4.8,4.3,7.3,7.2c5.1,5.9,8.3,9.4,10.3,8.3c1.6-0.9,2.9-4.7,4.8-10.8
	c1-3.1,2.6-8.4,3.5-8.7c0.9,0.1,4.1,4.2,6.2,6.9c4.7,6,7.7,9.7,9.8,9.3c2.1-0.3,3.6-4.5,5.7-11.3c1-3.1,2.4-7.7,3.2-8
	c0.2,0,1.8-0.2,10,7.6C753.5,308.9,756.1,311.6,757.7,313.2"/>
<path class="st12" d="M594.6,340c0.3,1.6-0.2,3-1,3.1c-0.8,0.1-1.6-1.1-1.9-2.6c-0.3-1.6,0.2-3,1-3.1
	C593.5,337.2,594.3,338.4,594.6,340"/>
<path class="st12" d="M587.5,344.8c0.3,1.6-0.2,3-1,3.1s-1.6-1.1-1.9-2.6s0.2-3,1-3.1C586.4,342,587.2,343.2,587.5,344.8"/>
<path class="st12" d="M590,360.7c0.3,1.6-0.2,3-1,3.1c-0.8,0.1-1.6-1.1-1.9-2.6c-0.3-1.6,0.2-3,1-3.1
	C588.9,358,589.8,359.1,590,360.7"/>
<path class="st12" d="M583.2,364.7c0.3,1.6-0.2,3-1,3.1c-0.8,0.1-1.6-1.1-1.9-2.6s0.2-3,1-3.1S582.9,363.1,583.2,364.7"/>
<path class="st12" d="M575.2,349.1c0.3,1.6-0.2,3-1,3.1s-1.6-1.1-1.9-2.6c-0.3-1.6,0.2-3,1-3.1S575,347.5,575.2,349.1"/>
<path class="st12" d="M572.7,332.9c0.3,1.6-0.2,3-1,3.1s-1.6-1.1-1.9-2.6c-0.3-1.6,0.2-3,1-3.1C571.6,330.1,572.4,331.3,572.7,332.9
	"/>
<path class="st12" d="M579.5,329.2c0.3,1.6-0.2,3-1,3.1c-0.8,0.1-1.6-1.1-1.9-2.6c-0.3-1.6,0.2-3,1-3.1
	C578.4,326.4,579.2,327.6,579.5,329.2"/>
<path class="st12" d="M577.8,313.8c0.3,1.6-0.2,3-1,3.1c-0.8,0.1-1.6-1.1-1.9-2.6c-0.3-1.6,0.2-3,1-3.1
	C576.7,311.1,577.5,312.2,577.8,313.8"/>
<path class="st12" d="M563,306.7c0.3,1.6-0.2,3-1,3.1s-1.6-1.1-1.9-2.6s0.2-3,1-3.1C561.9,304,562.8,305.1,563,306.7"/>
<path class="st12" d="M571,301.9c0.3,1.6-0.2,3-1,3.1c-0.8,0.1-1.6-1.1-1.9-2.6c-0.3-1.6,0.2-3,1-3.1
	C569.9,299.1,570.7,300.3,571,301.9"/>
<path class="st12" d="M567.9,286.3c0.3,1.6-0.2,3-1,3.1c-0.8,0.1-1.6-1.1-1.9-2.6c-0.3-1.6,0.2-3,1-3.1
	C566.7,283.5,567.6,284.7,567.9,286.3"/>
<path class="st12" d="M576.7,284.3c0.3,1.6-0.2,3-1,3.1c-0.8,0.1-1.6-1.1-1.9-2.6c-0.3-1.6,0.2-3,1-3.1
	C575.6,281.5,576.4,282.7,576.7,284.3"/>
<path class="st12" d="M560.5,236.8c0.3,1.6-0.2,3-1,3.1c-0.8,0.1-1.6-1.1-1.9-2.6c-0.3-1.6,0.2-3,1-3.1
	C559.4,234,560.2,235.2,560.5,236.8"/>
<path class="st12" d="M552.8,237.4c0.3,1.6-0.2,3-1,3.1c-0.8,0.1-1.6-1.1-1.9-2.6c-0.3-1.6,0.2-3,1-3.1
	C551.7,234.6,552.5,235.8,552.8,237.4"/>
<path class="st12" d="M540,227.1c0.3,1.6-0.2,3-1,3.1c-0.8,0.1-1.6-1.1-1.9-2.6c-0.3-1.6,0.2-3,1-3.1
	C538.9,224.4,539.8,225.5,540,227.1"/>
<path class="st12" d="M545.1,210.6c0.3,1.6-0.2,3-1,3.1c-0.8,0.1-1.6-1.1-1.9-2.6c-0.3-1.6,0.2-3,1-3.1
	C544,207.9,544.9,209.1,545.1,210.6"/>
<path class="st12" d="M552.5,209.5c0.3,1.6-0.2,3-1,3.1c-0.8,0.1-1.6-1.1-1.9-2.6c-0.3-1.6,0.2-3,1-3.1
	C551.4,206.7,552.3,207.9,552.5,209.5"/>
<path class="st12" d="M535.2,182.2c0.3,1.6-0.2,3-1,3.1s-1.6-1.1-1.9-2.6c-0.3-1.6,0.2-3,1-3.1C534.1,179.4,534.9,180.6,535.2,182.2
	"/>
<path class="st12" d="M536.6,197c0.3,1.6-0.2,3-1,3.1c-0.8,0.1-1.6-1.1-1.9-2.6c-0.3-1.6,0.2-3,1-3.1S536.3,195.4,536.6,197"/>
<path class="st12" d="M530.3,198.4c0.3,1.6-0.2,3-1,3.1c-0.8,0.1-1.6-1.1-1.9-2.6c-0.3-1.6,0.2-3,1-3.1
	C529.2,195.7,530.1,196.8,530.3,198.4"/>
<path class="st12" d="M531.8,211.2c0.3,1.6-0.2,3-1,3.1s-1.6-1.1-1.9-2.6c-0.3-1.6,0.2-3,1-3.1S531.5,209.6,531.8,211.2"/>
<path class="st12" d="M542.3,179.7c0.3,1.6-0.2,3-1,3.1c-0.8,0.1-1.6-1.1-1.9-2.6c-0.3-1.6,0.2-3,1-3.1
	C541.2,176.9,542,178.1,542.3,179.7"/>
<path class="st12" d="M554.5,253c0.3,1.6-0.2,3-1,3.1c-0.8,0.1-1.6-1.1-1.9-2.6c-0.3-1.6,0.2-3,1-3.1
	C553.4,250.2,554.2,251.4,554.5,253"/>
<path class="st12" d="M542.3,242.5c0.3,1.6-0.2,3-1,3.1c-0.8,0.1-1.6-1.1-1.9-2.6c-0.3-1.6,0.2-3,1-3.1
	C541.2,239.7,542,240.9,542.3,242.5"/>
<path class="st12" d="M546.8,226c0.3,1.6-0.2,3-1,3.1c-0.8,0.1-1.6-1.1-1.9-2.6c-0.3-1.6,0.2-3,1-3.1
	C545.7,223.2,546.6,224.4,546.8,226"/>
<path class="st12" d="M548,254.1c0.3,1.6-0.2,3-1,3.1s-1.6-1.1-1.9-2.6c-0.3-1.6,0.2-3,1-3.1S547.7,252.5,548,254.1"/>
<path class="st12" d="M550.2,268.9c0.3,1.6-0.2,3-1,3.1c-0.8,0.1-1.6-1.1-1.9-2.6c-0.3-1.6,0.2-3,1-3.1
	C549.1,266.1,550,267.3,550.2,268.9"/>
<path class="st12" d="M565.3,321.5c0.3,1.6-0.2,3-1,3.1s-1.6-1.1-1.9-2.6s0.2-3,1-3.1C564.2,318.7,565,319.9,565.3,321.5"/>
<path class="st12" d="M585.5,311c0.3,1.6-0.2,3-1,3.1s-1.6-1.1-1.9-2.6c-0.3-1.6,0.2-3,1-3.1S585.2,309.4,585.5,311"/>
<path class="st12" d="M585.2,380.1c0.3,1.6-0.2,3-1,3.1s-1.6-1.1-1.9-2.6c-0.3-1.6,0.2-3,1-3.1C584.1,377.3,584.9,378.5,585.2,380.1
	"/>
<path class="st15" d="M607.2,320.3c0.9,0.2,4.1,2.7,6.7,4.6c7.5,5.6,12.6,9.3,14.5,7.9c1.4-1,2.7-4.6,4.5-9.9c1-3.1,2.6-7.8,3.5-8.2
	c0.8,0.1,4.1,3,6.5,5.1c6.2,5.4,10.5,8.9,12.7,8c1.8-0.8,3-4.6,4.4-9.1c1.2-3.8,3-9.6,4.6-9.3c1.6,0.3,4.8,4.2,7.6,7.7
	c3.7,4.6,7,8.7,9.3,8.7c0.4,0,0.8-0.1,1.1-0.4c1.7-1.4,2.9-5.8,4.1-10.4c0.6-2.4,1.2-4.7,1.9-6.4c0.9-2.4,1.5-2.6,1.6-2.6h0
	c1.1,0,4.8,4.3,7.3,7.2c5.1,5.9,8.3,9.4,10.3,8.3c1.6-0.9,2.9-4.7,4.8-10.8c1-3.1,2.6-8.4,3.5-8.7c0.9,0.1,4.1,4.2,6.2,6.9
	c4.7,6,7.7,9.7,9.8,9.3c2.1-0.3,3.6-4.5,5.7-11.3c1-3.1,2.4-7.7,3.2-8c0.2,0,1.8-0.2,10,7.6c2.7,2.6,5.3,5.3,6.9,6.9
	c-0.1-0.2-0.2-0.4-0.2-0.7l-0.1-0.1c-0.1-0.2-0.2-0.5-0.2-0.7l0,0c-0.1-0.2-0.2-0.5-0.2-0.7c0-0.1,0-0.1-0.1-0.2
	c-0.1-0.2-0.2-0.5-0.3-0.7l0,0c-1.4-1.4-3.1-3.1-4.8-4.7c-9-8.6-10.7-8.2-11.3-8c-1.5,0.4-2.4,3.3-4.2,9c-1.2,3.8-3.1,10.1-4.5,10.3
	c-1.4,0.2-5.8-5.4-8.5-8.8c-4.1-5.2-5.9-7.4-7.3-7.4h-0.1c-1.7,0.1-2.8,3.4-4.7,9.7c-1.2,3.9-2.8,9.3-4.1,10c0,0-0.6,0.3-3-2
	c-1.6-1.6-3.6-3.8-5.5-6c-4.2-4.9-6.8-7.8-8.5-7.7c-1.9,0.1-3,3.5-4.4,9c-4.2-8.6-6.7-17.9-9.3-27.2c0.1-0.5,0.3-1,0.4-1.5
	c0.6-2.4,1.2-4.7,1.9-6.4c0.9-2.4,1.5-2.6,1.6-2.6l0,0c1.1,0,4.8,4.3,7.3,7.2c5.1,5.9,8.3,9.4,10.3,8.3c1.6-0.9,2.9-4.7,4.8-10.8
	c1-3.1,2.6-8.4,3.5-8.7c0.9,0.1,4.1,4.2,6.2,6.9c4.7,6,7.7,9.7,9.8,9.3c2.1-0.3,3.6-4.5,5.7-11.3c1-3.1,2.4-7.7,3.2-8
	c0.2,0,1.8-0.2,10,7.6c2.1,2,4.2,4.1,5.8,5.7c-0.2-0.5-0.4-1-0.5-1.4c0-0.1-0.1-0.2-0.1-0.3c-0.2-0.5-0.3-0.9-0.5-1.4
	c-1.1-1.1-2.4-2.3-3.6-3.5c-9-8.6-10.6-8.1-11.3-8c-1.5,0.4-2.4,3.3-4.2,9c-1.2,3.8-3.1,10.1-4.5,10.3c-1.4,0.2-5.8-5.4-8.5-8.8
	c-4.1-5.2-5.9-7.4-7.3-7.4l-0.1,0c-1.7,0.1-2.8,3.4-4.7,9.7c-1.2,3.9-2.8,9.3-4.1,10c0,0-0.6,0.3-3-2c-1.6-1.6-3.6-3.8-5.5-6
	c-4.2-4.9-6.8-7.8-8.5-7.7c-1.9,0.1-3,3.6-4.5,9.2c-2.2-8.1-4.5-16.1-8.1-23.7c-0.1-0.3-0.3-0.6-0.4-0.9c0.1-0.4,0.2-0.8,0.3-1.2
	c0.6-2.4,1.2-4.7,1.9-6.4c0.9-2.4,1.5-2.6,1.6-2.6h0c1.1,0,4.8,4.3,7.3,7.2c5.1,5.9,8.3,9.4,10.3,8.3c1.6-0.9,2.9-4.7,4.8-10.8
	c1-3.1,2.6-8.4,3.5-8.7c0.9,0.1,4.1,4.2,6.2,6.9c4.7,6,7.7,9.7,9.8,9.3c2.1-0.3,3.6-4.5,5.7-11.3c1-3.1,2.4-7.7,3.2-8
	c0.2,0,1.8-0.2,10,7.6c1.9,1.8,3.7,3.6,5.2,5.1c0-0.1,0-0.1-0.1-0.2c-0.4-1-0.7-2-1.1-3c-1-0.9-2-1.9-3-2.9c-9-8.6-10.7-8.2-11.3-8
	c-1.5,0.4-2.4,3.3-4.2,9c-1.2,3.8-3.1,10.1-4.5,10.3c-1.4,0.2-5.8-5.4-8.5-8.8c-4.1-5.2-5.9-7.4-7.3-7.4l-0.1,0
	c-1.7,0.1-2.8,3.4-4.7,9.7c-1.2,3.9-2.9,9.3-4.1,10c0,0-0.6,0.3-3-2c-1.6-1.6-3.6-3.8-5.5-6c-4.2-4.9-6.8-7.8-8.5-7.7
	c-2,0.1-3.1,3.8-4.6,9.7c-1.9-3.7-3.8-7.4-5.6-11.2c-2.3-4.9-4.4-9.9-6.4-14.9c-1-2.7-2-5.5-3-8.2c0.9-1.9,1.6-4.4,2.3-7.1
	c0.8-3,2.2-8,3.3-8c1.1,0,4.6,3.9,7.2,6.8c5.1,5.7,8.4,9.1,10.4,8.2c1.7-0.8,2.9-4.2,4.6-9.3c0.8-2.6,2.3-6.9,3-7.1
	c0.9,0.1,4.2,3.8,6.5,6.4c4.6,5.3,7.9,8.7,9.9,8.7l0.1,0c2.2-0.2,3.6-3.9,5.7-10c0.9-2.6,2.4-6.9,3.2-7.1c0.3-0.1,1.9,0.1,8.3,7
	c3.5,3.7,6.6,7.5,6.6,7.6c0.2,0.3,0.7,0.3,1,0.1c0.1-0.1,0.2-0.2,0.2-0.3c-0.1-0.3-0.3-0.7-0.4-1c-0.8-1-3.5-4.2-6.4-7.3
	c-6.5-6.9-8.5-7.6-9.6-7.4c-1.5,0.3-2.5,3.1-4.3,8c-1.2,3.5-3.1,8.9-4.5,9c-1.5,0.1-6-4.9-8.9-8.2c-3.9-4.4-6.1-6.8-7.5-6.8
	c-1.7,0-2.7,2.9-4.4,8.1c-1.1,3.3-2.6,7.9-3.9,8.5c-0.1,0.1-0.8,0.2-3.2-2c-1.7-1.5-3.6-3.7-5.5-5.9c-4.1-4.5-6.6-7.3-8.3-7.3
	c-2,0-3.1,3.4-4.7,9c-0.5,1.8-1.1,3.8-1.7,5.4c-2.3-6.5-4.3-13.1-6.5-19.7c-0.5-1.5-1-3-1.4-4.5c1-1.9,1.8-4.8,2.7-7.9
	c0.8-3,2.2-8,3.3-8c1.1,0,4.6,3.9,7.2,6.8c5.1,5.7,8.4,9.1,10.4,8.2c1.7-0.8,2.9-4.2,4.6-9.3c0.8-2.6,2.2-6.9,3-7.1
	c0.9,0.1,4.2,3.8,6.5,6.4c4.6,5.2,7.9,8.7,9.9,8.7l0.2,0c2.2-0.2,3.6-3.9,5.7-10c0.9-2.6,2.4-6.9,3.2-7.1c0.3-0.1,1.9,0.1,8.3,7
	c2.2,2.4,4.3,4.8,5.5,6.3l0,0c-0.2-0.6-0.5-1.3-0.7-1.9l0,0c-0.2-0.6-0.5-1.3-0.7-1.9c-0.9-1-1.9-2.2-3-3.3
	c-6.5-6.9-8.5-7.6-9.6-7.4c-1.5,0.3-2.5,3.1-4.3,8c-1.2,3.5-3.1,8.9-4.5,9c-1.5,0.1-6-4.9-8.9-8.2c-3.9-4.4-6.1-6.8-7.5-6.8
	c-1.7,0-2.7,2.9-4.4,8.1c-1.1,3.3-2.6,7.9-3.9,8.5c-0.1,0.1-0.8,0.2-3.2-2c-1.7-1.5-3.6-3.7-5.5-5.8c-4.1-4.5-6.6-7.3-8.3-7.3
	c-2,0-3.1,3.4-4.7,9c-0.6,2.2-1.3,4.5-2,6.2c-3-9.4-6.1-18.8-9.1-28.3c0.9-1.9,1.7-4.6,2.5-7.4c0.8-3,2.2-8,3.3-8
	c1.1,0,4.6,3.9,7.2,6.8c5.1,5.7,8.4,9.1,10.4,8.2c1.7-0.8,3-4.2,4.6-9.3c0.8-2.6,2.3-6.9,3.1-7.1c0.9,0.1,4.2,3.8,6.5,6.4
	c4.6,5.3,7.9,8.7,9.9,8.7l0.1,0c2.2-0.2,3.6-3.9,5.7-10c0.9-2.6,2.4-6.9,3.2-7.1c0.3,0,1.9,0.1,8.3,7c0.8,0.8,1.5,1.7,2.3,2.5v0
	c-0.1-0.3-0.3-0.6-0.4-0.9l-0.1-0.2c-0.1-0.3-0.3-0.6-0.4-0.9l0-0.1c-0.3-0.6-0.5-1.2-0.8-1.8l0,0c-6.1-6.5-8.2-7.1-9.2-7
	c-1.5,0.3-2.5,3.1-4.3,8c-1.2,3.5-3.1,8.9-4.5,9c-1.5,0.1-6-4.9-8.9-8.2c-3.8-4.4-6.1-6.8-7.5-6.8c-1.7,0-2.7,2.9-4.4,8.1
	c-1.1,3.3-2.6,7.9-3.9,8.5c-0.1,0.1-0.8,0.2-3.2-2c-1.7-1.5-3.6-3.7-5.5-5.9c-4.1-4.5-6.6-7.3-8.3-7.3c-2,0-3.1,3.4-4.7,9
	c-0.6,2.3-1.3,4.8-2.1,6.6c-0.3,0.1-0.5,0.3-0.4,0.7l0,0.1c-0.4,0.8-0.8,1.4-1.2,1.7c-1.4,0.9-5.6-4.3-8.3-7.8
	c-3-3.8-5.7-7.1-7.6-7.7c-2.8-0.8-4.9,4.3-7,9.8c-1.3,3.3-2.9,7.5-4.2,7.9c-1.6,0.5-7.2-5.2-10.6-8.6c-4.3-4.3-6-6-7.1-6
	c-1.5,0-2.7,2.6-5.4,8.8c-1.5,3.6-3.5,8.2-4.7,8.9c0,0-0.8,0.4-4.5-2.3c-2.4-1.8-5.2-4.3-7.7-6.5c-4.6-4.1-6.4-5.5-7.3-5.5
	c-0.6,0-1.7,0-6.3,9.4c-1.5,3.1-2.9,6.2-3.7,7.9c0.2,0.6,0.4,1.3,0.6,2c0.1-0.1,0.1-0.1,0.2-0.2c3.5-8.1,7.9-16.8,9.2-17.6
	c0.8,0.3,3.9,3,6.3,5.1c6.2,5.5,10.7,9.2,13,9.2c0.3,0,0.6-0.1,0.9-0.2c1.5-0.9,3-4.4,5.2-9.6c1.3-3,3.2-7.6,4.1-8
	c0.8,0.2,3.9,3.3,6.1,5.5c5.8,5.9,9.8,9.7,12,8.9c1.8-0.6,3.3-4.4,5-8.7c1.5-3.7,3.7-9.4,5.3-8.9c1.5,0.4,4.4,4,6.9,7.2
	c4.2,5.2,7.7,9.7,10.2,8.1c0.4-0.2,0.7-0.6,1-1.1c3,9.5,6.1,19,9.1,28.5c-0.3,0.6-0.7,1-1,1.3c-1.4,0.9-5.6-4.3-8.3-7.8
	c-3-3.8-5.7-7.1-7.6-7.7c-2.8-0.8-4.9,4.3-7,9.8c-1.3,3.3-2.9,7.5-4.2,7.9c-1.6,0.5-7.2-5.2-10.6-8.6c-4.3-4.3-6-6-7.1-6
	c-1.5,0-2.7,2.6-5.4,8.8c-1.5,3.6-3.5,8.2-4.7,8.9c0,0-0.8,0.4-4.5-2.3c-2.4-1.8-5.2-4.3-7.7-6.5c-4.6-4.1-6.3-5.5-7.3-5.5
	c-0.6,0-1.7,0-6.3,9.4c-1.6,3.3-3.1,6.6-3.8,8.1c-0.1-0.1-0.2-0.2-0.4-0.4c0.2,0.8,0.5,1.5,0.7,2.3h0c0.2,0,0.4-0.2,0.5-0.4
	c3.5-8.1,7.9-16.8,9.2-17.6c0.8,0.3,3.9,3,6.3,5.1c6.2,5.5,10.7,9.2,13,9.2c0.3,0,0.6-0.1,0.9-0.2c1.5-0.9,3-4.4,5.2-9.6
	c1.3-3,3.2-7.6,4.1-8c0.8,0.2,3.9,3.3,6.1,5.5c5.8,5.9,9.8,9.7,12,8.9c1.8-0.6,3.3-4.4,5-8.7c1.5-3.7,3.7-9.4,5.3-8.9
	c1.5,0.4,4.4,4,6.9,7.2c4.2,5.2,7.8,9.7,10.2,8.1c0.3-0.2,0.5-0.4,0.8-0.8c2.6,8.2,5.2,16.4,8.1,24.6c-0.4,1-0.9,1.7-1.4,2
	c-1.4,0.9-5.6-4.3-8.3-7.8c-3-3.8-5.7-7.1-7.6-7.7c-2.8-0.8-4.9,4.3-7,9.8c-1.3,3.3-2.9,7.5-4.2,7.9c-1.6,0.5-7.2-5.2-10.6-8.6
	c-4.3-4.3-6-6-7.1-6c-1.5,0-2.7,2.6-5.4,8.8c-1.5,3.6-3.5,8.2-4.7,8.9c0,0-0.8,0.4-4.5-2.3c-2.4-1.8-5.2-4.3-7.7-6.5
	c-4.6-4.1-6.3-5.5-7.3-5.5c-0.6,0-1.7,0-6.3,9.4c-1.5,3.2-3,6.3-3.7,8c0.2,0.6,0.4,1.3,0.6,1.9c0.1-0.1,0.2-0.2,0.2-0.3
	c3.5-8.1,7.9-16.8,9.2-17.6c0.8,0.3,3.9,3,6.3,5.1c6.2,5.5,10.7,9.2,13,9.2c0.3,0,0.6-0.1,0.9-0.2c1.5-0.9,3-4.4,5.2-9.6
	c1.3-3,3.2-7.6,4.1-8c0.8,0.2,3.9,3.3,6.1,5.5c5.8,5.9,9.8,9.7,12,8.9c1.8-0.6,3.3-4.4,5-8.7c1.5-3.7,3.7-9.4,5.3-8.9
	c1.5,0.4,4.4,4,6.9,7.2c4.2,5.2,7.8,9.7,10.2,8.1c0.5-0.3,0.9-0.8,1.2-1.4c0.5,1.3,0.9,2.6,1.4,3.9c3.6,9.8,8,19.1,12.7,28.3
	c0.4,0.8,0.8,1.6,1.2,2.4c-1,3.7-2.1,7.4-3.3,8.4c-0.4,0.3-1.6-0.3-3.1-1.7c-1.6-1.6-3.6-4-5.5-6.3c-3.4-4.2-6.3-7.8-8.4-8.2
	c-2.9-0.6-4.5,4.7-6.2,10.3c-1.1,3.4-2.4,7.7-3.5,8.2c-1.5,0.6-7.6-4.6-11.2-7.7c-4.6-4-6.4-5.5-7.6-5.4c-1.5,0.1-2.5,2.8-4.7,9.2
	c-1.3,3.8-2.8,8.4-4,9.2c0,0-0.7,0.5-4.6-2c-2.5-1.6-5.5-3.9-8.2-5.9c-4.9-3.7-6.8-5-7.7-4.9c-0.6,0-1.7,0.1-5.6,9.9
	c-1.3,3.2-2.4,6.4-3,8.1c0.2,0.7,0.4,1.4,0.7,2.1c0.1-0.1,0.2-0.2,0.2-0.3c2.9-8.4,6.6-17.4,7.8-18.3c0.9,0.2,4.1,2.7,6.7,4.6
	c7.5,5.6,12.6,9.3,14.5,7.9c1.4-1,2.7-4.6,4.5-9.9c1-3.1,2.6-7.8,3.5-8.2c0.8,0.1,4.1,3,6.5,5.1c6.2,5.4,10.5,8.9,12.7,8
	c1.8-0.8,3-4.6,4.4-9.1c1.2-3.8,3-9.6,4.6-9.3c1.6,0.3,4.8,4.2,7.5,7.7c3.7,4.6,7,8.7,9.3,8.7c0.4,0,0.8-0.1,1.1-0.4
	c1.4-1.1,2.4-4,3.3-7.5c3.5,7.8,6,15.8,8.3,24.1c0.1,0.3,0.1,0.5,0.2,0.8c-1,3.7-2.1,7.6-3.3,8.5c-0.4,0.3-1.6-0.3-3.1-1.7
	c-1.6-1.6-3.6-4-5.5-6.3c-3.4-4.2-6.3-7.8-8.4-8.2c-2.9-0.6-4.5,4.7-6.2,10.3c-1.1,3.4-2.4,7.7-3.5,8.2c-1.5,0.6-7.6-4.6-11.2-7.7
	c-4.6-4-6.4-5.5-7.6-5.4c-1.5,0.1-2.5,2.8-4.7,9.2c-1.3,3.8-2.8,8.4-4,9.2c0,0-0.7,0.5-4.6-2c-2.5-1.6-5.5-3.9-8.2-5.9
	c-4.9-3.7-6.8-5-7.7-4.9c-0.6,0.1-1.7,0.1-5.5,9.9c-1.3,3.4-2.6,6.8-3.1,8.4c-0.1-0.1-0.3-0.2-0.4-0.3c0.3,0.8,0.5,1.5,0.7,2.2
	c0.1,0,0.1,0,0.2,0c0.2-0.1,0.4-0.2,0.5-0.5c2.9-8.4,6.6-17.4,7.8-18.3c0.9,0.2,4.1,2.7,6.7,4.6c7.5,5.6,12.6,9.3,14.5,7.9
	c1.4-1,2.7-4.6,4.5-9.9c1-3.1,2.6-7.8,3.5-8.2c0.8,0.1,4.1,3,6.5,5.1c6.2,5.4,10.5,8.9,12.7,8c1.8-0.8,3-4.6,4.4-9.1
	c1.2-3.8,3-9.6,4.6-9.3c1.6,0.3,4.8,4.2,7.5,7.7c3.7,4.6,7,8.7,9.3,8.7c0.4,0,0.8-0.1,1.1-0.4c1.3-1,2.3-3.7,3.2-6.9
	c2.5,9.2,5.1,18.3,9.4,26.8c-1,3.9-2.2,8.1-3.5,9.1c-0.4,0.3-1.6-0.3-3.1-1.7c-1.6-1.6-3.6-4-5.5-6.3c-3.4-4.2-6.3-7.8-8.4-8.2
	c-2.9-0.6-4.5,4.7-6.2,10.3c-1,3.4-2.4,7.7-3.5,8.2c-1.5,0.6-7.6-4.6-11.2-7.7c-4.6-4-6.4-5.5-7.6-5.4c-1.5,0.1-2.5,2.8-4.7,9.2
	c-1.3,3.8-2.8,8.4-4,9.2c0,0-0.7,0.5-4.6-2c-2.5-1.6-5.5-3.9-8.2-5.9c-4.9-3.7-6.8-5-7.7-4.9c-0.6,0.1-1.7,0.1-5.5,9.9
	c-1.3,3.3-2.5,6.5-3.1,8.2c0.3,0.7,0.5,1.3,0.7,1.9c0.1-0.1,0.2-0.2,0.2-0.3C602.2,330.2,605.9,321.2,607.2,320.3"/>
<path class="st15" d="M654.4,315.5c-0.3,1.8-1.8,3.1-3.2,2.8c-1.4-0.3-2.3-2-2-3.8c0.4-1.8,1.8-3.1,3.3-2.8
	C653.9,312,654.8,313.7,654.4,315.5"/>
<path class="st15" d="M641.6,325.8c-0.3,1.8-1.8,3.1-3.2,2.8s-2.3-2-2-3.8c0.4-1.8,1.8-3.1,3.3-2.8S642,324,641.6,325.8"/>
<path class="st15" d="M625.4,321.5c-0.4,1.8-1.8,3.1-3.2,2.8c-1.4-0.3-2.3-2-2-3.8c0.3-1.8,1.8-3.1,3.2-2.8
	C624.9,318,625.8,319.7,625.4,321.5"/>
<path class="st15" d="M611.5,330.6c-0.4,1.8-1.8,3.1-3.3,2.8s-2.3-2-2-3.8c0.3-1.8,1.8-3.1,3.2-2.8
	C611,327.1,611.9,328.8,611.5,330.6"/>
<path class="st15" d="M707,308.7c-0.3,1.8-1.8,3.1-3.3,2.8s-2.3-2-2-3.8c0.3-1.8,1.8-3.1,3.2-2.8S707.4,306.9,707,308.7"/>
<path class="st15" d="M732,305.3c-0.3,1.8-1.8,3.1-3.2,2.8c-1.4-0.3-2.3-2-2-3.8c0.3-1.8,1.8-3.1,3.2-2.8
	C731.5,301.8,732.4,303.5,732,305.3"/>
<path class="st15" d="M695.4,318.1c-0.4,1.8-1.8,3.1-3.3,2.8c-1.4-0.3-2.3-2-2-3.8c0.3-1.8,1.8-3.1,3.2-2.8
	C694.8,314.6,695.7,316.3,695.4,318.1"/>
<path class="st15" d="M720.6,315c-0.3,1.8-1.8,3.1-3.2,2.8c-1.4-0.3-2.3-2-2-3.8c0.3-1.8,1.8-3.1,3.3-2.8
	C720.1,311.5,721,313.2,720.6,315"/>
<path class="st15" d="M746.2,311c-0.4,1.8-1.8,3.1-3.3,2.8c-1.4-0.3-2.3-2-2-3.8c0.3-1.8,1.8-3.1,3.2-2.8S746.6,309.2,746.2,311"/>
<path class="st15" d="M681.7,312.4c-0.4,1.8-1.8,3.1-3.3,2.8c-1.4-0.3-2.3-2-2-3.8s1.8-3.1,3.2-2.8S682.1,310.6,681.7,312.4"/>
<path class="st15" d="M667.8,321.5c-0.3,1.8-1.8,3.1-3.3,2.8c-1.4-0.3-2.3-2-2-3.8c0.4-1.8,1.8-3.1,3.3-2.8
	C667.3,318,668.1,319.7,667.8,321.5"/>
<path class="st15" d="M645.6,286.5c-0.4,1.8-1.8,3.1-3.2,2.8c-1.4-0.3-2.3-2-2-3.8c0.4-1.8,1.8-3.1,3.3-2.8
	C645.1,283,646,284.7,645.6,286.5"/>
<path class="st15" d="M632.8,296.8c-0.3,1.8-1.8,3.1-3.2,2.8c-1.4-0.3-2.3-2-2-3.8c0.4-1.8,1.8-3.1,3.3-2.8
	C632.3,293.3,633.2,295,632.8,296.8"/>
<path class="st15" d="M616.6,292.5c-0.4,1.8-1.8,3.1-3.3,2.8s-2.3-2-2-3.8c0.3-1.8,1.8-3.1,3.2-2.8S617,290.7,616.6,292.5"/>
<path class="st15" d="M602.7,301.6c-0.3,1.8-1.8,3.1-3.2,2.8s-2.3-2-2-3.8c0.3-1.8,1.8-3.1,3.2-2.8
	C602.2,298.1,603.1,299.8,602.7,301.6"/>
<path class="st15" d="M698.2,279.7c-0.3,1.8-1.8,3.1-3.3,2.8c-1.4-0.3-2.3-2-2-3.8c0.3-1.8,1.8-3.1,3.3-2.8
	C697.7,276.2,698.5,277.9,698.2,279.7"/>
<path class="st15" d="M723.2,276.3c-0.4,1.8-1.8,3.1-3.3,2.8c-1.4-0.3-2.3-2-2-3.8c0.4-1.8,1.8-3.1,3.2-2.8
	C722.7,272.8,723.6,274.5,723.2,276.3"/>
<path class="st15" d="M686.5,289.1c-0.3,1.8-1.8,3.1-3.3,2.8s-2.3-2-2-3.8c0.4-1.8,1.8-3.1,3.3-2.8
	C686,285.6,686.9,287.3,686.5,289.1"/>
<path class="st15" d="M711.8,286c-0.4,1.8-1.8,3.1-3.3,2.8c-1.4-0.3-2.3-2-2-3.8c0.4-1.8,1.8-3.1,3.3-2.8S712.2,284.2,711.8,286"/>
<path class="st15" d="M737.4,282c-0.4,1.8-1.8,3.1-3.2,2.8c-1.4-0.3-2.3-2-2-3.8c0.3-1.8,1.8-3.1,3.2-2.8
	C736.9,278.5,737.8,280.2,737.4,282"/>
<path class="st15" d="M672.9,283.4c-0.4,1.8-1.8,3.1-3.3,2.8c-1.4-0.3-2.3-2-2-3.8c0.4-1.8,1.8-3.1,3.2-2.8
	C672.4,279.9,673.3,281.6,672.9,283.4"/>
<path class="st15" d="M659,292.5c-0.3,1.8-1.8,3.1-3.3,2.8c-1.4-0.3-2.3-2-2-3.8c0.3-1.8,1.8-3.1,3.2-2.8
	C658.4,289,659.3,290.7,659,292.5"/>
<path class="st15" d="M635.4,259.8c-0.3,1.8-1.8,3.1-3.2,2.8c-1.4-0.3-2.3-2-2-3.8c0.4-1.8,1.8-3.1,3.2-2.8
	C634.9,256.3,635.7,258,635.4,259.8"/>
<path class="st15" d="M622.6,270.1c-0.3,1.8-1.8,3.1-3.2,2.8c-1.4-0.3-2.3-2-2-3.8c0.4-1.8,1.8-3.1,3.3-2.8S623,268.2,622.6,270.1"
	/>
<path class="st15" d="M606.4,265.8c-0.4,1.8-1.8,3.1-3.2,2.8c-1.4-0.3-2.3-2-2-3.8c0.3-1.8,1.8-3.1,3.3-2.8
	C605.9,262.3,606.8,264,606.4,265.8"/>
<path class="st15" d="M592.5,274.9c-0.4,1.8-1.8,3.1-3.3,2.8c-1.4-0.3-2.3-2-2-3.8c0.4-1.8,1.8-3.1,3.3-2.8S592.8,273.1,592.5,274.9
	"/>
<path class="st15" d="M688,253c-0.4,1.8-1.8,3.1-3.3,2.8c-1.4-0.3-2.3-2-2-3.8c0.4-1.8,1.8-3.1,3.2-2.8
	C687.4,249.5,688.3,251.2,688,253"/>
<path class="st15" d="M713,249.6c-0.3,1.8-1.8,3.1-3.3,2.8c-1.4-0.3-2.3-2-2-3.8s1.8-3.1,3.2-2.8C712.4,246.1,713.3,247.8,713,249.6
	"/>
<path class="st15" d="M676.3,262.4c-0.4,1.8-1.8,3.1-3.3,2.8c-1.4-0.3-2.3-2-2-3.8c0.4-1.8,1.8-3.1,3.3-2.8
	C675.8,258.9,676.7,260.6,676.3,262.4"/>
<path class="st15" d="M701.6,259.3c-0.3,1.8-1.8,3.1-3.2,2.8c-1.4-0.3-2.3-2-2-3.8c0.4-1.8,1.8-3.1,3.2-2.8
	C701.1,255.7,702,257.4,701.6,259.3"/>
<path class="st15" d="M727.2,255.3c-0.4,1.8-1.8,3.1-3.3,2.8c-1.4-0.3-2.3-2-2-3.8c0.4-1.8,1.8-3.1,3.3-2.8
	C726.6,251.8,727.5,253.5,727.2,255.3"/>
<path class="st15" d="M662.7,256.7c-0.3,1.8-1.8,3.1-3.2,2.8s-2.3-2-2-3.8c0.3-1.8,1.8-3.1,3.3-2.8
	C662.1,253.2,663,254.9,662.7,256.7"/>
<path class="st15" d="M648.8,265.8c-0.4,1.8-1.8,3.1-3.3,2.8c-1.4-0.3-2.3-2-2-3.8c0.4-1.8,1.8-3.1,3.2-2.8
	C648.2,262.3,649.1,264,648.8,265.8"/>
<path class="st15" d="M621.2,216.6c-0.4,1.8-1.8,3.1-3.3,2.8c-1.4-0.3-2.3-2-2-3.8c0.3-1.8,1.8-3.1,3.3-2.8
	C620.6,213.1,621.5,214.8,621.2,216.6"/>
<path class="st15" d="M607.8,225.2c-0.4,1.8-1.8,3.1-3.3,2.8s-2.3-2-2-3.8c0.3-1.8,1.8-3.1,3.2-2.8S608.2,223.3,607.8,225.2"/>
<path class="st15" d="M593.1,220.9c-0.4,1.8-1.8,3.1-3.2,2.8c-1.4-0.3-2.3-2-2-3.8c0.3-1.8,1.8-3.1,3.2-2.8
	C592.5,217.4,593.4,219.1,593.1,220.9"/>
<path class="st15" d="M577.7,230c-0.4,1.8-1.8,3.1-3.3,2.8s-2.3-2-2-3.8c0.4-1.8,1.8-3.1,3.3-2.8C577.2,226.5,578.1,228.2,577.7,230
	"/>
<path class="st15" d="M673.5,211.2c-0.4,1.8-1.8,3.1-3.3,2.8c-1.4-0.3-2.3-2-2-3.8c0.4-1.8,1.8-3.1,3.3-2.8
	C672.9,207.7,673.8,209.4,673.5,211.2"/>
<path class="st15" d="M698.8,209.2c-0.3,1.8-1.8,3.1-3.2,2.8s-2.3-2-2-3.8c0.3-1.8,1.8-3.1,3.3-2.8
	C698.2,205.7,699.1,207.4,698.8,209.2"/>
<path class="st15" d="M661.8,218.6c-0.3,1.8-1.8,3.1-3.3,2.8s-2.3-2-2-3.8c0.4-1.8,1.8-3.1,3.3-2.8S662.2,216.8,661.8,218.6"/>
<path class="st15" d="M686.8,217.8c-0.3,1.8-1.8,3.1-3.2,2.8c-1.4-0.3-2.3-2-2-3.8c0.3-1.8,1.8-3.1,3.2-2.8
	C686.3,214.2,687.2,215.9,686.8,217.8"/>
<path class="st15" d="M712.7,214.9c-0.3,1.8-1.8,3.1-3.2,2.8c-1.4-0.3-2.3-2-2-3.8c0.4-1.8,1.8-3.1,3.3-2.8
	C712.1,211.4,713,213.1,712.7,214.9"/>
<path class="st15" d="M647.9,211.8c-0.3,1.8-1.8,3.1-3.3,2.8c-1.4-0.3-2.3-2-2-3.8c0.3-1.8,1.8-3.1,3.3-2.8
	C647.4,208.3,648.3,210,647.9,211.8"/>
<path class="st15" d="M635.6,221.1c-0.4,1.8-1.8,3.1-3.2,2.8c-1.4-0.3-2.3-2-2-3.8c0.3-1.8,1.8-3.1,3.2-2.8
	C635,217.5,635.9,219.2,635.6,221.1"/>
<path class="st15" d="M612.9,188.5c-0.3,1.8-1.8,3.1-3.3,2.8c-1.4-0.3-2.3-2-2-3.8s1.8-3.1,3.3-2.8
	C612.4,185,613.3,186.7,612.9,188.5"/>
<path class="st15" d="M599.6,197c-0.3,1.8-1.8,3.1-3.3,2.8c-1.4-0.3-2.3-2-2-3.8c0.3-1.8,1.8-3.1,3.3-2.8
	C599.1,193.5,599.9,195.2,599.6,197"/>
<path class="st15" d="M584.8,192.7c-0.4,1.8-1.8,3.1-3.3,2.8s-2.3-2-2-3.8c0.4-1.8,1.8-3.1,3.3-2.8S585.2,190.9,584.8,192.7"/>
<path class="st15" d="M569.5,201.8c-0.3,1.8-1.8,3.1-3.2,2.8c-1.4-0.3-2.3-2-2-3.8c0.4-1.8,1.8-3.1,3.2-2.8
	C568.9,198.3,569.8,200,569.5,201.8"/>
<path class="st15" d="M665.2,183.1c-0.4,1.8-1.8,3.1-3.2,2.8c-1.4-0.3-2.3-2-2-3.8c0.4-1.8,1.8-3.1,3.3-2.8S665.6,181.3,665.2,183.1
	"/>
<path class="st15" d="M690.5,181.1c-0.3,1.8-1.8,3.1-3.2,2.8s-2.3-2-2-3.8c0.4-1.8,1.8-3.1,3.3-2.8
	C690,177.6,690.9,179.3,690.5,181.1"/>
<path class="st15" d="M653.6,190.5c-0.3,1.8-1.8,3.1-3.3,2.8c-1.4-0.3-2.3-2-2-3.8c0.3-1.8,1.8-3.1,3.3-2.8
	C653,187,653.9,188.7,653.6,190.5"/>
<path class="st15" d="M678.6,189.6c-0.3,1.8-1.8,3.1-3.3,2.8c-1.4-0.3-2.3-2-2-3.8c0.3-1.8,1.8-3.1,3.3-2.8
	C678,186.1,678.9,187.8,678.6,189.6"/>
<path class="st15" d="M704.4,186.8c-0.4,1.8-1.8,3.1-3.2,2.8c-1.4-0.3-2.3-2-2-3.8c0.4-1.8,1.8-3.1,3.3-2.8
	C703.9,183.3,704.8,185,704.4,186.8"/>
<path class="st15" d="M639.7,183.7c-0.3,1.8-1.8,3.1-3.2,2.8s-2.3-2-2-3.8c0.3-1.8,1.8-3.1,3.3-2.8
	C639.1,180.1,640,181.8,639.7,183.7"/>
<path class="st15" d="M627.3,192.9c-0.3,1.8-1.8,3.1-3.2,2.8c-1.4-0.3-2.3-2-2-3.8c0.4-1.8,1.8-3.1,3.3-2.8S627.7,191.1,627.3,192.9
	"/>
<path class="st15" d="M603,159.2c-0.3,1.8-1.8,3.1-3.2,2.8c-1.4-0.3-2.3-2-2-3.8c0.4-1.8,1.8-3.1,3.2-2.8
	C602.5,155.7,603.4,157.4,603,159.2"/>
<path class="st15" d="M589.6,167.7c-0.3,1.8-1.8,3.1-3.2,2.8c-1.4-0.3-2.3-2-2-3.8c0.4-1.8,1.8-3.1,3.2-2.8
	C589.1,164.2,590,165.9,589.6,167.7"/>
<path class="st15" d="M574.9,163.5c-0.3,1.8-1.8,3.1-3.3,2.8c-1.4-0.3-2.3-2-2-3.8s1.8-3.1,3.3-2.8
	C574.3,159.9,575.2,161.6,574.9,163.5"/>
<path class="st15" d="M559.5,172.6c-0.3,1.8-1.8,3.1-3.2,2.8c-1.4-0.3-2.3-2-2-3.8c0.3-1.8,1.8-3.1,3.3-2.8
	C559,169,559.9,170.7,559.5,172.6"/>
<path class="st15" d="M655.3,153.8c-0.4,1.8-1.8,3.1-3.3,2.8c-1.4-0.3-2.3-2-2-3.8c0.4-1.8,1.8-3.1,3.3-2.8S655.6,152,655.3,153.8"
	/>
<path class="st15" d="M680.6,151.8c-0.3,1.8-1.8,3.1-3.2,2.8c-1.4-0.3-2.3-2-2-3.8c0.4-1.8,1.8-3.1,3.2-2.8
	C680,148.3,680.9,150,680.6,151.8"/>
<path class="st15" d="M643.6,161.2c-0.4,1.8-1.8,3.1-3.3,2.8s-2.3-2-2-3.8c0.4-1.8,1.8-3.1,3.3-2.8S644,159.4,643.6,161.2"/>
<path class="st15" d="M668.6,160.3c-0.3,1.8-1.8,3.1-3.2,2.8c-1.4-0.3-2.3-2-2-3.8c0.3-1.8,1.8-3.1,3.3-2.8
	C668.1,156.8,669,158.5,668.6,160.3"/>
<path class="st15" d="M694.5,157.5c-0.4,1.8-1.8,3.1-3.3,2.8c-1.4-0.3-2.3-2-2-3.8c0.4-1.8,1.8-3.1,3.3-2.8
	C694,154,694.8,155.7,694.5,157.5"/>
<path class="st15" d="M629.7,154.4c-0.3,1.8-1.8,3.1-3.2,2.8c-1.4-0.3-2.3-2-2-3.8c0.4-1.8,1.8-3.1,3.2-2.8
	C629.2,150.8,630.1,152.6,629.7,154.4"/>
<path class="st15" d="M617.4,163.6c-0.3,1.8-1.8,3.1-3.2,2.8s-2.3-2-2-3.8c0.3-1.8,1.8-3.1,3.3-2.8
	C616.8,160.1,617.7,161.8,617.4,163.6"/>
<path class="st18" d="M625.8,366.5l-35,33l37.4-30.5l30.4,23c1.6-0.2,3.3-0.5,4.9-0.7c-0.1-0.2-0.3-0.3-0.5-0.3
	c-1.7-0.3-61.1-49.1-61.1-49.1s-0.4-0.3-0.5,2.2C601.4,347.5,625.8,366.5,625.8,366.5"/>
<path class="st18" d="M759.5,322.5c0,0-69.3,59.7-79.6,66.5c1.7-0.2,3.4-0.5,5-0.7c7.5-5.3,29.4-21.1,40.6-31.6
	c0,0,17.8,20.5,19.4,20.8L728.1,355C728.1,355,768.8,320.7,759.5,322.5"/>
<path class="st19" d="M684.5,334.4c0.8,16.6-9.5,52.8-10.3,55.4c6.9-1,13.7-1.9,20.3-2.9c3-7.8,11.3-44.9,11.4-55.3L684.5,334.4"/>
<path class="st5" d="M726.6,226.9c-14.8,1.1-145.7,10.5-159.3,15.9c-9.2,3.7-15.7,42.5-17,50.6c2.3,7.4,4.6,14.9,6.9,22.2l0-0.1
	c-1.3-7.1,11.3-49.5,14.7-53.8c3.1-3.9,138.9-15.8,161-17.7C730.8,238.4,728.7,232.6,726.6,226.9"/>
<path class="st5" d="M674.7,249.3c26.6-2.5,50.1-4.6,58.2-5.3c-2.1-5.7-4.2-11.4-6.3-17.2c-6,0.4-30.8,2.2-59.1,4.6
	c-15.9-38.8-31.6-76.5-35.8-86.7c-7.2,0.5-14.5,1-21.8,1.5c3,2.2,20.6,43.6,37.9,86.9c-36.7,3.2-73.6,7-80.4,9.7
	c-9.2,3.7-15.7,42.5-17,50.6c2.3,7.4,4.6,14.9,6.9,22.2l0-0.1c-1.3-7.1,11.3-49.5,14.7-53.8c1.7-2.1,42.5-6.6,83.1-10.6
	c15.1,38.3,28.3,73.9,29.3,80.6c2.2,15-9.2,55.3-10,58c6.9-1,13.7-1.9,20.3-2.9c3.1-8.1,11.9-47.6,11.4-56.3
	C705.7,326.4,691,289.5,674.7,249.3"/>
<path class="st19" d="M557.2,315.6c-1.3-7.1,11.3-49.5,14.6-53.8l-5.9-18.2c-8.5,6.7-14.4,42.1-15.6,49.8
	C552.6,300.8,554.9,308.3,557.2,315.6L557.2,315.6"/>
<path class="st20" d="M629.8,185.6c-8.3-18-16.7-37-16.7-37.8c-0.1-0.8,16.6-0.8,16.6-0.8c-10.3,1-13.6,2.8-13.6,2.8
	C619.3,157.2,629.8,185.6,629.8,185.6"/>
<path class="st20" d="M685.5,331.5c14-3.8,16.2-4.8,16.2-4.8c-4.9-10.2-12.4-35-12.4-35c5.7,12.4,15,36.1,15.2,36.9
	C704.8,329.3,685.5,331.5,685.5,331.5"/>
<path class="st19" d="M677.2,237.1c0,0,21.2-1.7,32.1-8.9c-11,0.8-25.8,2-41.8,3.3c-1.4-3.3-2.7-6.6-4-9.9c-5,4.7-9.9,9.5-9.9,9.5
	l-6.3,0.6c0.2,0.5,0.4,1,0.6,1.5c-16.2,1.4-32.5,2.9-46.2,4.4c0.9,3.5,3.5,12.6,6.8,18.5c13.8-1.6,30.2-3.3,46.5-4.9
	c6.8,17.3,13.2,34,18.3,47.8c3.7-5.4,10.4-18,7.3-35.3c-1.9-4.7-3.8-9.5-5.8-14.3c0.7-0.1,1.4-0.1,2.1-0.2
	C673.1,233.3,677.2,237.1,677.2,237.1"/>
<path class="st9" d="M665.2,241.4c0,0,28.4,21.2,2.1,59.9l-10.4-19l-19,4.5c0,0,21.3-26.3,13.6-43.2L665.2,241.4"/>
<path class="st5" d="M664.9,233.9l-3.1,8.1l-10.4,1.7c7.7,16.9-13.6,43.2-13.6,43.2l19-4.5l10.4,19c12.8-18.8,12.7-33.4,9.2-43.5
	c10.2,8.3,22.9,20.1,30.6,32.9l5.8-19.1l17.9-5.9C730.8,265.7,698.6,238.9,664.9,233.9"/>
<path class="st19" d="M667.3,234.3l-3.7,2.9l-1.9,4.8l-5.4,0.9l-4.1,3.3c0.6,1.9,0.8,4,0.8,6c2.9,0,9.8-0.6,14.8-5.2
	c0,0,5.7,4.6,8.6,11c1,0.8,2,1.6,3,2.5c-1.4-3.5-3.7-8.8-6.1-11.4c-3.3-3.7,5.5-9.2,10.8-10C678.7,236.9,673,235.3,667.3,234.3"/>
<path class="st5" d="M646.3,228.2c0,0-4.4-7.5-16-5.9c-11.6,1.6-31.2,4.9-26.6,16.6c4.6,11.7,11.9,29.5,18.5,28.6
	c6.6-0.9,26.5-19.2,26.5-19.2s5.4,4,13.6-1.5c8.2-5.6,10.3-13,10.3-13s47.1-7.1,45.5-18.7s-11.1-30.1-19.7-28.3
	s-35.8,32.2-35.8,32.2S649.4,214.7,646.3,228.2"/>
<path class="st19" d="M672,228.8c-0.3-2.2-1.9-6.3-9.3-9.8l-0.1,0.1c0,0-0.1,0-0.2-0.1c2,1.4,6.4,5.1,6.5,10.7c0,0-0.4,6.6-9.5,8.9
	c-8.8,2.2-11.5-12.1-11.5-12.1c-0.7,1.1-1.2,2.2-1,3.5c0.5,2.5,1.1,4.9,2.1,7.2c0.3,0.8,0.7,1.5,1,2.3c0.2,0.8,0.3,1.7,0.1,2.5
	c-0.5,1.4-2,1.6-3.2,2.1c-1.2,0.5-2.3,0.9-3.4,1.4c-3.7,1.6-7.4,3.2-11.1,5c-3.6,1.7-7.3,3.6-10.6,5.8c-1.1,0.7-4.6,3-3.5,4.8
	c2.9,4.7,8.5,5.8,31.2-15c0,0,7.7,5.3,15.2-1.7c7.5-7,7.1-12.8,7.1-12.8s41.5-6.2,43.4-15.8C716.9,206.6,704.3,210.9,672,228.8"/>
<path class="st21" d="M672.8,227.6l-0.1,0.1c-0.3,0.1-0.6,0.4-0.6,0.7c0.3,4.8-0.4,10.7-8.4,17.4c-7,5.9-12.5,3.3-14.1,2.3
	c0.7-1.3,2-3.7,2-4.6c0-0.3-0.1-0.7-0.4-0.9c-0.7-0.5-2.2-0.1-3.4,0.4l-0.1,0c-10.2,3.3-27.9,12.9-29.9,15.8
	c-0.5,0.8-0.7,1.6-0.5,2.4c0.5,1.8,2.8,2.8,3.1,2.9c0.3,0.1,0.7,0,0.9-0.4c0.1-0.3,0-0.7-0.3-0.9c-0.5-0.2-2-1.1-2.3-2.1
	c-0.1-0.4,0-0.8,0.3-1.2c1.5-2.2,18.9-12.1,29.6-15.4l0.1-0.1c0.6-0.2,1.2-0.3,1.5-0.4c-0.3,0.8-1.2,2.7-2.1,4.3
	c-0.2,0.3-0.1,0.6,0.2,0.8c0.1,0.1,1.9,1.4,4.7,1.9c2.7,0.4,6.8,0,11.5-3.9c0.5-0.4,0.9-0.8,1.3-1.2c2.5,1.7,12.6,9.8,12,25.4
	c-0.7,15.9-11,29.8-11.1,30c-0.2,0.3-0.2,0.7,0.1,0.9c0.3,0.2,0.7,0.2,0.9-0.1c0-0.1,1.6-2.1,3.5-5.6c3.2-5.7,7.4-15,7.9-25.2
	c0.7-15.7-9.3-24.2-12.3-26.4c1.9-1.9,3.3-3.8,4.3-5.6c2.2-3.9,2.5-7.5,2.3-10.4c17.8-9.9,36.3-19.3,40.3-16.4
	c0.8,0.6,1,1.7,0.7,3.5c-0.2,1.3-1.4,2.6-3.4,4c-0.3,0.2-0.4,0.7-0.1,1c0.2,0.2,0.6,0.3,0.9,0.1c1.6-1.1,2.8-2.2,3.4-3.4
	c0.3-0.5,0.5-1,0.6-1.5c0.4-2.3,0-4-1.2-4.9C711.4,209,703,210.9,672.8,227.6"/>
<path class="st20" d="M706.2,287.2c-8.4-15.9-21.2-25.6-21.2-25.6c10.8,6.1,19.7,19.2,19.7,19.2l4.4-14.3l16.9-1.2l-14.9,3.9
	L706.2,287.2"/>
<path class="st20" d="M641.7,284.5c0,0,7.1-11.8,12.1-24.2c0,0-2,8-8.6,21.6l11.8-1L641.7,284.5"/>
<path class="st20" d="M614.6,256.7c0,0-10.9-21.3-7.5-25.6c3.4-4.2,30.3-6.9,30.3-6.9s-22.4,4.7-25.6,8.5
	C608.7,236.5,614.6,256.7,614.6,256.7"/>
<path class="st20" d="M666.1,229.7c-1.6,0-6.3-6.2-8.7-7.6c-0.4-0.2-0.8-0.3-1.2-0.3c-2.8,0-6.6,3.5-6.6,3.5s1.6-3.7,6-5.3
	c0.6-0.2,1.1-0.3,1.7-0.3c3.9,0,7.8,4.1,7.8,4.1c1.5,1.9,2.2,3.3,1.5,5.4C666.4,229.6,666.3,229.7,666.1,229.7"/>
<path class="st20" d="M672.7,211c0.2-0.4,22.1-22.2,26.8-22.5c0.1,0,0.2,0,0.3,0c4.7,0,9.4,8,9.4,8s-3.5-5.4-8.4-5.4
	c-1,0-2.2,0.3-3.3,0.9C691.1,195.4,672.7,211,672.7,211"/>
<path class="st22" d="M422.1,290c0.3,0,93-5.6,93-5.6l62.4,4.5l1.5,117.9l-92.7,9.9l-65.7-11.4L422.1,290"/>
<path class="st23" d="M482.3,329.9c1.8,5.2,0,10.6-4.2,12.1s-9-1.6-10.9-6.8c-1.8-5.2,0-10.7,4.2-12.1
	C475.6,321.6,480.4,324.7,482.3,329.9"/>
<path class="st23" d="M460.6,355.9c1.8,5.2,0,10.7-4.2,12.1c-4.2,1.5-9-1.6-10.9-6.8c-1.8-5.2,0-10.7,4.2-12.1
	C453.9,347.7,458.7,350.7,460.6,355.9"/>
<path class="st23" d="M445.1,388.5c1.8,5.2,0,10.7-4.2,12.1c-4.2,1.5-9-1.6-10.9-6.8c-1.8-5.2,0-10.7,4.2-12.1
	C438.4,380.2,443.3,383.2,445.1,388.5"/>
<path class="st23" d="M479,384.1c1.8,5.2,0,10.7-4.2,12.1c-4.1,1.5-9-1.6-10.9-6.8c-1.8-5.2,0-10.7,4.2-12.1S477.2,378.9,479,384.1"
	/>
<path class="st23" d="M459.8,305.5c1.8,5.2,0,10.7-4.2,12.1c-4.1,1.5-9-1.6-10.9-6.8c-1.8-5.2,0-10.6,4.2-12.1
	C453.1,297.2,457.9,300.3,459.8,305.5"/>
<path class="st23" d="M443.8,330.4c1.8,5.2,0,10.6-4.2,12.1s-9-1.6-10.9-6.8c-1.8-5.2,0-10.7,4.2-12.1S441.9,325.2,443.8,330.4"/>
<path class="st23" d="M577.5,288.9l-88.9,9.4l-63-7.4c-0.2,0-0.4,0.1-0.4,0.4c0,0.2,0.1,0.4,0.4,0.4l63,7.4l-2.3,117.6l0.1,0
	l92.7-9.9L577.5,288.9"/>
<path class="st24" d="M574.8,392.7c-1.1,5.4-5.7,9.1-10.3,8.2c-4.6-0.9-7.5-6.1-6.4-11.5c1.1-5.4,5.7-9.1,10.3-8.2
	C573,382.1,575.9,387.3,574.8,392.7"/>
<path class="st24" d="M566.4,355c-1.1,5.4-5.7,9.1-10.3,8.2c-4.6-0.9-7.5-6.1-6.4-11.5c1.1-5.4,5.7-9.1,10.3-8.2
	C564.6,344.4,567.4,349.6,566.4,355"/>
<path class="st24" d="M539,381.3c-1.1,5.4-5.7,9.1-10.3,8.2c-4.6-0.9-7.5-6.1-6.4-11.5c1.1-5.4,5.7-9.1,10.3-8.2
	C537.2,370.7,540.1,375.9,539,381.3"/>
<path class="st24" d="M572.6,315.2c-1.1,5.4-5.7,9.1-10.3,8.2s-7.5-6.1-6.4-11.5c1.1-5.4,5.7-9.1,10.3-8.2S573.7,309.7,572.6,315.2"
	/>
<path class="st24" d="M543.1,332.5c-1.1,5.4-5.7,9.1-10.3,8.2c-4.6-0.9-7.5-6.1-6.4-11.5c1.1-5.4,5.7-9.1,10.3-8.2
	C541.3,321.9,544.1,327.1,543.1,332.5"/>
<path class="st24" d="M514,313.3c-1.1,5.4-5.7,9.1-10.3,8.2c-4.6-0.9-7.5-6.1-6.4-11.5c1.1-5.4,5.7-9.1,10.3-8.2
	C512.3,302.7,515.1,307.8,514,313.3"/>
<path class="st24" d="M518.1,356.1c-1.1,5.4-5.7,9.1-10.3,8.2c-4.6-0.9-7.5-6.1-6.4-11.5c1.1-5.4,5.7-9.1,10.3-8.2
	S519.2,350.7,518.1,356.1"/>
<path class="st24" d="M509.2,401.4c-1.1,5.4-5.7,9.1-10.3,8.2s-7.5-6.1-6.4-11.5c1.1-5.4,5.7-9.1,10.3-8.2
	C507.4,390.8,510.3,396,509.2,401.4"/>
<path class="st13" d="M496.7,289.5l-11.9-0.4l-41.6,4.4l-0.5,115.7l10.5,1.8l2.5-115.8l41-3.8C496.7,290.8,496.7,290.1,496.7,289.5"
	/>
<path class="st15" d="M511.2,289.9l-14.2-0.4c0,0.6,0,1.3,0,1.9l0.9-0.1l34.7,3.1v117.4l12.2-1.3l1.1-117.5L511.2,289.9"/>
<path class="st15" d="M496.7,291.4c0-0.7,0-1.3,0-1.9l-11.9-0.4l-29.7,3.2c3.1,0.7,9.1,1.2,15.1,1.6L496.7,291.4"/>
<path class="st15" d="M540.6,263.5c0,0,12.8,8.1,12.8,13.9s-2.6,9.5-4.4,11c-1.8,1.5-31.4,2.9-31.4,2.9l15.2-24.6L540.6,263.5"/>
<path class="st13" d="M553.4,277.4c0-4.4-7.3-10.1-10.9-12.6c-2,3.7-5,9.5-5.2,10.4c-0.4,1.5,1.5,6.2,4.8,7.3c2.9,1,8.6,1.9,10.6,0
	C553.1,281.1,553.4,279.4,553.4,277.4"/>
<path class="st25" d="M546.8,280.3c0,0-1.8,8.1,0.7,7.7s5.9-9.9,4.8-11.7C551.2,274.5,547.9,274.1,546.8,280.3"/>
<path class="st13" d="M522.6,242.2c-3.7-0.4-6.6,4-6.6,4s-2.6-7.7-5.9-8.8c-3.3-1.1-16.1,4.8-16.1,4.8s-26.4-6.6-27.9-7
	c-1.5-0.4-3.3-0.4-5.5,8.4s7.3,15.8,7.3,15.8s-25.3,8.1-27.5,10.3c-2.2,2.2,12.1,11,12.1,11s-1.1,0.7-2.6,2.2
	c-1.5,1.5,0.4,4.4,2.6,6.2c2.2,1.8,39.5,2.5,40.3,2.5c0,0,30.9-0.3,34.2-1c3.3-0.7,7.8-5.1,8.4-8.4c0.6-2.8-0.8-6.1-0.8-6.1
	c3.2-1.4,11.5-18.5,11.5-18.5s3.7-5.9,3.7-7.3C549.8,248.8,526.3,242.6,522.6,242.2"/>
<path class="st15" d="M534.9,277c0.1,0.5,0.3,0.9,0.4,1.3c-0.3-1.3-0.7-2.2-0.7-2.2c3.2-1.4,11.5-18.4,11.5-18.5
	c-1.2,1.7-2.6,3.1-3.9,3.1c-3.3,0-10.6,2.2-13.6,0.7c-2.9-1.5-4.8-2.9-6.6-1.5c-1.8,1.5-12.9,7.1-14.1,2.8c-1.3-4.3-1.6-10.1-2-10.1
	s-10.3,5.5-11.2,0.2c0,0-3.3,0.7-8.8-1.1c-5.5-1.8-18.3-11.7-19.1-11.4c-0.6,0.3-5.3,7.5-5.4,11.2c0.9,2,2.2,3.7,3.4,5
	c2.9,2.8,6.6,5.7,6.6,5.7s3.5-3.9,9.3-5.6c5.8-1.8,9.8-1,13.1,0.4s9.2,4.8,11,6.2c1.8,1.5-0.8,4.3-2.4,5.6c0,0,7.9-2.7,10.8-3.1
	C516.2,265.5,531.5,263.5,534.9,277"/>
<path class="st15" d="M535.1,283.4l-3.1,1.2l-7.3,4c0,0-35.7-7.9-33.1-11.5s5.6-4.8,5.6-4.8s-12.9,1.6-15.1,0.1l-5.8,0
	c0,0-4.9,1-6.7-3c0,0-18.7,6.7-26.9,4.1c3.6,3.2,9.9,7.1,9.9,7.1c3.1-2.4,11.9-9.1,14.2-8.5c2.9,0.7,5.1,2.1,5.1,2.1s2.9,4,6.2,6.6
	c3.3,2.6-15.1,7.1-28.5,4.1c0.4,1.4,1.6,3,3,4.1c2.2,1.8,39.5,2.5,40.3,2.5c0,0,30.9-0.3,34.2-1C529.9,290,533.8,286.5,535.1,283.4"
	/>
<path class="st23" d="M451.5,281.6L451.5,281.6c0,0,0.4-0.3,1.1-0.8C452.5,280.8,452.1,281.1,451.5,281.6"/>
<path class="st25" d="M504.8,263.2c0,0-0.9-22.1,3.5-23.6c4.4-1.5,7,7.7,7,7.7l-8.4,18L504.8,263.2"/>
<path class="st25" d="M470.9,260.9c0,0-2.6-24.9-5.5-24.6c-2.9,0.4-5.1,9.9-3.3,13.9C463.9,254.3,470.9,260.9,470.9,260.9"/>
<path class="st25" d="M482.1,280.6c0,0-6-4.6-6.4-10.2c-0.4-5.5,4.8-4.8,6.2,1.8S482.1,280.6,482.1,280.6"/>
<path class="st25" d="M521.9,290.6c0,0,5.9-8.1,9.5-10.3c3.7-2.2,3.7,1.5,2.9,2.9C533.6,284.7,529.2,291,521.9,290.6"/>
<path class="st25" d="M490,278.3c-0.8,1.3-1.1,2.5-0.7,3.7c0.2,0.7,0.6,1.3,1,1.8c-5.7-2.1-11.8-4.8-16.3-8.2l-0.1,0l-0.1-0.1
	c0,0-1.8-1.5-3-3.8c-1.6-3-1.6-5.7,0.2-8.2c1.3-1.8,6.2-7.5,16.9-7.5c3.5,0,13.8,4.3,17.7,8.5c0.9,0.9,1.3,1.8,1.4,2.5
	C498.2,269.7,492,275.2,490,278.3 M542.8,265.5c0.1-0.2,0-0.4-0.2-0.5c-0.2-0.1-0.4,0-0.5,0.2l-6.6,12.7c-1.1-4.5-4.6-12-15.8-12.5
	c-4.4-0.2-8.4,0.4-12,1.4c-0.1-0.5-0.2-0.9-0.5-1.4l0.1-0.1c1.2-2.8,8.3-17.2,8.3-17.3c0.1-0.2,0-0.4-0.2-0.5
	c-0.2-0.1-0.4,0-0.5,0.2c-0.3,0.6-6.7,13.7-8.2,17.1c-0.2-0.2-0.4-0.5-0.6-0.7c-2.7-2.9-8.3-5.8-12.8-7.4c4.3-6.3,1.3-13.3,1.3-13.3
	c-0.1-0.2-0.3-0.3-0.5-0.2c-0.2,0.1-0.3,0.3-0.2,0.5c0,0.1,2.9,6.8-1.4,12.8c-1.9-0.6-3.6-1-4.7-1c-11.1,0-16.2,6-17.5,7.9
	c-2.8,4-1,8.1,0.8,10.5c-1.6-0.9-3.6-1.9-5.3-1.9c-2.7,0-11.9,7.3-15.9,10.6c-0.2,0.1-0.2,0.4-0.1,0.5l0,0c0.1,0.2,0.4,0.2,0.5,0.1
	c4.8-3.9,13.2-10.4,15.5-10.4c3.1,0,7.4,3.5,7.5,3.6l0.1,0.1l0.1,0.1c11.9,8.9,34,13.2,34.3,13.3l0.1,0c0.2,0,0.3-0.1,0.4-0.3
	c0-0.2-0.1-0.4-0.3-0.4c-0.1,0-7.3-1.4-15.6-4.3l-0.1-0.1c0,0-1.8-0.9-2.3-2.6c-0.3-1,0-2,0.6-3.1c1.9-3,7.9-8.4,16.6-11.1l0.1,0
	c0.1,0,0.3-0.1,0.3-0.2c3.6-1.1,7.6-1.7,12-1.5c6.4,0.3,10.9,2.9,13.6,7.8c2,3.7,2,7.3,2,7.3c0,0.2,0.2,0.4,0.4,0.4h0
	c0.2,0,0.4-0.2,0.4-0.4c0,0,0-0.9-0.3-2.2l0.1-0.1L542.8,265.5"/>
<path class="st26" d="M529.9,277.2c-0.1,0-0.3-0.1-0.7-0.5c-1.1-1.1-17.2-6.6-18.7-6.6c-1.5,0,0-2.2,6.6-2.2s12.8,8.8,12.8,8.8
	S530.1,277.2,529.9,277.2"/>
<path class="st26" d="M513.3,257.9c-0.1,0-0.2-0.1-0.2-0.3c0-2.2,4.8-13.6,8.4-13.9c0,0,26.4,6.6,26,7.3c-0.3,0.5,0.8,0.9,0.2,0.9
	c-0.3,0-0.7,0-1.6-0.1c-2.8-0.3-16.1-3.3-21.5-3.3c-1,0-1.7,0.1-2,0.3C520.6,250.1,514.5,257.9,513.3,257.9"/>
<path class="st26" d="M480.8,266.8c-0.4-0.7-1.3-0.8-1.9-0.8c-0.4,0-0.7,0.1-0.7,0.1s1.1-7,4.8-8.1c0.6-0.2,1.4-0.3,2.3-0.3
	c4.2,0,10.5,1.9,12,2.8C499.2,261.6,480.8,266.8,480.8,266.8"/>
<path class="st26" d="M452.9,282.9c0,0,11.4-8.1,12.5-8.4c0.1-0.1,0.3-0.1,0.5-0.1c1.2,0,3,1.1,3.9,3
	C470.9,279.6,452.9,282.9,452.9,282.9"/>
<path class="st26" d="M444.5,269.7c3.3-2.1,16.8-6.8,20.7-6.8c0.9,0,1.3,0.3,0.9,0.9C465.1,265.4,444.5,269.7,444.5,269.7"/>
<path class="st26" d="M490.6,248.2c-0.3,0-0.6-0.1-1-0.2c-2.6-0.7-11.4-7.7-19.4-10.3c0,0,21.3,4.8,21.6,7
	C492.1,246.6,492.2,248.2,490.6,248.2"/>
<path class="st26" d="M504.7,245.9C504.7,245.9,504.7,245.9,504.7,245.9c-0.4-0.4-7.8-1.5-8.1-2.2s7.3-4.8,11.7-5.5
	c0,0-2.6,1.1-2.9,3.3C505,243.5,505,245.9,504.7,245.9"/>
<path class="st26" d="M546.5,274.9c-1.7,0-5.8-7.5-3.4-7.8c0,0,7.7,5.9,7.3,6.6c-0.4,0.7-2.2,0-3.7,1.1
	C546.7,274.9,546.6,274.9,546.5,274.9"/>
<path class="st2" d="M296.8,399.6c0,2.2-8,3.9-17.8,3.9c-9.8,0-17.8-1.8-17.8-3.9s7.9-3.9,17.8-3.9
	C288.8,395.7,296.8,397.4,296.8,399.6"/>
<path class="st10" d="M291.6,387.5c0-7.2-5.8-13-13-13c-7.2,0-13,5.8-13,13c0,7.2,5.8,13,13,13C285.8,400.5,291.6,394.7,291.6,387.5
	"/>
<path class="st9" d="M291.1,384c-1.5-5.5-6.6-9.5-12.5-9.5c-2.1,0-4,0.5-5.8,1.4c-1.9,1.9-3.1,4.6-3.1,7.5c0,5.9,4.8,10.7,10.7,10.7
	C286.2,394,290.8,389.6,291.1,384"/>
<path class="st27" d="M282,385.8c-0.9,0-1.8-0.2-2.6-0.7c-2.2-1.3-3.1-3.9-2.1-5.7c0.7-1.2,2-1.8,3.4-1.8c0.9,0,1.8,0.2,2.6,0.7
	c2.2,1.3,3.1,3.9,2.1,5.7C284.8,385.2,283.5,385.8,282,385.8"/>
<path class="st2" d="M704.3,422.1c0,2.2-7.9,3.9-17.8,3.9c-9.8,0-17.8-1.8-17.8-3.9c0-2.2,7.9-3.9,17.8-3.9
	C696.3,418.2,704.3,419.9,704.3,422.1"/>
<path class="st10" d="M699.6,409.8c0-7.2-5.8-13-13-13s-13,5.8-13,13c0,7.2,5.8,13,13,13S699.6,416.9,699.6,409.8"/>
<path class="st9" d="M699.2,406.2c-1.5-5.5-6.6-9.5-12.5-9.5c-2.1,0-4,0.5-5.8,1.4c-1.9,1.9-3.1,4.6-3.1,7.5
	c0,5.9,4.8,10.7,10.7,10.7C694.2,416.3,698.8,411.8,699.2,406.2"/>
<path class="st27" d="M690,408.1c-0.9,0-1.8-0.2-2.6-0.7c-2.2-1.3-3.1-3.9-2.1-5.7c0.7-1.2,2-1.8,3.4-1.8c0.9,0,1.8,0.2,2.6,0.7
	c2.2,1.3,3.1,3.9,2,5.7C692.8,407.5,691.5,408.1,690,408.1"/>
<path class="st2" d="M656.3,412.1c0,2.2-7.9,3.9-17.8,3.9c-9.8,0-17.8-1.8-17.8-3.9c0-2.2,7.9-3.9,17.8-3.9
	C648.3,408.1,656.3,409.9,656.3,412.1"/>
<path class="st3" d="M652.2,400c0-7.2-5.8-13-13-13s-13,5.8-13,13c0,7.2,5.8,13,13,13S652.2,407.2,652.2,400"/>
<path class="st4" d="M651.7,396.5c-1.5-5.5-6.6-9.5-12.5-9.5c-2.1,0-4,0.5-5.8,1.4c-1.9,1.9-3.1,4.6-3.1,7.5
	c0,5.9,4.8,10.7,10.7,10.7C646.7,406.5,651.4,402.1,651.7,396.5"/>
<path class="st28" d="M642.6,398.3c-0.9,0-1.8-0.2-2.6-0.7c-2.2-1.3-3.1-3.9-2.1-5.8c0.7-1.2,2-1.8,3.4-1.8c0.9,0,1.8,0.2,2.6,0.7
	c2.2,1.3,3.1,3.9,2.1,5.8C645.3,397.7,644,398.3,642.6,398.3"/>
<path class="st2" d="M247.4,384.4c0,2.2-7.9,3.9-17.8,3.9c-9.8,0-17.8-1.8-17.8-3.9c0-2.2,8-3.9,17.8-3.9
	C239.5,380.5,247.4,382.2,247.4,384.4"/>
<path class="st15" d="M242.3,372.6c0-7.2-5.8-13-13-13s-13,5.8-13,13c0,7.2,5.8,13,13,13S242.3,379.8,242.3,372.6"/>
<path class="st13" d="M241.8,369.1c-1.5-5.5-6.6-9.5-12.5-9.5c-2.1,0-4,0.5-5.8,1.4c-1.9,1.9-3.1,4.6-3.1,7.5
	c0,5.9,4.8,10.7,10.7,10.7C236.8,379.1,241.5,374.7,241.8,369.1"/>
<path class="st29" d="M232.7,370.9c-0.9,0-1.8-0.2-2.6-0.7c-2.2-1.3-3.1-3.9-2.1-5.7c0.7-1.2,2-1.8,3.4-1.8c0.9,0,1.8,0.2,2.6,0.7
	c2.2,1.3,3.1,3.9,2.1,5.8C235.4,370.3,234.1,370.9,232.7,370.9"/>
<path class="st2" d="M181.3,399.3c0,2.2-7.9,3.9-17.8,3.9c-9.8,0-17.8-1.8-17.8-3.9s8-3.9,17.8-3.9
	C173.3,395.4,181.3,397.1,181.3,399.3"/>
<path class="st5" d="M176.1,387.5c0-7.2-5.8-13-13-13s-13,5.8-13,13c0,7.2,5.8,13,13,13S176.1,394.7,176.1,387.5"/>
<path class="st6" d="M175.7,384c-1.5-5.5-6.6-9.5-12.5-9.5c-2.1,0-4,0.5-5.8,1.4c-1.9,1.9-3.1,4.6-3.1,7.5c0,5.9,4.8,10.7,10.7,10.7
	C170.7,394,175.3,389.6,175.7,384"/>
<path class="st30" d="M166.5,385.8c-0.9,0-1.8-0.2-2.6-0.7c-2.2-1.3-3.1-3.9-2-5.7c0.7-1.2,2-1.8,3.4-1.8c0.9,0,1.8,0.2,2.6,0.7
	c2.2,1.3,3.1,3.9,2.1,5.7C169.3,385.2,168,385.8,166.5,385.8"/>
<path class="st2" d="M815,392.3c0,2.2-7.9,3.9-17.8,3.9c-9.8,0-17.8-1.8-17.8-3.9c0-2.2,7.9-3.9,17.8-3.9
	C807,388.4,815,390.2,815,392.3"/>
<path class="st23" d="M810.4,380.6c0-7.2-5.8-13-13-13c-7.2,0-13,5.8-13,13c0,7.2,5.8,13,13,13C804.5,393.6,810.4,387.7,810.4,380.6
	"/>
<path class="st22" d="M809.9,377c-1.5-5.5-6.6-9.5-12.5-9.5c-2.1,0-4,0.5-5.8,1.4c-1.9,1.9-3.1,4.6-3.1,7.5
	c0,5.9,4.8,10.7,10.7,10.7C804.9,387.1,809.5,382.6,809.9,377"/>
<path class="st31" d="M800.8,378.9c-0.9,0-1.8-0.2-2.6-0.7c-2.2-1.3-3.1-3.9-2.1-5.7c0.7-1.2,2-1.8,3.4-1.8c0.9,0,1.8,0.2,2.6,0.7
	c2.2,1.3,3.1,3.9,2.1,5.7C803.5,378.2,802.2,378.9,800.8,378.9"/>
<path class="st2" d="M932.6,413c0,4.4-22.3,8-49.8,8c-27.5,0-49.8-3.6-49.8-8c0-4.4,22.3-8,49.8-8
	C910.3,405.1,932.6,408.6,932.6,413"/>
<path class="st32" d="M890.2,411.2l-2.2-20.6l-4,1l3,19.3L890.2,411.2"/>
<path class="st9" d="M890.4,414c-0.4,0.1-0.8,0.2-1.2,0.2c-2.8,0.2-17.2,1.1-17.6-1.2c-0.4-2.6,4.1-8.6,15.1-4.4
	C895.4,411.9,892.1,413.5,890.4,414"/>
<path class="st10" d="M886.7,408.6c-0.5-0.2-1-0.4-1.5-0.5c2.1,2.2-1.8,4.9-8.1,4.9c-3.8,0-5-1-5.2-1.9c-0.4,0.7-0.5,1.4-0.4,1.9
	c0.4,2.3,14.8,1.4,17.6,1.2c0.4,0,0.8-0.1,1.2-0.2C892.1,413.5,895.4,411.9,886.7,408.6"/>
<path class="st33" d="M916.8,387.8l-11.9-17l-3,2.8l11.9,15.4L916.8,387.8"/>
<path class="st9" d="M918,389.4c-0.2,0.3-0.5,0.6-0.8,0.9c-2.1,1.8-13.1,11.2-14.8,9.6c-1.9-1.8-1.8-9.3,9.5-12.5
	C920.8,384.8,919.1,388,918,389.4"/>
<path class="st10" d="M911.8,387.3c-0.5,0.1-1,0.3-1.5,0.5c3,0.5,1.4,5-3.5,8.7c-3.1,2.3-4.6,2.2-5.3,1.6c0.1,0.8,0.4,1.4,0.8,1.8
	c1.7,1.6,12.7-7.8,14.8-9.6c0.3-0.3,0.6-0.6,0.8-0.9C919.1,388,920.8,384.8,911.8,387.3"/>
<path class="st34" d="M932.9,158.8c-9.3-9.7-20.8,11.5-29,11.1l-3-0.4c1.4-2.8,1.8-6.4-0.2-10.7c-5.6-12-23.4-8.3-25.8,0.8
	c-2.4,9.1,5.8,11.5,5.8,11.5l12.3,6.2c0,0,3.9-1.9,6.6-5.5l2.2,1.2c0,0,0.8,9.7,11.3,10.3c10.5,0.6,12.3-10.7,18.7-1.6
	C931.7,181.7,942.2,168.6,932.9,158.8"/>
<path class="st35" d="M931.4,166.3c-7.4-3.1-9.3,5.2-18.3,8.3s-11.9-3-11.9-3l0.9-1.9l-1.3-0.2c1.4-2.8,1.8-6.4-0.2-10.7
	c-1.4-3.1-3.7-5.1-6.3-6.3c2.4,2.1,4,5.1,2.2,8.6c-3.1,5.9-12.4,0.7-12.4,0.7c0.1,4.5,5.4,12.5,6.9,14.6l1.8,0.9
	c0,0,3.9-1.9,6.6-5.5l2.2,1.2c0,0,0.8,9.7,11.3,10.3c10.5,0.6,12.3-10.7,18.7-1.6l0-0.1C934.5,176.3,936.9,168.6,931.4,166.3"/>
<path class="st3" d="M871.3,257l-10.3,66.6c-0.1,0.7,0.1,1.4,0.5,2l43.2,54.3l5.2-4.6l-33.1-48.6l19.1-66.6L871.3,257"/>
<path class="st4" d="M907.6,261.6L883.8,336l6.3,60.9l-7.1,0.8L872.7,334l6.3-76.2L907.6,261.6"/>
<path class="st3" d="M888.1,397.2l2-0.2l-6.3-60.9l23.8-74.4l-28.6-3.8l-1.2,14.5c2.1-2.4,8.9-9,15.8-1.5
	c7.5,8.1-13.9,65.3-13.9,65.3L888.1,397.2"/>
<path class="st14" d="M873.1,333.9l5.4-64.8c0-0.1,0-0.2,0-0.3l-1.8-3.8c-0.1-0.3-0.4-0.4-0.7-0.2c-0.2,0.1-0.4,0.4-0.2,0.7l1.8,3.7
	l-5.4,64.8v0.1l0.6,5.7l1.2,1.5L873.1,333.9"/>
<path class="st4" d="M897.3,174.3c0,0,4.1-3.6,4.8-9.5c0,0,5.4,1.4,2.6,6.9C902.2,176.8,897.3,174.3,897.3,174.3"/>
<path class="st3" d="M900.3,170.4c-1.4,2.5-3,3.9-3,3.9s4.9,2.4,7.4-2.6c0.2-0.5,0.4-0.9,0.5-1.3
	C903.3,172.1,900.8,170.7,900.3,170.4"/>
<path class="st5" d="M866.2,211.7c0,0-1,39.3,2.6,46.7c0,0,24.6,8.5,41.5,4.4c0,0,14.3-36.1,13.1-52.8
	c-1.2-16.7-11.5-21.6-33.3-27.2c0,0-11.9,0.8-41.5,18.7C819,219.2,866.2,211.7,866.2,211.7"/>
<path class="st21" d="M874.7,187.6c-6.4,2.8-15,7.1-26.1,13.8c-29.6,17.9,17.7,10.3,17.7,10.3v0
	C866.9,204.1,868.8,193.2,874.7,187.6"/>
<path class="st19" d="M923.4,209.9c-0.1-1.4-0.3-2.7-0.5-3.9c-5.3-4-14.7-9.6-19.2-4.2c-7.1,8.4-8.1,24.9-8.1,24.9l-22.4,4.8
	c0,0-8.5,0-6.3,16.3c0.4,4.9,1,8.8,1.9,10.7c0,0,24.6,8.5,41.5,4.4C910.3,262.7,924.6,226.5,923.4,209.9"/>
<path class="st36" d="M860.6,194.4c-0.9,0.5-1.7,0.9-2.6,1.4c2.3,1.6,6.8,5.1,9,9.9c0.2-1.4,0.5-2.8,0.8-4.2
	C866.6,199.5,864.1,195.7,860.6,194.4"/>
<path class="st36" d="M861,208c0.2-1.4,0.5-2.8,0.8-4.2c-1.1-2-3.3-4.8-6.2-6.6c-0.9,0.5-1.8,1-2.7,1.6
	C855.4,200.5,859.1,203.8,861,208"/>
<path class="st37" d="M867.1,206.3L867.1,206.3c-0.3,0-0.5-0.3-0.5-0.5c0.7-8.1,4.2-13.8,4.4-14.1c0.1-0.2,0.4-0.3,0.7-0.2
	s0.3,0.5,0.2,0.7c0,0.1-3.5,5.8-4.2,13.6C867.6,206.1,867.4,206.3,867.1,206.3"/>
<path class="st23" d="M792.1,144.6c0,0-7.9,5-7.9,8.6s1.6,5.9,2.7,6.8c1.1,0.9,19.3,1.8,19.3,1.8l-9.4-15.1L792.1,144.6"/>
<path class="st22" d="M784.2,153.1c0-2.7,4.5-6.2,6.7-7.8c1.2,2.3,3.1,5.8,3.2,6.4c0.2,0.9-0.9,3.8-2.9,4.5c-1.8,0.6-5.3,1.1-6.5,0
	C784.4,155.4,784.2,154.3,784.2,153.1"/>
<path class="st24" d="M788.3,154.9c0,0,1.1,5-0.5,4.7c-1.6-0.2-3.6-6.1-2.9-7.2C785.6,151.3,787.6,151.1,788.3,154.9"/>
<path class="st22" d="M803.2,131.5c2.2-0.2,4.1,2.5,4.1,2.5s1.6-4.7,3.6-5.4c2-0.7,9.9,2.9,9.9,2.9s16.2-4.1,17.1-4.3
	c0.9-0.2,2-0.2,3.4,5.2c1.3,5.4-4.5,9.7-4.5,9.7s15.5,5,16.9,6.3s-7.4,6.8-7.4,6.8s0.7,0.4,1.6,1.4c0.9,0.9-0.2,2.7-1.6,3.8
	c-1.3,1.1-24.3,1.5-24.8,1.5c0,0-19-0.2-21-0.6c-2-0.4-4.8-3.1-5.2-5.2c-0.3-1.7,0.5-3.8,0.5-3.8c-1.9-0.9-7-11.3-7-11.3
	s-2.3-3.6-2.3-4.5S800.9,131.7,803.2,131.5"/>
<path class="st23" d="M795.7,152.9c-0.1,0.3-0.2,0.6-0.3,0.8c0.2-0.8,0.4-1.4,0.4-1.4c-1.9-0.9-7.1-11.3-7-11.3
	c0.7,1.1,1.6,1.9,2.4,1.9c2,0,6.5,1.3,8.3,0.4c1.8-0.9,2.9-1.8,4.1-0.9c1.1,0.9,7.9,4.3,8.7,1.7c0.8-2.6,1-6.2,1.2-6.2
	s6.3,3.4,6.9,0.1c0,0,2,0.4,5.4-0.7c3.4-1.1,11.3-7.2,11.7-7c0.4,0.2,3.2,4.6,3.3,6.9c-0.5,1.2-1.3,2.3-2.1,3.1
	c-1.8,1.7-4,3.5-4,3.5s-2.2-2.4-5.7-3.5c-3.5-1.1-6-0.6-8,0.3s-5.6,2.9-6.8,3.8c-1.1,0.9,0.5,2.6,1.5,3.5c0,0-4.8-1.6-6.7-1.9
	C807.1,145.8,797.7,144.6,795.7,152.9"/>
<path class="st23" d="M795.5,156.8l1.9,0.7l4.5,2.5c0,0,22-4.8,20.3-7c-1.6-2.2-3.4-2.9-3.4-2.9s7.9,1,9.3,0.1l3.6,0
	c0,0,3,0.6,4.1-1.8c0,0,11.5,4.1,16.5,2.5c-2.2,2-6.1,4.4-6.1,4.4c-1.9-1.5-7.3-5.6-8.7-5.3c-1.8,0.4-3.1,1.3-3.1,1.3
	s-1.8,2.5-3.8,4.1c-2,1.6,9.3,4.4,17.5,2.5c-0.2,0.9-1,1.8-1.8,2.5c-1.3,1.1-24.3,1.5-24.8,1.5c0,0-19-0.2-21-0.6
	C798.7,160.8,796.3,158.7,795.5,156.8"/>
<path class="st23" d="M846.9,155.7L846.9,155.7c0,0-0.3-0.2-0.7-0.5C846.3,155.2,846.5,155.4,846.9,155.7"/>
<path class="st24" d="M814.1,144.4c0,0,0.5-13.6-2.2-14.5c-2.7-0.9-4.3,4.7-4.3,4.7l5.2,11L814.1,144.4"/>
<path class="st24" d="M834.9,143c0,0,1.6-15.3,3.4-15.1c1.8,0.2,3.2,6.1,2,8.6C839.2,138.9,834.9,143,834.9,143"/>
<path class="st24" d="M828.1,155.1c0,0,3.7-2.9,3.9-6.2c0.2-3.4-2.9-2.9-3.8,1.1S828.1,155.1,828.1,155.1"/>
<path class="st24" d="M803.6,161.2c0,0-3.6-5-5.9-6.3c-2.2-1.4-2.2,0.9-1.8,1.8C796.4,157.6,799.1,161.5,803.6,161.2"/>
<path class="st24" d="M812.8,146.7c0-0.5,0.3-1,0.9-1.6c2.4-2.6,8.7-5.2,10.8-5.2c6.6,0,9.6,3.6,10.4,4.6c1.1,1.5,1.1,3.2,0.1,5
	c-0.8,1.4-1.9,2.3-1.9,2.3L833,152l0,0c-2.8,2.1-6.5,3.7-10,5c0.3-0.3,0.5-0.7,0.6-1.1c0.2-0.7,0-1.5-0.5-2.3
	C822,151.8,818.2,148.4,812.8,146.7 M795.1,154L795.1,154c-0.1,0.9-0.1,1.4-0.1,1.4c0,0.1,0.1,0.2,0.2,0.2c0.1,0,0.2-0.1,0.2-0.2
	c0,0,0-2.3,1.2-4.5c1.6-3,4.4-4.6,8.3-4.8c2.7-0.1,5.1,0.2,7.3,0.9c0,0.1,0.1,0.1,0.2,0.1l0.1,0c5.3,1.7,9,5,10.2,6.8
	c0.4,0.7,0.6,1.3,0.4,1.9c-0.3,1-1.4,1.6-1.4,1.6l-0.1,0.1c-5.1,1.7-9.5,2.6-9.6,2.6c-0.1,0-0.2,0.1-0.2,0.3c0,0.1,0.1,0.2,0.2,0.2
	l0,0c0.1,0,13.8-2.7,21-8.2l0.1-0.1l0.1,0c0,0,2.7-2.2,4.6-2.2c1.4,0,6.6,4,9.5,6.4c0.1,0.1,0.2,0.1,0.3,0c0.1-0.1,0.1-0.2,0-0.3
	c-2.5-2-8.1-6.5-9.8-6.5c-1.1,0-2.3,0.6-3.3,1.2c1.1-1.5,2.3-4,0.5-6.5c-0.8-1.1-3.9-4.8-10.8-4.8c-0.7,0-1.7,0.2-2.9,0.6
	c-2.6-3.7-0.9-7.8-0.8-7.9c0.1-0.1,0-0.2-0.1-0.3c-0.1,0-0.2,0-0.3,0.1c0,0-1.8,4.3,0.8,8.2c-2.8,1-6.2,2.8-7.8,4.6
	c-0.1,0.1-0.2,0.3-0.4,0.4c-0.9-2.1-4.9-10.1-5.1-10.5c-0.1-0.1-0.2-0.2-0.3-0.1c-0.1,0.1-0.2,0.2-0.1,0.3c0,0.1,4.4,9,5.1,10.7
	l0,0.1c-0.2,0.3-0.3,0.6-0.3,0.9c-2.2-0.6-4.7-1-7.4-0.9c-6.9,0.3-9,4.9-9.7,7.7l-4.1-7.8c-0.1-0.1-0.2-0.2-0.3-0.1
	c-0.1,0.1-0.2,0.2-0.1,0.3L795.1,154"/>
<path class="st38" d="M798.7,153c-0.1,0,0-0.3,0-0.3s3.8-5.4,7.9-5.4c4.1,0,4.9,1.4,4.1,1.4c-0.9,0-10.8,3.4-11.5,4.1
	C798.9,152.9,798.8,153,798.7,153"/>
<path class="st38" d="M808.9,141.2c-0.8,0-4.5-4.8-5.7-5.6c-0.2-0.1-0.6-0.2-1.2-0.2c-3.3,0-11.5,1.8-13.2,2c-0.5,0.1-0.8,0.1-1,0.1
	c-0.4,0,0.3-0.2,0.1-0.5c-0.2-0.4,16-4.5,16-4.5c2.3,0.2,5.2,7.2,5.2,8.6C809,141.1,809,141.2,808.9,141.2"/>
<path class="st38" d="M828.9,146.6c0,0-11.3-3.2-10.1-3.8c0.9-0.6,4.8-1.7,7.4-1.7c0.5,0,1,0.1,1.4,0.2c2.3,0.7,2.9,5,2.9,5
	s-0.2,0-0.4,0C829.6,146.1,829.1,146.2,828.9,146.6"/>
<path class="st38" d="M846,156.5c0,0-11-2-10.4-3.4c0.6-1.2,1.7-1.8,2.4-1.8c0.1,0,0.2,0,0.3,0C839,151.5,846,156.5,846,156.5"/>
<path class="st38" d="M851.2,148.4c0,0-12.7-2.7-13.3-3.6c-0.3-0.4,0-0.6,0.6-0.6C840.9,144.2,849.2,147.1,851.2,148.4"/>
<path class="st38" d="M822.8,135.2c-1,0-0.9-1-0.7-2.1c0.2-1.4,13.3-4.3,13.3-4.3c-4.9,1.6-10.4,5.9-11.9,6.3
	C823.2,135.2,823,135.2,822.8,135.2"/>
<path class="st38" d="M814.2,133.8c-0.2,0-0.2-1.5-0.4-2.7c-0.2-1.4-1.8-2-1.8-2c2.7,0.5,7.4,2.9,7.2,3.4
	C818.9,132.8,814.4,133.5,814.2,133.8C814.2,133.8,814.2,133.8,814.2,133.8"/>
<path class="st38" d="M788.5,151.6c-0.1,0-0.1,0-0.2-0.1c-0.9-0.7-2-0.2-2.3-0.7c-0.2-0.5,4.5-4.1,4.5-4.1
	C792,147,789.5,151.6,788.5,151.6"/>
<path class="st13" d="M760.1,160.2l113.1,0.4l-1.4,81.3l-62,4.8l-49.4-7.3L760.1,160.2"/>
<path class="st15" d="M808.2,160.3l-48.1-0.2l0.3,79.2l49.4,7.3l0.2,0L808.2,160.3"/>
<path class="st12" d="M809.4,246.6l0.4,0.1l1.2-0.2l-1.8-86.2l-1.7,0L809.4,246.6"/>
<path class="st22" d="M844,244l-5.8,0.5c0.5-9.8-1.1-77.3-0.7-84.2h7.6L844,244"/>
<path class="st23" d="M784.4,242.9l-4.8-0.7l-3.3-82l6,0L784.4,242.9"/>
<path class="st32" d="M865.1,232.8c0,0-2.7-6.6-4.1-6.3c-1.4,0.4,0.6,3.4-0.4,3.4s-5-5.2-6.5-4.4c-1.4,0.7,4,4.8,3.6,5
	c-0.4,0.2-5.8-2-6.5-1.4c-0.8,0.6,0.8,2,4.6,2.8c0,0,1.6,0.4,1.4,0.6c-0.2,0.2-5.6-0.2-5.6,0.6c0,0.8,1.4,1,5.6,1.2
	c0,0,0.8,0,0.4,0.2c-0.4,0.2-5,0.8-3.6,1.8c1.4,1,11.1-0.4,11.1-0.4L865.1,232.8"/>
<path class="st5" d="M902.1,186.4c0,0,15.9,4.4,21.3,13.6c5.6,9.5-3.2,39.7-13.7,44.9c-10.5,5.2-37.9-4.2-45.4-8.7c0,0,0-2.6,0.8-4
	l33.7-3.4c0,0-1.9-18.6,6-29.2L902.1,186.4"/>
<path class="st32" d="M879.3,165.4c0,0-1.4,12.5,4.8,12.1c6.1-0.4,9.1-4.8,9.1-4.8s4.6,0.8,4.6-3c0-3.8-3.6-4.6-4.8-2
	c0,0-6.2-0.2-8.7-6C884.3,161.8,882.3,164.6,879.3,165.4"/>
<path class="st32" d="M894.1,183.7l-0.7-11.6l-7.5,1.7l-0.3,9.7c-1.7,0.5-4,1.2-6.9,2.3c-0.6,2.6-1.4,9.8,6.8,9.8
	c8.4,0,14.4-7.5,16-9.8C899.2,185.2,896.7,184.4,894.1,183.7"/>
<path class="st33" d="M891.7,174.8c0-0.3,0.1-0.5-0.2-0.7c-0.2-0.1-0.5-0.1-0.7,0.2c0,0-0.4,0.7-1.4,1.4c-0.7,0.5-1.9,1.2-3.6,1.6
	l-0.2,5.2C891.8,180.8,891.6,175.1,891.7,174.8"/>
<path class="st39" d="M881.7,172.1c0,0,2.4,1.2,4.4-0.3C886,171.9,883.9,177.7,881.7,172.1"/>
<path class="st40" d="M923.1,222.4c0.4-1.4,0.7-2.8,1-4.2c-2.3-0.7-13.7-3.8-25-1.8c-0.1,1.3-0.3,2.5-0.3,3.6
	C900.4,219.9,909.9,218.4,923.1,222.4"/>
<path class="st40" d="M924.7,214.8c0.2-1.3,0.3-2.5,0.4-3.7c-2-0.7-11.1-3.3-24.6-1.8c-0.4,1.3-0.6,2.6-0.9,3.9
	C901.2,212.9,911.1,211.2,924.7,214.8"/>
<path class="st33" d="M856,160.3c0.3,0.8,1.3,4.2,0.6,5.1c-0.7,0.9-1.9-0.5-2.3-3.9c0,0-0.2-0.4-0.2,0c0,0.4,0.5,5.4-0.6,5.5
	c-1.3,0.1-0.9-5.6-0.9-5.6s0-0.2-0.2,0s-0.1,4.8-1,4.9c-0.8,0.1-1.4-1.1-0.5-4.8c0,0,0-0.4-0.2,0c-0.2,0.4-0.7,2.9-1.5,2.9
	c-0.6,0-1-2.7,0.6-5.1c2.1-3.3,8-0.5,9.6,1.4L856,160.3"/>
<path class="st21" d="M867.3,252c0,0.4,0.1,0.7,0.2,1.1c2,0.7,7.4,2.3,14.4,3.6c6.8,1.2,12.6,1.7,17.5,1.7c5.3,0,9.6-0.5,12.9-1.2
	c0.1-0.4,0.3-0.7,0.4-1.1C893.1,260.3,870.4,253,867.3,252"/>
<path class="st41" d="M892.8,168L892.8,168c-5.2-0.6-7.8-4.4-8.6-5.9c-2.2,3-6.2,3.9-6.4,4c-0.2,0-0.4-0.1-0.5-0.3
	c0-0.2,0.1-0.4,0.3-0.5c0,0,4.4-1,6.3-4.2l0.4-0.7l0.3,0.8c0,0.1,2.2,5.4,8.2,6.1c0.2,0,0.4,0.2,0.3,0.4
	C893.2,167.8,893,168,892.8,168"/>
<path class="st2" d="M128.3,406.1c0,4.4-22.3,8-49.8,8c-27.5,0-49.8-3.6-49.8-8c0-4.4,22.3-8,49.8-8
	C106,398.2,128.3,401.7,128.3,406.1"/>
<path class="st33" d="M120.9,188.8l1.5-6.7h-5.6l-0.5,3.1l2.4,4L120.9,188.8"/>
<path class="st32" d="M87.7,407l0.6-16.9l3.8,0.3l-2.1,16.2L87.7,407"/>
<path class="st42" d="M87.4,407.8c-0.7,0-1.1-0.7-0.9-1.3c0.4-0.9,1.3-2.1,3.7-2.9c4.3-1.4,11.4-2.6,12.5-1.3
	c0.6,0.8,1.1,2.1,1.3,3.3c0.3,1.2-0.6,2.3-1.8,2.3L87.4,407.8"/>
<path class="st43" d="M102,405.3c1.5-0.4,1.5-1.5,1.2-2.3c-0.1-0.2-0.3-0.5-0.4-0.7c-1.1-1.3-8.1-0.1-12.4,1.2
	C85.3,406.2,99.6,405.9,102,405.3"/>
<path class="st33" d="M47.7,405.9l5-20.8l2.7,5.4L50,405.8L47.7,405.9"/>
<path class="st42" d="M47.5,407.8c-0.9,0-1.5-0.9-1-1.7c0.5-0.9,1.4-1.8,3.5-2.5c4.3-1.4,11.4-2.8,12.5-1.5c0.5,0.7,0.9,1.7,1.2,2.7
	c0.4,1.5-0.7,2.9-2.2,2.9L47.5,407.8"/>
<path class="st43" d="M61.7,405.1c1.5-0.4,1.5-1.5,1.1-2.4c-0.1-0.2-0.3-0.5-0.4-0.7c-1.1-1.3-8.1,0-12.3,1.4
	C45,406.2,59.4,405.8,61.7,405.1"/>
<path class="st5" d="M87.7,263.3c0,0-8.4,62.1-9.6,66.7s-24.2,67.2-24.2,67.2s-2.1,0.3-4.7-0.9c0,0,14.4-61.3,14.6-67.9
	S61.4,269,61.4,269L87.7,263.3"/>
<path class="st6" d="M55.3,262.7c0,0-1.2,2.8,11.1,25.2c12.3,22.3,21.2,38.6,21.3,40.8c0.1,2.3-0.5,69.3-0.5,69.3s2.1,1.1,4.9-0.3
	c0,0,9.7-68.8,9.6-70.9c-0.1-2.1-20.3-63.7-20.3-63.7L55.3,262.7"/>
<path class="st5" d="M79.8,269.9c2.8-0.2,5,3.2,5.4,4.3c-2-6.1-3.8-11.2-3.8-11.2l-26.1-0.3c0,0-1.2,2.8,11.1,25.2
	c8.1,14.6,14.7,26.6,18.3,33.8l0,0C67.9,286.4,75.3,270.2,79.8,269.9"/>
<path class="st19" d="M80.6,314l-18.7-34.6c0,0.7,0.1,1.4,0.1,2.2l18.4,34C80.4,315,80.5,314.5,80.6,314"/>
<path class="st17" d="M75.8,185.3c0,0,6.9,0.7,15,2.1c3.2,0.6,6.3,2,8.9,4c5.9,4.6,11.5,19.8,14.8,19.7c6.3,0,3.8-17.1,2.3-22.3
	l5.1-0.8c5.7,9.3,14.8,50.9-11.3,44.9c-3.3-0.7-6.1-1.6-11-5.1c0,0-5.1,30.3-8.1,36.7c0,0-22.4,5.4-39.8-0.5c0,0-3.5-23.1-4.9-34.8
	c0,0-10,6.9-10.3,13.1c-0.4,6.6,9.6,13.5,9.6,13.5s0.6,2.5-1.4,4.1c0,0-27.1-7.8-24.3-27.9C21.8,219.8,34.2,186.8,75.8,185.3"/>
<path class="st5" d="M71.2,164.2l-11.4-36.6c-0.2-0.8,0.7-1.3,1.3-0.8l25.5,25.1L71.2,164.2"/>
<path class="st19" d="M68,154l2.8,8.9c0.3-5,1.5-15.4,6.3-20.3l-2-2C73.3,143.1,69.8,148.3,68,154"/>
<path class="st19" d="M64.7,143.3l1.7,5.4c0.9-4.3,2.5-8.8,5.3-11.5l-2-2C68.4,136.8,66.4,139.8,64.7,143.3"/>
<path class="st19" d="M62.9,137.5c0.7-2.2,1.7-4.3,2.9-6l-1.9-1.9c-0.7,1-1.5,2.3-2.3,3.7L62.9,137.5"/>
<path class="st44" d="M92.6,166.9c0,0,6.3,4.9,8.4,1.6c2.1-3.4-5.5-8.9-5.5-8.9s7.2,1.1,6.9-2.7c-0.3-3.8-6.9-7.2-15.4-5.7
	c0,0,3.3-4,1.1-4.8c-2.2-0.8-11.9,3-14.3,11.6c0,0-0.4-2.6-1.6-2.4c-1.2,0.2-4.3,6.6,2.4,14.9c0,0,4.8,3.3,8.2,0.7
	S92.6,166.9,92.6,166.9"/>
<path class="st45" d="M82.9,171.2c-3.5,2.6-8.2-0.7-8.2-0.7c-1.8-2.2-2.8-4.3-3.5-6.1c4,7,6.5-4.7,6.5-4.7s0.2,2.8,3,2.3
	s1.9-6.2,1.9-6.2s2.9,4.9,10.7,7.6c6.3,2.2,5-0.8,4.3-2.1c2.1,1.9,4.8,5,3.4,7.2c-2.1,3.4-8.4-1.6-8.4-1.6S86.3,168.6,82.9,171.2"/>
<path class="st32" d="M77.8,174.9l-3.1,15.7l7.3,5.3l4.1-3.5l-1.2-11.9L77.8,174.9"/>
<path class="st33" d="M85.5,186.6c-1.8-0.6-8-3.1-7.4-9.6l6.8,3.6L85.5,186.6"/>
<path class="st32" d="M92.8,165.7c0,0,2.3,16.5-5.7,16.4c-8-0.1-9.6-5.4-9.6-5.4s-3.6,1.1-4.6-1.7c-1-2.8-0.1-7,4.9-4.9
	C77.9,170.1,84.3,161.1,92.8,165.7"/>
<path class="st46" d="M78,170.2c0.1,0,0.3-0.1,0.4-0.2c3.3-3.9,6.9-5.6,10.8-5c2.9,0.4,4.9,1.9,4.9,1.9c0.2,0.2,0.5,0.1,0.7-0.1
	c0.2-0.2,0.1-0.5-0.1-0.7c-0.1-0.1-2.2-1.7-5.4-2.1c-5.3-0.7-9.3,2.5-11.7,5.4c-0.2,0.2-0.2,0.5,0.1,0.7
	C77.8,170.2,77.9,170.2,78,170.2"/>
<path class="st9" d="M90.7,176.5c0,0,53.8,5.1,59.5,4.1c5.1-0.9,10.3-8.2,4.6-10.3c-5-1.8-5.6,3.1-5.6,3.1h-0.5c0,0-1-6.7,6.7-5.6
	c7.7,1,9.7,15.9-4.6,17.4s-60.5-6.7-60.5-6.7S88.6,177,90.7,176.5"/>
<path class="st2" d="M101.5,177.5c-6.4-0.6-10.8-1-10.8-1c-2.1,0.5-0.5,2-0.5,2s4.4,0.8,10.9,1.8l0,0
	C101.1,180.3,99.9,178.5,101.5,177.5L101.5,177.5"/>
<path class="st32" d="M88.8,187.1c1,3.5,2.3,12.3-4.8,19.6c0,0-18.7-10.7-15.6-20.8c2.4-0.3,4.9-0.5,7.5-0.6
	C75.8,185.3,81.6,185.9,88.8,187.1"/>
<path class="st16" d="M57.9,217.4c-8.1,29.7,13.2,42.4,23.4,42.5c9,0.1,12.7-6.8,13.9-10c-1.3,6.4-2.8,12.3-3.9,14.7
	c0,0-22.4,5.4-39.8-0.5c0,0-3.5-22.7-4.9-34.5C52.3,225.1,57.9,217.4,57.9,217.4"/>
<path class="st47" d="M68.6,185.9C70.4,197,83.7,205,83.7,205c6-6.3,4.9-15.1,4.3-18.1c0.5,0.1,1.1,0.2,1.7,0.3
	c4.8,11.1-5.6,22.3-5.6,22.3c-14.3-4.8-18.3-20.2-18.9-23.1C66.3,186.3,67.4,186.1,68.6,185.9"/>
<path class="st16" d="M46.6,229.3c3.4-3.2,8.5-8.4,11.4-12.9c0.2-0.3,0.5-0.3,0.7-0.2c0.3,0.2,0.3,0.5,0.2,0.7
	c-3.1,5-8.7,10.4-12.1,13.6C46.7,230.1,46.7,229.7,46.6,229.3"/>
<path class="st16" d="M95.7,189c1.4,0.7,2.8,1.5,4,2.5c5.9,4.6,11.5,19.8,14.8,19.7c6.3,0,3.8-17.1,2.3-22.3l5.1-0.8
	c5.7,9.3,14.8,50.9-11.3,44.9c-3.3-0.7-6.1-1.6-11-5.1C101.1,216.6,103.2,194.8,95.7,189"/>
<path class="st18" d="M100.2,198.2c0.3-0.1,0.6,0.1,0.7,0.4c0.1,0.4,2.5,10.3-0.5,30c-0.3-0.2-0.6-0.5-1-0.7v0l0,0
	c2.9-19.2,0.5-29,0.5-29.1C99.8,198.5,99.9,198.2,100.2,198.2"/>
<path class="st32" d="M45.5,256.7c0,0,2.8-2.7,4.5-3.5l0.4,2.3c1.1,0.1,6.1-2.2,7.3-1c1,1-5.2,2.2-4.9,2.5c0.3,0.3,5.7,0,6.2,0.8
	c0.5,0.8-1.3,1.5-4.9,1.1c0,0-1.5-0.1-1.4,0.1c0.1,0.2,4.6,1,4.6,1.8c0,0.5-1.5,0.9-5.2-0.2c0,0-0.7-0.2-0.4,0.1
	c0.3,0.3,4.7,1.8,3.1,2.2c-2,0.6-10.2-3.3-10.2-3.3L45.5,256.7"/>
<path class="st33" d="M50.4,255.5c0.1,0-0.5,0.1-0.7,0.1c-0.2,0-0.3-0.1-0.4-0.2c-0.1-0.1-0.1-0.2-0.1-0.4c0-0.1,0.1-0.2,0.2-0.3
	c0.2-0.2,0.5-0.4,0.7-0.5L50.4,255.5"/>
<path class="st47" d="M42.9,253.4c1.7,1.5,3,2.4,3,2.4s0.6,2.5-1.4,4.1c0,0-2.1-0.6-5.1-1.9C40.9,256.9,42.2,255.3,42.9,253.4"/>
<path class="st16" d="M39.5,258.5l0.1-0.1c2.3-1.4,3-3.5,3.6-4.9c0.1-0.3,0-0.6-0.3-0.7s-0.6,0-0.7,0.3c-0.4,1-1.4,3.4-3.1,4.4
	c-0.3,0.1-0.3,0.5-0.2,0.7C39,258.4,39.2,258.5,39.5,258.5"/>
<path class="st32" d="M117.8,189.3c0,0-3.6-4.1-3.1-5.1c0.5-1,0.5-4.1,2.1-3.6c1.5,0.5,0.5,3.6,0.5,3.6s3.1,1.5,3.6,4.1
	C121.2,189.9,117.8,189.3,117.8,189.3"/>
<path class="st47" d="M117.8,193.9c-0.3-1.8-0.8-3.8-1.1-5l5.1-0.8c0.7,1.1,1.4,2.6,2.1,4.3C121.7,192.3,119.8,193.2,117.8,193.9"/>
<path class="st18" d="M117.8,194.4c0.1,0,0.2,0,0.3,0c2.6-1.3,5.7-1.2,5.7-1.2c0.3,0,0.5-0.2,0.6-0.5c0-0.3-0.2-0.5-0.5-0.6
	c-0.1,0-3.4-0.1-6.2,1.3c-0.3,0.1-0.4,0.5-0.2,0.7C117.5,194.3,117.7,194.4,117.8,194.4"/>
<path class="st32" d="M123,179.3c0,0-1.3,2.1-2.4,0.3c0,0-0.6,1.2-1.7,0c0,0-1.7,1.2-1.7,0c0,0-2.2,1-1.7-0.9c0,0,0.5-0.8,1.7-0.2
	c0,0,1.1-0.6,1.7,0c0,0,1.2-0.6,1.7,0C120.6,178.4,123.1,177.8,123,179.3"/>
</svg>
